<?xml version="1.0" encoding="utf-8"?>
<!-- Generator: Adobe Illustrator 25.4.1, SVG Export Plug-In . SVG Version: 6.00 Build 0)  -->
<svg version="1.1" id="Layer_1" xmlns="http://www.w3.org/2000/svg" xmlns:xlink="http://www.w3.org/1999/xlink" x="0px" y="0px"
	 viewBox="0 0 120 60" style="enable-background:new 0 0 120 60;" xml:space="preserve">
<style type="text/css">
	.st0{fill:#2C7D84;}
	.st1{fill:#327B89;}
	.st2{fill:#188B6A;}
	.st3{fill:#1B9166;}
	.st4{fill:#367593;}
	.st5{fill:#28827D;}
	.st6{fill:#3A7299;}
	.st7{fill:#218872;}
	.st8{fill:#4A6BA8;}
	.st9{fill:#3F6BA1;}
	.st10{fill:#3F8788;}
	.st11{fill:#2E966E;}
	.st12{fill:#3E7A93;}
	.st13{fill:#48759E;}
	.st14{fill:#F9F9F9;}
</style>
<g>
	<path class="st0" d="M35.1,42c1.5-0.1,1.6-0.2,1.6-1.7c0-0.5,0-0.9,0-1.4c0-0.5,0.2-0.6,0.7-0.6c0.4,0,0.6,0.2,0.6,0.6
		c0,0.7,0,1.5,0,2.2c0,0.4-0.4,0.9,0.4,0.9c0.6,0,1.3,0,1.3-0.8c0.1-0.7,0.1-1.5,0-2.2c0-0.5,0.2-0.7,0.7-0.7c0.5,0,0.7,0.2,0.6,0.7
		c-0.1,0.8,0.1,1.7-0.1,2.5C40.8,41.9,41,42,41.5,42c2.9,0,2.7,0.3,2.7-2.5c0-0.9,0-1.8,0-2.7c0-0.5,0.2-0.6,0.7-0.6
		c0.4,0,0.6,0.1,0.6,0.6c0,1.6,0,3.2,0,4.8c0,1.1-0.6,1.6-1.7,1.6c-2.8,0-5.6,0-8.5,0C35.1,42.8,35.1,42.4,35.1,42z"/>
	<path class="st1" d="M32.9,30.3c0.2,0,0.4,0,0.6,0c0.3-0.2,0.2-0.5,0.2-0.8c0.2-1.2,1-2,2.3-2c1.3,0,2.3,0.7,2.4,2
		c0.1,1.4,1.1,0.7,1.7,0.8c0.7,0.2,0.9-0.4,0.9-1c0-1.3,0-2.7,0-4c0-0.4,0-0.8,0.6-0.8c0.6,0,0.6,0.3,0.6,0.7c0,1.5,0,2.9,0,4.4
		c0,1.3-0.6,1.8-1.9,1.9c-1.1,0-2.3-0.1-3.3,0.7c-0.6,0.5-1.6,0.4-2.3-0.1c-0.7-0.5-1.3-0.6-2.1-0.7C32.8,31.1,32.4,30.6,32.9,30.3z
		 M36.3,28.6c-0.7-0.1-1.5,0.6-1.5,1.3c0,0.7,0.3,1.2,1.1,1.3c0.7,0.1,1.2-0.3,1.3-1.1C37.3,29.4,37.1,28.8,36.3,28.6z"/>
	<path class="st2" d="M73.5,31.5c-1,0-2,0-3,0c-0.4,0-0.7,0.1-0.9,0.6c-0.2,0.7-0.8,1.1-1.6,1.2c-0.2,0-0.6,0.2-0.6-0.2
		c0-0.3-0.1-0.6,0.3-0.7c0.2,0,0.4-0.1,0.5-0.2c0.1-0.1,0.2-0.2,0.2-0.3c0-0.2-0.2-0.2-0.4-0.2c-0.3,0-0.5,0-0.8,0
		c-1.3-0.1-2.2-1.1-2.2-2.5c0-1.3,0.9-2.3,2.2-2.4c1.4-0.1,2.2,0.6,2.4,2c0.2,1.6,0.2,1.5,1.9,1.6c1,0,1.3-0.4,1.3-1.3
		c0-0.6,0-1.1,0-1.7c0-0.5,0.1-0.7,0.7-0.7c0.5,0,0.6,0.3,0.6,0.7c0,1-0.1,2-0.1,3C73.6,30.6,73.5,31,73.5,31.5z M68.5,29.3
		c0-1.1-0.4-1.6-1.1-1.5c-0.8,0.1-1.1,0.6-1.1,1.3c0,0.8,0.6,1.2,1.5,1.3C68.7,30.4,68.5,29.8,68.5,29.3z"/>
	<path class="st3" d="M73.3,42c1.9-0.1,1.9-0.1,1.9-2c0-1,0-2,0-3c0-0.4,0-0.8,0.6-0.8c0.6,0,0.7,0.2,0.7,0.7
		c-0.1,1.6,0.1,3.3-0.1,5c0.9,0,1.7,0,2.6,0c0.6,0,0.8-0.3,0.8-0.9c0-1.4,0-2.7,0-4.1c0-0.5,0.1-0.8,0.7-0.8c0.6,0,0.6,0.3,0.6,0.8
		c0,1.4,0,2.8,0,4.3c0,1.4-0.6,2-2,2c-2,0-3.9,0-5.9,0C73.2,42.8,73.2,42.4,73.3,42z"/>
	<path class="st4" d="M32.9,30.3c-0.6,0.3-0.1,0.8-0.2,1.2c-0.9,0-1.8,0.1-2.7,0c-0.5,0-0.8,0.1-1,0.6c-0.3,0.8-0.9,1.1-1.7,1.1
		c-0.2,0-0.5,0-0.5-0.3c0-0.3-0.1-0.6,0.3-0.6c0.4-0.1,0.7-0.2,0.9-0.7c-0.5,0-1,0-1.5-0.1c-1.1-0.2-1.9-1.2-2-2.4
		c0-1.2,0.7-2.2,1.8-2.4c1.2-0.2,2.2,0.3,2.7,1.3c0.2,0.4,0.2,0.8,0.2,1.3c-0.1,0.9,0.3,1.1,1.1,1C31.1,30.2,32,30.3,32.9,30.3z
		 M28,29.5c0-0.8,0-1.6-1-1.7c-0.7,0-1.2,0.4-1.2,1.2c0,0.8,0.6,1.3,1.5,1.3C28.1,30.4,28,29.9,28,29.5z"/>
	<path class="st2" d="M73.3,42c-0.1,0.4-0.1,0.8-0.2,1.2c-1.1,0-2.3,0.2-3.3-0.5c-0.2-0.1-0.5-0.1-0.7,0c-1.1,0.7-2.4,0.5-3.7,0.5
		c0-0.4,0-0.8,0-1.1c0.9,0,1.7-0.1,2.6-0.1c0.2,0,0.5-0.1,0.6-0.3c0.1-0.3-0.2-0.4-0.4-0.5c-0.3-0.2-0.7-0.5-1-0.6
		c-0.4-0.2-0.6-0.3-0.6-0.8c0-0.5,0.1-0.7,0.6-0.9c1.6-0.7,3.2-0.8,4.8,0.1c0.6,0.3,0.8,0.6,0.3,1.2c-0.5,0.6-1,1.1-1.6,1.7
		C71.6,42.2,72.5,41.9,73.3,42z M68.1,39.7c0.6,0.3,1,0.6,1.4,1c0.2,0.2,0.4,0.3,0.7,0c0.3-0.3,0.9-0.6,0.8-1
		c-0.1-0.4-0.7-0.4-1.2-0.4C69.3,39.2,68.7,39.3,68.1,39.7z"/>
	<path class="st5" d="M54.1,31.5c-1.1,0.2-1.9-0.1-2.5-1c-0.2-0.4-0.3-0.2-0.6-0.1c-1,0.7-2.3,0.4-2.9-0.7c-1.1-1.9,0.1-4.1,2.3-4.1
		c2.2,0,2.2,0,2.2,2.2c0,2.5,0,2.5,2.5,2.5c1.5,0,3.1,0,4.6,0c-0.3,0.3-0.6,0.2-0.9,0.2c-1.3,0-2.6,0.1-3.9,0
		C54.3,30.4,54,30.7,54.1,31.5z M51.5,27.6c-0.1-0.4,0.3-1.1-0.7-1.1c-1.1,0.1-1.7,0.5-1.7,1.6c0,0.9,0.4,1.6,1.1,1.6
		C51.1,29.7,51.5,29.1,51.5,27.6z"/>
	<path class="st6" d="M24.2,43.2c-0.8,0-1.4,0-1.7,1c-0.2,0.6-0.9,0.8-1.5,0.8c-0.2,0-0.5,0.1-0.5-0.3c0-0.3-0.2-0.6,0.3-0.7
		c0.4-0.1,0.7-0.2,0.8-0.8c-0.5,0-0.9,0-1.3,0c-1-0.1-1.6-0.6-1.9-1.5c-0.4-1-0.3-1.9,0.4-2.7c0.7-0.7,1.5-0.9,2.5-0.6
		c1,0.3,1.5,1.1,1.6,2.2c0.1,1.4,0.1,1.4,1.4,1.4C24.2,42.4,24.2,42.8,24.2,43.2z M21.6,41.2c0-1.2-0.4-1.8-1.1-1.7
		c-0.7,0.1-1,0.5-1.1,1.2c0,0.9,0.5,1.3,1.5,1.3C21.6,42.1,21.6,41.6,21.6,41.2z"/>
	<path class="st4" d="M24.2,43.2c0-0.4,0-0.8,0-1.1c0.8,0,1.7-0.1,2.5-0.2c0.2,0,0.5-0.1,0.5-0.4c0-0.2-0.2-0.3-0.4-0.4
		c-0.4-0.2-0.7-0.5-1.1-0.7c-0.4-0.2-0.6-0.4-0.5-0.8c0-0.4,0.1-0.7,0.5-0.9c1.7-0.8,3.3-0.8,5,0.1c0.6,0.3,0.6,0.7,0.2,1.2
		c-0.5,0.6-0.9,1.2-1.5,1.7C29.4,42,29.7,42,30,42c0,0.4,0,0.8,0,1.2C28,42.2,26.1,43.6,24.2,43.2z M26.7,39.6
		c0.5,0.4,1,0.7,1.4,1.1c0.3,0.2,0.5,0.1,0.7,0c0.3-0.3,0.8-0.5,0.8-1c0-0.2-0.4-0.3-0.7-0.3C28.1,39.1,27.4,39.3,26.7,39.6z"/>
	<path class="st6" d="M13.6,30.3c2.6,0,5.2-0.1,7.8,0c0.9,0,0.9-0.3,0.6-1c-0.6-1.4-2.1-1.9-3.5-1.1c-0.3,0.2-0.6,0.6-1,0
		c-0.4-0.7,0.1-0.8,0.5-1c1.4-0.8,2.7-0.8,4,0.1c1.3,0.9,1.5,2.3,1.5,3.8c0,0.4-0.3,0.4-0.6,0.4c-2.3,0-4.7,0-7,0
		c0.1-0.7-0.1-1.1-1-1C14.6,30.5,14,30.6,13.6,30.3z"/>
	<path class="st7" d="M54.1,42c0.6,0,1.1,0,1.7,0c-0.1-0.6-0.3-1.1-0.2-1.7c0.2-1.4,1.3-2.2,2.7-2.1c1.3,0.1,2.2,1.2,2.2,2.5
		c0,1.4-0.9,2.4-2.2,2.4c-1.5,0-2.9,0-4.4,0C54,42.8,54.2,42.4,54.1,42z M58.1,42.1c0.7,0,1.1-0.5,1.2-1.2c0-0.8-0.4-1.5-1.1-1.5
		c-0.8,0-1.2,0.5-1.2,1.3C56.9,41.5,57.4,42.1,58.1,42.1z"/>
	<path class="st8" d="M5.8,42.9c-0.1-0.1-0.3-0.2-0.4-0.3c-0.4-0.5-0.6-0.9-1.3-0.3c-0.4,0.3-1.1,0.2-1.6-0.1c-1-0.5-1.5-1.7-1.2-3
		c0.3-1.3,1-1.9,2.3-2c2.7-0.1,2.6-0.1,2.7,2.6c0,0.6,0,1.2,0.1,1.8c-0.3-0.2-0.5-0.2-0.5,0.2C5.8,42.2,5.8,42.6,5.8,42.9z
		 M4.8,39.4c-0.2-0.4,0.4-1.2-0.7-1.2c-1.1,0-1.7,0.6-1.7,1.6c0,0.9,0.5,1.6,1.2,1.5C4.4,41.4,4.8,40.8,4.8,39.4z"/>
	<path class="st9" d="M13.6,30.3c0.4,0.3,1,0.2,1.4,0.1c0.8-0.1,1.1,0.3,1,1c-2.7,0-5.3,0-8,0c-0.4,0-0.7-0.1-0.7-0.6
		c0-0.5,0.2-0.7,0.7-0.7c0.9,0,1.7,0,2.6,0c0.5,0,0.6-0.2,0.6-0.6c-0.1-1-0.7-1.6-1.8-1.8c-0.5-0.1-1,0-0.9-0.8
		c0.1-0.7,0.7-0.4,1-0.4c1.5,0.1,2.6,1,2.8,2.6C12.5,30,12.7,30.5,13.6,30.3z"/>
	<path class="st8" d="M6.5,28.9c0,1.6-1,2.7-2.6,2.7c-1.4,0-2.6-1.1-2.6-2.6c-0.1-1.5,1.1-2.7,2.6-2.7C5.4,26.3,6.4,27.3,6.5,28.9z
		 M5.2,28.9c0-0.9-0.6-1.5-1.3-1.5c-0.7,0-1.3,0.6-1.2,1.5c0,0.9,0.6,1.6,1.3,1.5C4.6,30.4,5.2,29.7,5.2,28.9z"/>
	<path class="st9" d="M14.6,43.2c-0.6,0-1.3,0-1.9,0c-0.5,0-0.7-0.1-0.7-0.6c0-0.6,0.3-0.6,0.8-0.6c0.9,0,1.7,0,2.6,0
		c0.5,0,0.6-0.2,0.5-0.6c-0.1-1-0.7-1.7-1.9-1.9c-0.5-0.1-0.9-0.1-0.8-0.8c0.1-0.6,0.6-0.4,0.9-0.4c2.1,0.2,3.7,2.5,3.1,4.6
		c-0.1,0.4-0.4,0.3-0.6,0.3C15.9,43.2,15.2,43.2,14.6,43.2z"/>
	<path class="st3" d="M73.5,31.5c0-0.5,0.1-0.9,0.6-1.2c0.1,0,0.2,0,0.2,0c0.9,0.3,1.7,0.3,2.6,0c0.6-0.2,0.6-0.7,0.6-1.2
		c0-1.3,0-2.5,0-3.8c0-0.5,0-0.7,0.6-0.7c0.6,0,0.6,0.3,0.6,0.7c0,1.5,0,2.9,0,4.4c0,1.3-0.6,1.8-1.9,1.9
		C75.7,31.5,74.6,31.5,73.5,31.5z"/>
	<path class="st7" d="M54.1,31.5c-0.1-0.8,0.2-1.1,1-1c1.3,0.1,2.6,0,3.9,0c0.3,0,0.7,0.1,0.9-0.2c0.5-0.1,0.6-0.5,0.6-1
		c0-0.7,0-1.3,0-2c0-0.5,0.1-0.7,0.7-0.7c0.5,0,0.6,0.3,0.6,0.7c0,0.9,0,1.7,0,2.6c-0.1,1.1-0.6,1.6-1.6,1.6
		C58.1,31.5,56.1,31.5,54.1,31.5z"/>
	<path class="st7" d="M65.5,42.1c0,0.4,0,0.8,0,1.1c-0.9,0-1.6,0-2,1c-0.2,0.5-0.9,0.7-1.5,0.8c-0.2,0-0.6,0.2-0.6-0.3
		c0-0.3-0.2-0.7,0.4-0.8c0.9-0.2,1.1-0.8,1.1-1.6c0-1.1,0-2.2,0-3.3c0-0.5,0.1-0.7,0.7-0.7c0.6,0,0.7,0.3,0.6,0.7c0,0.7,0,1.3,0,2
		c-0.1,0.8,0.2,1.1,1,1C65.2,42,65.3,42,65.5,42.1z"/>
	<path class="st1" d="M30,43.2c0-0.4,0-0.8,0-1.2c0.8,0,1.7,0,2.5,0c0.8,0,1.2-0.4,1.3-1.2c0-0.6,0-1.3,0-1.9c0-0.5,0.1-0.6,0.6-0.6
		c0.5,0,0.6,0.2,0.6,0.6c0,0.9,0,1.8-0.1,2.7c0,0.3,0.1,0.4,0.3,0.4c0,0.4,0,0.8,0,1.2C33.4,43.2,31.7,43.2,30,43.2z"/>
	<path class="st9" d="M5.8,42.9c0-0.4,0-0.7,0-1.1c0-0.4,0.2-0.4,0.5-0.2C7.2,42.2,8.1,42,9,42c0.5,0,0.7-0.4,0.7-0.9
		c0-0.7,0-1.3,0-2c0-0.4,0-0.8,0.6-0.8c0.6,0,0.7,0.2,0.7,0.7c0,0.8,0,1.7,0,2.5c0,1.1-0.6,1.7-1.7,1.7C8.1,43.2,6.9,43.5,5.8,42.9z
		"/>
	<path class="st10" d="M44.7,28.1c0,1,0,1.9,0,2.9c0,0.5-0.2,0.6-0.7,0.6c-0.4,0-0.7-0.1-0.7-0.6c0-1.9,0-3.8,0-5.8
		c0-0.5,0.2-0.7,0.7-0.7c0.5,0,0.6,0.2,0.6,0.7C44.6,26.2,44.7,27.1,44.7,28.1z"/>
	<path class="st11" d="M79.7,28.1c0-1,0-1.9,0-2.9c0-0.4,0.1-0.7,0.6-0.7c0.5,0,0.7,0.1,0.7,0.7c0,1.9,0,3.8,0,5.8
		c0,0.5-0.2,0.6-0.7,0.6c-0.4,0-0.7-0.1-0.7-0.6C79.7,30,79.7,29,79.7,28.1z"/>
	<path class="st10" d="M47.7,39.8c0,1,0,1.9,0,2.9c0,0.5-0.2,0.6-0.7,0.6c-0.5,0-0.7-0.1-0.7-0.6c0-1.9,0-3.8,0-5.7
		c0-0.6,0.3-0.6,0.7-0.6c0.5,0,0.6,0.2,0.6,0.7C47.7,37.9,47.7,38.8,47.7,39.8z"/>
	<path class="st7" d="M64.1,28c0,1,0,1.9,0,2.9c0,0.4-0.1,0.7-0.6,0.7c-0.5,0-0.6-0.1-0.6-0.6c0-1.9,0-3.8,0-5.7
		c0-0.4,0.1-0.7,0.6-0.7c0.6,0,0.6,0.3,0.6,0.7C64.1,26.2,64.1,27.1,64.1,28z"/>
	<path class="st5" d="M54.1,42c0.1,0.4-0.1,0.8-0.2,1.1c-1.9,0-3-1-3-2.9c0-0.4,0-0.8,0-1.2c0-0.5,0.2-0.6,0.7-0.6
		c0.4,0,0.6,0.2,0.6,0.6c0,0.2,0,0.4,0,0.6C52.1,41.4,52.4,41.7,54.1,42z"/>
	<path class="st5" d="M108.5,36.7c-0.1,0.7-0.5,1.1-1.3,1.1c-0.7,0-0.9-0.4-0.9-1c0-0.8,0.5-1.3,1.2-1.3
		C108.1,35.5,108.5,35.9,108.5,36.7z"/>
	<path class="st1" d="M101.2,36.8c0.5,0,0.9,0.4,1,1c0.1,0.6-0.5,1.2-1.2,1.2c-0.6,0-1.1-0.4-1.1-1.1
		C100,37.3,100.3,36.8,101.2,36.8z"/>
	<path class="st0" d="M103.8,37.6c0.6,0,1,0.4,1,1.1c0,0.7-0.5,1.1-1.2,1.1c-0.7,0-1.1-0.4-1-1.1C102.6,38,103.1,37.6,103.8,37.6z"
		/>
	<path class="st5" d="M106.3,40.5c-0.6,0-1-0.2-1-0.9c0-0.8,0.5-1.2,1.2-1.3c0.6-0.1,1,0.3,1.1,0.9C107.5,40,107,40.4,106.3,40.5z"
		/>
	<path class="st7" d="M108.8,37.4c0-0.7,0.6-1.4,1.3-1.3c0.6,0,0.8,0.4,0.8,0.9c0,0.7-0.6,1.4-1.3,1.4C109,38.4,108.8,38,108.8,37.4
		z"/>
	<path class="st5" d="M106.6,33.1c-0.1,0.7-0.4,1.1-1.1,1.2c-0.7,0-1-0.5-1-1.1c0-0.6,0.4-1.2,1.1-1.2
		C106.3,31.9,106.6,32.4,106.6,33.1z"/>
	<path class="st0" d="M102.1,36.3c-0.8,0-1.1-0.4-1.1-1c0-0.7,0.3-1.2,1.1-1.2c0.7,0,1,0.5,1,1.1C103.1,35.7,102.8,36.2,102.1,36.3z
		"/>
	<path class="st5" d="M104.4,37.1c-0.6-0.1-0.9-0.5-0.8-1.1c0.1-0.7,0.4-1.2,1.2-1.1c0.7,0,1,0.5,1,1.1
		C105.7,36.6,105.3,37.1,104.4,37.1z"/>
	<path class="st1" d="M99.4,35.3c-0.7,0-1.1-0.4-1.1-1c0-0.6,0.3-1.2,1-1.2c0.7,0,1,0.4,1.1,1C100.4,34.8,100.1,35.2,99.4,35.3z"/>
	<path class="st0" d="M105.5,40.9c0.5,0.1,0.9,0.3,0.9,0.9c0,0.6-0.7,1.2-1.4,1.2c-0.5,0-1-0.3-1-0.9
		C104.1,41.5,104.8,40.9,105.5,40.9z"/>
	<path class="st1" d="M98.5,35.8c0.6,0.1,1,0.4,1,1.1c0,0.6-0.3,1.1-1,1.1c-0.7,0-1.1-0.5-1.1-1.1C97.4,36.3,97.7,35.9,98.5,35.8z"
		/>
	<path class="st1" d="M104,32.3c-0.1,0.7-0.4,1.1-1.1,1.1c-0.6,0-1-0.4-1-1c0-0.6,0.4-1.2,1.1-1.2C103.7,31.1,104,31.6,104,32.3z"/>
	<path class="st0" d="M102.6,42.2c-0.6,0-1.1-0.3-1.1-0.9c0-0.6,0.5-1.1,1.2-1.1c0.6,0,1.1,0.3,1.1,1
		C103.7,41.9,103.3,42.2,102.6,42.2z"/>
	<path class="st5" d="M109.1,38.8c0.6,0,0.8,0.3,0.9,0.9c0,0.7-0.7,1.3-1.4,1.3c-0.6,0-0.8-0.3-0.9-0.9
		C107.7,39.5,108.4,38.8,109.1,38.8z"/>
	<path class="st7" d="M111.6,34.2c0,0.6-0.3,1.1-1.1,1.2c-0.6,0-0.9-0.5-0.9-1c0-0.7,0.3-1.3,1.1-1.3
		C111.4,33.1,111.6,33.5,111.6,34.2z"/>
	<path class="st7" d="M109.3,33.7c-0.1,0.7-0.3,1.2-1.1,1.2c-0.7,0-1-0.4-1-1.1c0-0.7,0.4-1.1,1.1-1.1
		C109,32.6,109.2,33.1,109.3,33.7z"/>
	<path class="st1" d="M100.4,30.2c0.6,0,1,0.4,1,1c0,0.7-0.4,1.2-1.1,1.2c-0.6,0-1-0.5-0.9-1.1C99.4,30.7,99.7,30.3,100.4,30.2z"/>
	<path class="st5" d="M109.8,30.8c0,0.7-0.3,1.2-1,1.3c-0.7,0-1-0.5-1-1.1c0-0.6,0.4-1.1,1-1.1C109.6,29.8,109.9,30.2,109.8,30.8z"
		/>
	<path class="st12" d="M97.5,40.6c-0.6-0.1-1.1-0.4-1.1-1.1c0-0.6,0.4-1,1-1c0.7,0,1.1,0.4,1.1,1.1C98.5,40.2,98.1,40.5,97.5,40.6z"
		/>
	<path class="st7" d="M113.2,37.6c-0.3,0-0.2,0.3-0.3,0.4c-0.3,0.4-0.7,0.8-1.2,0.6c-0.6-0.2-0.5-0.8-0.3-1.2
		c0.2-0.6,0.5-1.1,1.2-1.1c0.6,0.1,0.6,0.6,0.6,1.1C113.1,37.5,113.2,37.6,113.2,37.6L113.2,37.6z"/>
	<path class="st12" d="M96.9,35.9c-0.1,0.7-0.4,1.1-1,1.1c-0.7,0-1.1-0.5-1-1.2c0-0.6,0.4-1,1-0.9C96.6,34.9,96.8,35.3,96.9,35.9z"
		/>
	<path class="st1" d="M101.6,44.4c-0.6,0-1.1-0.2-1.1-0.9c0-0.7,0.5-1,1.1-1c0.6,0,1.1,0.2,1.1,0.9C102.7,44,102.2,44.3,101.6,44.4z
		"/>
	<path class="st12" d="M95.8,33.1c0.1-0.6,0.3-1.1,1.1-1c0.6,0,1,0.5,1,1.1c0,0.6-0.3,1.1-1,1.1C96.1,34.3,95.8,33.8,95.8,33.1z"/>
	<path class="st1" d="M100,39.4c0.7,0,1.1,0.3,1.2,1c0,0.7-0.4,1-1.1,1c-0.7,0-1.1-0.3-1.1-1C99,39.8,99.4,39.5,100,39.4z"/>
	<path class="st0" d="M104.8,29.4c-0.1,0.7-0.4,1.1-1.1,1.1c-0.7,0-0.9-0.5-0.9-1.1c0-0.6,0.4-1.1,1.1-1.1
		C104.5,28.4,104.8,28.9,104.8,29.4z"/>
	<path class="st0" d="M104.3,43.2c0.6,0,1,0.3,1,0.9c-0.1,0.7-0.6,1-1.2,1c-0.5,0-1-0.2-1-0.9C103.1,43.5,103.6,43.2,104.3,43.2z"/>
	<path class="st12" d="M97.8,29.2c0.7,0.1,1,0.4,1,1c0,0.6-0.3,1.1-0.9,1.1c-0.6,0-1-0.4-1-1C96.8,29.7,97.2,29.3,97.8,29.2z"/>
	<path class="st5" d="M107.3,30.1c-0.1,0.7-0.3,1.1-1,1.1c-0.7,0-0.9-0.5-0.9-1.1c0-0.6,0.3-1.1,1-1.1
		C107,29.1,107.3,29.6,107.3,30.1z"/>
	<path class="st5" d="M108.8,42.6c-0.3,0.2-0.5,0.5-0.8,0.7c-0.5,0.2-1.1,0.4-1.3-0.3c-0.2-0.5,0.3-1.3,1-1.5
		c0.6-0.1,1.1-0.1,1.2,0.7C108.8,42.3,108.8,42.5,108.8,42.6L108.8,42.6z"/>
	<path class="st12" d="M95.2,32c-0.1,0.6-0.3,1.1-1,1.1c-0.7,0-0.9-0.5-0.9-1.1c0-0.6,0.3-1.1,1-1.1C94.9,31,95.1,31.5,95.2,32z"/>
	<path class="st7" d="M112.2,40.4c-0.3,0.3-0.6,0.5-0.9,0.8c-0.3,0.2-0.6,0.3-0.9,0.1c-0.4-0.3-0.3-0.6-0.2-1
		c0.1-0.4,0.4-0.7,0.7-0.9c0.7-0.4,1-0.3,1.1,0.5C112.1,40.1,112.1,40.3,112.2,40.4L112.2,40.4z"/>
	<path class="st12" d="M94,38.4c0-0.6,0.4-0.9,0.9-0.9c0.6,0.1,1,0.5,1,1.1c0,0.6-0.4,1-1,0.9C94.4,39.5,94,39.1,94,38.4z"/>
	<path class="st1" d="M99.2,43.6c-0.6-0.1-1.1-0.3-1.1-1c0-0.6,0.5-0.9,1.1-0.9c0.6,0,1.1,0.3,1.1,0.9
		C100.2,43.4,99.8,43.6,99.2,43.6z"/>
	<path class="st5" d="M108.8,42.6c0.4,0,0.5-0.4,0.7-0.6c0.4-0.3,0.8-0.4,1.2-0.2c0.5,0.2,0.2,0.6,0.3,1l0,0
		c-0.1,0.1-0.2,0.2-0.3,0.3c-0.4,0.4-0.8,0.8-1.4,0.6C108.6,43.6,109.1,43,108.8,42.6C108.8,42.6,108.8,42.6,108.8,42.6z"/>
	<path class="st1" d="M102.3,28.5c0,0.6-0.3,1.1-1,1.1c-0.6,0-0.9-0.4-0.9-0.9c0-0.6,0.3-1.1,1-1.1
		C101.9,27.5,102.2,27.9,102.3,28.5z"/>
	<path class="st6" d="M94.3,34.7c0,0.6-0.2,1.1-0.8,1.1c-0.7,0-1-0.4-1-1.1c0-0.6,0.3-1.1,0.9-1C93.9,33.7,94.2,34.2,94.3,34.7z"/>
	<path class="st12" d="M98.9,26.5c0.6,0.1,0.9,0.5,0.9,1c0,0.6-0.3,1-0.9,1c-0.6,0-0.9-0.4-0.9-0.9C97.9,27,98.2,26.6,98.9,26.5z"/>
	<path class="st2" d="M113.2,37.7c0.5-0.1,0.4-0.7,0.8-0.9c0.2-0.1,0.5-0.3,0.7-0.2c0.3,0.1,0.3,0.4,0.3,0.7c0,0.4-0.1,0.7-0.3,1
		c-0.2,0.3-0.5,0.7-1,0.6c-0.5-0.1-0.5-0.6-0.4-1C113.3,37.8,113.2,37.7,113.2,37.7C113.2,37.6,113.2,37.7,113.2,37.7z"/>
	<path class="st12" d="M96.8,42.8c-0.6-0.1-1.1-0.4-1.1-1.1c0-0.6,0.4-0.9,1-0.9c0.6,0,1,0.3,1,1C97.7,42.5,97.3,42.7,96.8,42.8z"/>
	<path class="st12" d="M94.4,29.1c0-0.5,0.3-1,0.9-1c0.6,0,0.9,0.4,0.9,1c0,0.6-0.4,1-0.9,1C94.8,30.2,94.4,29.8,94.4,29.1z"/>
	<path class="st7" d="M112.2,40.5c0.3-0.1,0.3-0.3,0.4-0.5c0.3-0.3,0.6-0.7,1.1-0.6c0.5,0.1,0.3,0.6,0.5,0.9l0,0
		c-0.3,0-0.3,0.4-0.4,0.6c-0.3,0.4-0.6,0.8-1.2,0.7C112,41.4,112.3,40.8,112.2,40.5C112.2,40.4,112.2,40.5,112.2,40.5z"/>
	<path class="st13" d="M91,30.8c0-0.6,0.3-1,0.9-1c0.6,0,0.9,0.5,0.9,1.1c0,0.6-0.3,1-1,1C91.2,31.8,91.1,31.3,91,30.8z"/>
	<path class="st0" d="M103.8,26.5c0-0.5,0.3-1,0.9-1c0.6,0,0.9,0.4,0.9,1c0,0.5-0.3,1-0.9,1C104,27.6,103.8,27.2,103.8,26.5z"/>
	<path class="st13" d="M91.9,33.7c0,0.5-0.2,0.9-0.8,0.9c-0.7,0-0.9-0.6-0.9-1.2c0-0.5,0.3-1,0.8-0.9C91.6,32.6,91.8,33.1,91.9,33.7
		z"/>
	<path class="st11" d="M114.2,40.3c0.1-0.1,0.2-0.1,0.3-0.2c0.8-1,1-1,1.5,0.1c0,0.4-0.5,0.8,0,1.2c-0.6,0.3-0.3-0.4-0.5-0.5
		c-0.4,0.3-0.6,1-1.2,0.7C113.7,41.2,114.3,40.7,114.2,40.3C114.2,40.2,114.2,40.3,114.2,40.3z"/>
	<path class="st12" d="M95.3,40.9c0,0.5-0.3,0.9-0.8,0.9c-0.7,0-1.1-0.4-1.1-1.1c0-0.5,0.4-0.8,0.8-0.8
		C94.8,39.9,95.2,40.3,95.3,40.9z"/>
	<path class="st6" d="M91.7,37.4c0-0.7,0.2-1.1,0.8-1c0.7,0,1,0.5,1,1.1c0,0.5-0.3,0.8-0.8,0.8C92,38.4,91.7,37.9,91.7,37.4z"/>
	<path class="st5" d="M107.9,27.3c-0.1,0.6-0.3,1-0.9,1c-0.7,0-0.9-0.5-0.9-1c0-0.6,0.2-1.1,0.9-1C107.7,26.3,107.8,26.8,107.9,27.3
		z"/>
	<path class="st12" d="M99.3,44.9c-0.1,0.5-0.6,0.8-1.1,0.7c-0.5-0.1-1-0.3-0.9-1c0.1-0.5,0.6-0.8,1-0.7
		C98.8,43.9,99.3,44.1,99.3,44.9z"/>
	<path class="st1" d="M100.6,44.6c0.6,0,1,0.2,1,0.8c0,0.7-0.6,0.9-1.2,0.9c-0.5,0-1-0.2-0.9-0.8C99.5,44.8,100.1,44.6,100.6,44.6z"
		/>
	<path class="st12" d="M95.6,26.5c0.1-0.5,0.3-1,1-1c0.5,0,0.8,0.4,0.8,0.9c0,0.6-0.3,1.1-0.9,1.1C95.9,27.5,95.6,27.1,95.6,26.5z"
		/>
	<path class="st6" d="M93.9,27.9c0,0.7-0.3,1.1-0.9,1.2c-0.5,0-0.8-0.4-0.8-0.8c0-0.6,0.2-1.1,0.8-1.1C93.6,27,93.8,27.4,93.9,27.9z
		"/>
	<path class="st13" d="M89.6,32.4c-0.1,0.5-0.3,1-0.9,1c-0.6-0.1-0.8-0.6-0.8-1.1c0.1-0.5,0.3-1,0.9-1C89.5,31.4,89.6,32,89.6,32.4z
		"/>
	<path class="st12" d="M96.9,43.9c-0.1,0.6-0.4,0.8-0.9,0.8c-0.6,0-1-0.4-1-1c0-0.5,0.4-0.8,0.9-0.7C96.4,43.1,96.9,43.4,96.9,43.9z
		"/>
	<path class="st13" d="M92.9,40c-0.1,0.5-0.3,0.8-0.8,0.8c-0.6-0.1-1-0.5-1-1.2c0-0.4,0.2-0.8,0.7-0.7C92.5,38.9,92.8,39.4,92.9,40z
		"/>
	<path class="st1" d="M100.8,24.7c-0.1,0.5-0.3,1-0.9,1c-0.6,0-0.9-0.4-0.8-0.9c0-0.6,0.3-1,1-1C100.6,23.9,100.8,24.3,100.8,24.7z"
		/>
	<path class="st0" d="M102.3,24.7c0.6,0.1,0.9,0.5,0.9,1c0,0.6-0.3,1-1,1c-0.6,0-0.8-0.5-0.7-1C101.4,25.1,101.8,24.8,102.3,24.7z"
		/>
	<path class="st13" d="M89.4,36.2c0-0.5,0.2-0.9,0.8-0.9c0.6,0.1,0.9,0.5,0.9,1.1c0,0.5-0.2,0.9-0.8,0.8
		C89.7,37.2,89.5,36.7,89.4,36.2z"/>
	<path class="st13" d="M90.5,29.5c0,0.6-0.2,1-0.8,1.1c-0.5,0-0.8-0.5-0.8-1c0-0.5,0.3-1,0.8-1C90.3,28.6,90.4,29,90.5,29.5z"/>
	<path class="st7" d="M115.2,38.2c0-0.7,0.7-1.7,1.1-1.7c0.4,0,0.5,0.3,0.5,0.7c0,0.7-0.7,1.7-1.1,1.7
		C115.2,38.8,115.2,38.5,115.2,38.2z"/>
	<path class="st7" d="M111,42.8c0.2-0.2,0.4-0.3,0.6-0.5c0.3-0.3,0.7-0.5,1.1-0.3c0.4,0.3,0.2,0.7,0,1c0,0,0,0,0,0
		c-0.1,0.1-0.1,0.2-0.2,0.3c-0.3,0.3-0.7,0.7-1.2,0.5C110.7,43.7,111.1,43.2,111,42.8C111,42.8,111,42.8,111,42.8z"/>
	<path class="st3" d="M116.1,41.2c-0.5-0.4-0.1-0.8,0-1.2c0.2-0.4,0.4-0.7,0.8-0.9c0.1,0,0.2,0,0.2,0c0,0,0,0,0,0
		c0.1,0.1-0.2,0.4,0.2,0.4c0.5,0,0.4-0.9,1-0.7c-0.2,0.5-0.4,1-0.6,1.5c-0.1,0.2-0.2,0.4-0.4,0.4c-0.2-0.1-0.2-0.3-0.1-0.5
		c0-0.1,0-0.3-0.2-0.3c-0.2,0-0.2,0.2-0.2,0.3C116.6,40.8,116.5,41.1,116.1,41.2z"/>
	<path class="st5" d="M106.2,23.8c-0.1,0.5-0.3,1-0.8,1c-0.6,0-0.8-0.4-0.8-0.9c0-0.5,0.2-0.9,0.8-1C106,22.9,106.1,23.4,106.2,23.8
		z"/>
	<path class="st5" d="M106.8,24.5c0-0.5,0.3-0.9,0.8-0.9c0.6,0,0.8,0.5,0.8,1c0,0.5-0.3,0.9-0.8,0.9C107,25.5,106.8,25,106.8,24.5z"
		/>
	<path class="st6" d="M93.4,25.3c0.1-0.5,0.3-0.9,0.9-0.9c0.5,0,0.7,0.4,0.7,0.9c-0.1,0.5-0.3,1-0.9,1
		C93.6,26.3,93.4,25.9,93.4,25.3z"/>
	<path class="st12" d="M98.5,23.8c0,0.5-0.3,0.9-0.9,0.9c-0.5,0-0.8-0.3-0.8-0.8c0-0.6,0.3-0.9,0.9-1C98.3,22.9,98.5,23.2,98.5,23.8
		z"/>
	<path class="st1" d="M103.9,23c-0.1,0.5-0.2,0.9-0.8,1c-0.6,0.1-0.8-0.3-0.8-0.8c0-0.5,0.2-1,0.9-1C103.7,22.1,103.8,22.6,103.9,23
		z"/>
	<path class="st12" d="M94.6,43.1c-0.1,0.5-0.4,0.7-0.9,0.7c-0.6-0.1-1-0.4-0.9-1.1c0-0.4,0.3-0.7,0.7-0.6
		C94.2,42.2,94.5,42.6,94.6,43.1z"/>
	<path class="st13" d="M90.9,25.9c0.6,0,0.7,0.4,0.7,0.9c0,0.5-0.3,1-0.9,1c-0.6,0-0.7-0.4-0.7-0.9C90,26.3,90.3,26,90.9,25.9z"/>
	<path class="st11" d="M112.6,43.1C112.6,43.1,112.6,43.1,112.6,43.1c0.5-0.1,0.6-0.6,0.9-0.8c0.7-0.5,0.9-0.5,1.1,0.4
		c0,0.2,0,0.3-0.2,0.4c-0.4-0.2-0.4,0.2-0.5,0.3C113.2,44,113,44,112.6,43.1z"/>
	<path class="st8" d="M87.6,29.3c-0.5-0.1-0.7-0.5-0.7-1c0-0.4,0.2-0.9,0.8-0.9c0.5,0,0.7,0.5,0.7,0.9
		C88.4,28.8,88.2,29.2,87.6,29.3z"/>
	<path class="st13" d="M92.9,24.2c-0.1,0.5-0.4,0.9-0.9,0.9c-0.4,0-0.6-0.4-0.6-0.8c0.1-0.5,0.3-1,0.9-1
		C92.7,23.3,92.9,23.7,92.9,24.2z"/>
	<path class="st10" d="M101,23.1c-0.5-0.1-0.8-0.3-0.8-0.8c0-0.5,0.3-0.9,0.8-1c0.5-0.1,0.8,0.3,0.8,0.8
		C101.8,22.7,101.4,23,101,23.1z"/>
	<path class="st13" d="M89.6,25.4c-0.1,0.5-0.3,1-0.9,1.1c-0.4,0-0.6-0.4-0.6-0.8c0-0.5,0.2-1,0.9-1C89.5,24.7,89.5,25.1,89.6,25.4z
		"/>
	<path class="st12" d="M99,20.4c0.4,0,0.6,0.2,0.6,0.7c0,0.5-0.3,0.9-0.8,1c-0.4,0.1-0.7-0.2-0.7-0.6C98.2,20.9,98.4,20.6,99,20.4z"
		/>
	<path class="st4" d="M95.6,21.9c0.5,0,0.8,0.3,0.8,0.7c0,0.5-0.3,1-0.9,1c-0.4,0-0.7-0.2-0.7-0.7C94.8,22.3,95.1,22,95.6,21.9z"/>
	<path class="st13" d="M94,44.9c0,0.4-0.2,0.7-0.6,0.7c-0.6,0-0.9-0.3-1-0.9c0-0.4,0.1-0.7,0.5-0.7C93.6,44,93.9,44.4,94,44.9z"/>
	<path class="st9" d="M90.1,23.8c-0.4,0-0.6-0.2-0.6-0.6c0-0.5,0.2-1,0.8-1c0.4-0.1,0.5,0.2,0.6,0.5C90.9,23.3,90.7,23.6,90.1,23.8z
		"/>
	<path class="st6" d="M93.5,22.4c-0.5,0-0.7-0.2-0.7-0.6c0-0.6,0.3-0.9,0.9-1c0.4-0.1,0.6,0.3,0.5,0.7C94.3,22,94,22.3,93.5,22.4z"
		/>
	<path class="st12" d="M96.9,21.1c-0.4-0.1-0.6-0.3-0.6-0.7c0-0.5,0.3-0.9,0.8-0.9c0.4,0,0.6,0.2,0.6,0.6
		C97.7,20.7,97.3,21,96.9,21.1z"/>
	<path class="st13" d="M91.9,19.7c0.4,0,0.6,0.3,0.5,0.6c-0.1,0.5-0.4,0.9-0.9,0.9c-0.3,0-0.6-0.3-0.5-0.6
		C91.2,20.2,91.4,19.8,91.9,19.7z"/>
	<path class="st8" d="M4.9,24.1c0.5-0.1,0.6,0.1,0.6,0.6c0,0.5-0.2,0.6-0.6,0.6c-0.5,0-0.7-0.1-0.7-0.7C4.2,24.1,4.5,24.1,4.9,24.1z
		"/>
	<path class="st10" d="M58.7,36.8c0.1,0.4-0.1,0.6-0.6,0.7c-0.5,0-0.7-0.2-0.7-0.7c0-0.4,0.1-0.7,0.6-0.7
		C58.6,36.1,58.8,36.3,58.7,36.8z"/>
	<path class="st10" d="M50.1,23.5c0.5-0.1,0.6,0.1,0.7,0.6c0,0.6-0.3,0.6-0.7,0.6c-0.5,0-0.6-0.2-0.6-0.7
		C49.4,23.6,49.6,23.5,50.1,23.5z"/>
	<path class="st8" d="M7.6,45c-0.1-0.6,0.3-0.6,0.7-0.6c0.5,0,0.6,0.2,0.6,0.6c0,0.6-0.4,0.6-0.8,0.6C7.6,45.6,7.6,45.3,7.6,45z"/>
	<path class="st8" d="M86.5,24.2c0-0.3,0.2-0.7,0.8-0.7c0.4,0,0.5,0.3,0.4,0.6c0,0.5-0.2,0.9-0.7,1C86.5,25.1,86.5,24.8,86.5,24.2z"
		/>
	<path class="st12" d="M95.8,19.1c-0.1,0.4-0.3,0.9-0.9,0.9c-0.4,0-0.5-0.2-0.5-0.6c0.1-0.5,0.3-0.8,0.8-0.8
		C95.6,18.5,95.8,18.7,95.8,19.1z"/>
	<path class="st13" d="M90.8,19.1C90.7,19.6,90.5,20,90,20c-0.3,0-0.5-0.2-0.5-0.5c0.1-0.5,0.4-0.8,0.8-0.9
		C90.6,18.6,90.8,18.8,90.8,19.1z"/>
	<path class="st13" d="M89.1,21.6c-0.1,0.5-0.3,0.9-0.8,0.9c-0.3,0-0.4-0.3-0.4-0.5c0-0.5,0.2-0.9,0.8-1
		C89,20.9,89.1,21.3,89.1,21.6z"/>
	<path class="st12" d="M99.1,17.8c0,0.5-0.3,0.8-0.8,0.9c-0.3,0.1-0.6-0.2-0.5-0.5c0-0.5,0.3-0.8,0.8-0.8
		C98.9,17.3,99.1,17.5,99.1,17.8z"/>
	<path class="st8" d="M85.4,23.9C85,23.7,85,23.4,85,23.1c0.1-0.4,0.2-0.7,0.6-0.7c0.5,0,0.5,0.4,0.4,0.7
		C86.1,23.5,85.9,23.8,85.4,23.9z"/>
	<path class="st13" d="M93.3,18.9c-0.4,0-0.6-0.2-0.5-0.5c0.1-0.5,0.3-0.8,0.8-0.8c0.3,0,0.5,0.2,0.4,0.5
		C94,18.6,93.7,18.8,93.3,18.9z"/>
	<path class="st3" d="M74.1,33.3c0.1,0.5-0.2,0.5-0.6,0.6c-0.5,0-0.6-0.3-0.6-0.7c0-0.5,0.3-0.5,0.7-0.6
		C74.1,32.6,74.2,32.9,74.1,33.3z"/>
	<path class="st5" d="M52.1,23.5c0.5-0.1,0.6,0.2,0.6,0.6c0,0.5-0.2,0.6-0.6,0.6c-0.5,0-0.6-0.2-0.6-0.6
		C51.5,23.7,51.6,23.5,52.1,23.5z"/>
	<path class="st8" d="M3.4,24.7c0.1,0.5-0.2,0.6-0.6,0.6c-0.5,0-0.6-0.2-0.6-0.7c0-0.5,0.3-0.6,0.7-0.6C3.4,24.1,3.5,24.3,3.4,24.7z
		"/>
	<path class="st10" d="M115.8,42.2c0.5-0.2,0.7-1.1,1.6-0.5c-0.6,0.5-1,1.3-2,1.2C115.5,42.6,115.6,42.4,115.8,42.2z"/>
	<path class="st7" d="M61.7,33.2c0.1,0.4,0,0.7-0.6,0.7c-0.4,0-0.7,0-0.7-0.6c0-0.4,0-0.7,0.6-0.7C61.5,32.7,61.8,32.7,61.7,33.2z"
		/>
	<path class="st9" d="M3.4,36.4c-0.5,0.1-0.6-0.2-0.6-0.6c0-0.5,0.2-0.6,0.6-0.6C4,35.2,4,35.5,4,35.9C4,36.4,3.8,36.5,3.4,36.4z"/>
	<path class="st8" d="M6,35.8c0.1,0.5-0.1,0.7-0.6,0.7c-0.4,0-0.7-0.1-0.7-0.6c0-0.4,0.1-0.7,0.6-0.7C5.8,35.2,6.2,35.3,6,35.8z"/>
	<path class="st9" d="M10.3,45.6c-0.5,0.1-0.6-0.2-0.6-0.6c0-0.5,0.2-0.6,0.6-0.6c0.5,0,0.6,0.2,0.6,0.6
		C11,45.5,10.8,45.7,10.3,45.6z"/>
	<path class="st12" d="M97.4,17c-0.1,0.4-0.4,0.7-0.9,0.8c-0.3,0-0.5-0.2-0.4-0.5c0.1-0.5,0.4-0.7,0.9-0.8
		C97.3,16.4,97.5,16.6,97.4,17z"/>
	<path class="st8" d="M87.6,20.4c-0.1,0.4-0.3,0.8-0.8,0.9c-0.3,0.1-0.4-0.3-0.4-0.5c0.1-0.4,0.3-0.8,0.8-0.9
		C87.5,19.8,87.6,20.1,87.6,20.4z"/>
	<path class="st13" d="M88.5,18.8c-0.3,0-0.4-0.2-0.3-0.5c0.1-0.4,0.3-0.7,0.8-0.8c0.3,0,0.4,0.2,0.3,0.5
		C89.2,18.5,89,18.8,88.5,18.8z"/>
	<path class="st13" d="M91.3,17.4c0.2-0.5,0.4-0.8,0.9-0.8c0.2,0,0.4,0.1,0.4,0.3c-0.1,0.4-0.3,0.8-0.8,0.8
		C91.5,17.8,91.3,17.6,91.3,17.4z"/>
	<path class="st10" d="M100.1,19.8c-0.4,0-0.5-0.3-0.4-0.5c0.1-0.4,0.3-0.7,0.7-0.7c0.3,0,0.5,0.2,0.4,0.5
		C100.7,19.5,100.5,19.8,100.1,19.8z"/>
	<path class="st7" d="M115.8,42.2c-0.2,0.1-0.3,0.4-0.4,0.6c-0.3,0.2-0.5,1-1,0.2c0.1-0.1,0.2-0.2,0.2-0.4c0.1-0.4,0.4-0.6,0.7-0.8
		C115.7,41.7,115.9,41.8,115.8,42.2z"/>
	<path class="st12" d="M95.9,16c-0.1,0.4-0.4,0.7-0.8,0.8c-0.2,0.1-0.5-0.1-0.5-0.4c0-0.4,0.3-0.7,0.8-0.8
		C95.7,15.5,95.9,15.6,95.9,16z"/>
	<path class="st8" d="M86,18.7c0.3,0,0.3,0.2,0.3,0.4c-0.1,0.4-0.2,0.7-0.6,0.8c-0.3,0.1-0.4-0.2-0.3-0.4
		C85.4,19.2,85.6,18.8,86,18.7z"/>
	<path class="st13" d="M94.5,14.9c-0.1,0.5-0.4,0.7-0.8,0.8c-0.2,0.1-0.4-0.1-0.4-0.2c0-0.5,0.4-0.7,0.8-0.8
		C94.3,14.6,94.5,14.7,94.5,14.9z"/>
	<path class="st13" d="M91.2,16c-0.1,0.4-0.4,0.6-0.8,0.7c-0.2,0-0.3-0.1-0.3-0.3c0.1-0.4,0.3-0.7,0.8-0.8
		C91.2,15.6,91.3,15.7,91.2,16z"/>
	<path class="st13" d="M69.6,37.4c-0.5,0.1-0.7-0.1-0.7-0.6c0-0.5,0.2-0.7,0.7-0.7c0.4,0,0.7,0.1,0.7,0.6
		C70.3,37.1,70.2,37.5,69.6,37.4z M69.6,37.2c0.3,0,0.5-0.1,0.5-0.4c0-0.4-0.1-0.6-0.5-0.6c-0.3,0-0.5,0.1-0.5,0.5
		C69.1,37,69.2,37.3,69.6,37.2z"/>
	<path class="st13" d="M87.9,16.5c0.2,0,0.3,0.1,0.3,0.2c0,0.4-0.3,0.7-0.7,0.9c-0.2,0.1-0.4-0.1-0.3-0.2
		C87.2,17,87.4,16.7,87.9,16.5z"/>
	<path class="st11" d="M117.6,40.4c0.2-0.5,0.4-1,0.6-1.5c0.4,0,0.8-0.1,0.5,0.5C118.4,39.8,118.4,40.5,117.6,40.4z"/>
	<path class="st13" d="M93,13.8c0.2,0,0.4,0,0.4,0.2c-0.1,0.4-0.4,0.6-0.7,0.7c-0.2,0.1-0.3-0.1-0.3-0.3C92.3,14,92.6,13.9,93,13.8z
		"/>
	<path class="st8" d="M84.9,18.8c-0.2,0-0.3-0.1-0.3-0.2c0-0.4,0.2-0.7,0.5-0.9c0.2-0.1,0.3,0,0.3,0.2
		C85.4,18.3,85.2,18.6,84.9,18.8z"/>
	<path class="st2" d="M76.9,30.3c-0.9,0.3-1.7,0.3-2.6,0C75.2,30.3,76,30.3,76.9,30.3z"/>
	<path class="st11" d="M116.8,40.4c0-0.1,0-0.3,0.2-0.3c0.2,0,0.2,0.1,0.2,0.3c-0.1,0.2-0.1,0.4,0.1,0.5
		C116.7,41.1,117.1,40.5,116.8,40.4z"/>
	<path class="st4" d="M33.7,29.5c0,0.3,0.1,0.6-0.2,0.8C33.6,30,33.7,29.7,33.7,29.5z"/>
	<path class="st11" d="M117.2,39.6c-0.4,0-0.1-0.3-0.2-0.4C117.2,39.3,117.2,39.5,117.2,39.6z"/>
	<path class="st11" d="M117,39.2c-0.1,0-0.2,0-0.2,0C116.9,39.1,116.9,39,117,39.2z"/>
	<path class="st14" d="M68.5,29.3c0,0.5,0.2,1.1-0.7,1c-0.9-0.1-1.5-0.5-1.5-1.3c0-0.7,0.4-1.2,1.1-1.3
		C68.2,27.7,68.5,28.3,68.5,29.3z"/>
	<path class="st14" d="M51.5,27.6c0,1.4-0.4,2.1-1.3,2.1c-0.7,0-1.1-0.6-1.1-1.6c0-1.1,0.6-1.5,1.7-1.6
		C51.8,26.5,51.4,27.2,51.5,27.6z"/>
	<path class="st2" d="M69.6,37.2c-0.4,0-0.5-0.2-0.5-0.5c0-0.3,0.2-0.5,0.5-0.5c0.4,0,0.5,0.2,0.5,0.6
		C70.1,37.2,69.9,37.3,69.6,37.2z"/>
</g>
</svg>
