<?xml version="1.0" encoding="utf-8"?>
<!-- Generator: Adobe Illustrator 25.4.1, SVG Export Plug-In . SVG Version: 6.00 Build 0)  -->
<svg version="1.1" id="Layer_1" xmlns="http://www.w3.org/2000/svg" xmlns:xlink="http://www.w3.org/1999/xlink" x="0px" y="0px"
	 viewBox="0 0 120 60" style="enable-background:new 0 0 120 60;" xml:space="preserve">
<style type="text/css">
	.st0{fill:#00524C;}
	.st1{fill:url(#SVGID_00000134934862784058650060000012771295241623389355_);}
	.st2{fill:#FFFFFF;}
</style>
<g>
	<g>
		<path class="st0" d="M77.8,49.7l-0.4,0.1l-1.6,1.6c5.1-1.1,12.4-1.8,20.6-1.8s15.5,0.7,20.6,1.8l1.7-1.7
			c-5.2-1.1-12.6-1.7-20.3-1.7C90.5,47.9,83,48.6,77.8,49.7"/>
		<path class="st0" d="M77.4,49.8l0.1-0.4c1.1-5.2,1.8-12.7,1.8-20.5c0-7.7-0.6-15.1-1.7-20.3l-1.7,1.7c1.1,5.1,1.8,12.4,1.8,20.6
			s-0.7,15.5-1.8,20.6L77.4,49.8z"/>
	</g>
	<g>
		<g>
			
				<radialGradient id="SVGID_00000160181293825912274990000005782385502338436253_" cx="98.2977" cy="-910.4045" r="20.2231" gradientTransform="matrix(1 0 0 1 0 939.2756)" gradientUnits="userSpaceOnUse">
				<stop  offset="0" style="stop-color:#7CA7AD"/>
				<stop  offset="0.1198" style="stop-color:#5F9396"/>
				<stop  offset="0.2874" style="stop-color:#3D7C7C"/>
				<stop  offset="0.4585" style="stop-color:#226967"/>
				<stop  offset="0.6324" style="stop-color:#0F5C58"/>
				<stop  offset="0.8106" style="stop-color:#04544F"/>
				<stop  offset="1" style="stop-color:#00524C"/>
			</radialGradient>
			<path id="SVGID_1_" style="fill:url(#SVGID_00000160181293825912274990000005782385502338436253_);" d="M98.3,10.3
				c-7.6,0-15-0.6-20.2-1.7c1.1,5.3,1.7,12.6,1.7,20.2s-0.6,15-1.7,20.2c5.3-1.1,12.6-1.7,20.2-1.7c7.6,0,15,0.6,20.2,1.7
				c-1.1-5.3-1.7-12.6-1.7-20.2c0-7.6,0.6-15,1.7-20.2C113.3,9.7,105.9,10.3,98.3,10.3"/>
		</g>
	</g>
	<path class="st2" d="M102.5,23.7c0-0.3-0.3-0.6-0.5-0.8l-0.1-0.1l0.1-0.1c0.1,0,0.1-0.1,0.1-0.1c0-0.2-0.4-0.5-0.7-0.7l-0.1-0.1
		l0.1-0.1c0,0,0,0,0,0c-0.1-0.1-0.1-0.2-0.2-0.3c-0.1,0-0.2,0.1-0.3,0.1c-0.2,0-0.5-0.1-0.8-0.3l0,0c0,0-0.8-0.9-1.4-1.4
		c0.3,0.6,0.6,1.4,0.6,1.5c0.4,0.7,0.7,0.6,0.7,0.6l0.1,0l0,0.1c0.1,0.7,0.4,0.8,0.5,0.8h0.1v0.1c0,0.7,0.5,0.9,0.5,0.9l0,0l0,0.1
		c0,0.6,0.2,1.1,0.2,1.1l0,0v0c0,0.2,0.3,0.6,0.5,0.8c0.1,0,0.1-0.1,0.2-0.1c0.1-0.2,0.1-0.6,0.1-0.7l0-0.1l0,0
		c0.4-0.4,0.2-0.8,0.2-0.8l0-0.1l0.1,0C102.5,23.9,102.5,23.8,102.5,23.7"/>
	<path class="st2" d="M104.8,23.3L104.8,23.3c0.2-0.8-0.3-1.2-0.3-1.2l-0.1,0l0-0.1c0-0.1,0-0.3,0-0.4c-0.2-0.4-0.8-0.6-0.8-0.6
		l-0.1,0l0-0.1c0.1-0.1,0.1-0.2,0-0.3c-0.1-0.3-0.8-0.3-1.1-0.3h-0.1l0-0.1c0,0,0-0.1,0-0.1c0,0,0,0,0,0c-0.2,0-0.5-0.1-0.7-0.2
		c-0.1,0.1-0.3,0.3-0.8,0.3c-0.1,0-0.2,0-0.3,0h0c0,0-1.2-0.5-1.9-0.5c0,0-0.1,0-0.1,0c0,0,0,0,0,0c0,0,0.1,0.1,0.2,0.1
		c0.1,0.1,0.2,0.1,0.2,0.2c0.6,0.5,1.3,1.2,1.3,1.3c0.3,0.2,0.5,0.3,0.7,0.3c0.2,0,0.3-0.1,0.3-0.1l0,0l0-0.1l0.1,0.1
		c0.1,0.2,0.2,0.3,0.3,0.4c0,0,0.1,0.1,0.1,0.1c0.2,0.2,0.3,0.2,0.4,0.2c0.1,0,0.1,0,0.1,0l0.1-0.1l0,0.1c0.3,0.7,0.7,0.8,0.9,0.8
		c0,0,0,0,0,0l0.1,0l0,0.1c0.4,0.7,0.8,1.2,0.8,1.2l0,0v0c0.1,0.3,0.6,0.6,0.9,0.7C105.4,24.2,104.9,23.4,104.8,23.3L104.8,23.3z"/>
	<path class="st2" d="M106.3,20.3c-0.1-0.4-0.6-0.6-0.6-0.6l0,0v-0.1c0-0.7-0.5-0.8-0.5-0.8l-0.1,0l0-0.1c0-0.1,0-0.2-0.1-0.2
		c-0.1-0.1-0.3-0.2-0.6-0.2c-0.2,0-0.4,0-0.4,0l-0.1,0l0-0.1c0-0.1,0-0.1,0-0.2c0,0-0.1-0.1-0.2-0.1c-0.4,0-0.9,0.2-0.9,0.2
		l-0.1,0.1l0-0.1c0-0.1,0-0.1,0-0.2c0-0.1-0.2-0.1-0.3-0.1c-0.3,0-0.7,0.2-0.8,0.2l0,0c-0.1,0.1-0.3,0.1-0.6,0.1
		c0,0.2-0.1,0.5-0.7,0.8h0c0,0-0.3,0.1-0.7,0.2c-0.2,0.1-0.5,0.1-0.7,0.2h0c0.1,0,0.1,0,0.2,0c0.7,0.1,1.5,0.5,1.6,0.5
		c0.1,0,0.2,0,0.3,0c0.6,0,0.7-0.3,0.7-0.3l0-0.1l0.1,0.1c0.2,0.2,0.5,0.2,0.6,0.2h0c0,0,0.1,0,0.1,0c0,0,0.1,0,0.1,0
		c0.1,0,0.1-0.1,0.1-0.1l0.1-0.1l0.1,0.1c0.2,0.2,0.5,0.3,0.7,0.3c0.2,0,0.4-0.1,0.4-0.1l0.1,0l0,0c0.5,0.4,1.1,0.6,1.1,0.6h0l0,0
		c0.1,0.1,0.3,0.2,0.7,0.2c0.2,0,0.3,0,0.4,0C106.3,20.5,106.3,20.4,106.3,20.3"/>
	<path class="st2" d="M100.2,18.7c0.6-0.3,0.6-0.6,0.6-0.7v0l0-0.1v0h0.1h0c0.1,0,0.2,0,0.3,0c0,0,0,0,0.1,0c0.1,0,0.1,0,0.2-0.1
		c0,0,0.1,0,0.1-0.1c0.1-0.1,0.1-0.2,0.1-0.2l0-0.1l0.1,0c0.1,0,0.1,0,0.2,0c0.5,0,0.7-0.4,0.7-0.4l0,0l0.1,0c0.1,0,0.2,0,0.3,0
		c0.4,0,0.7-0.1,0.7-0.1h0h0c0,0,0,0,0.1,0c0.2,0,0.6-0.3,0.7-0.4c0-0.1,0-0.2-0.1-0.2c-0.2-0.2-0.5-0.2-0.6-0.2h0h-0.1l0,0
		c-0.1-0.2-0.3-0.3-0.5-0.3c-0.1,0-0.2,0-0.2,0l-0.1,0l0-0.1c0-0.1-0.1-0.2-0.2-0.2c-0.2,0-0.6,0.3-0.7,0.4l-0.1,0.1l0-0.1
		c0-0.1-0.1-0.1-0.1-0.1c-0.2,0-0.5,0.4-0.7,0.7l-0.1,0.1l-0.1-0.1c0-0.1-0.1-0.1-0.1-0.1c0,0,0,0,0,0c-0.1,0.1-0.2,0.2-0.4,0.3
		c0,0.1-0.1,0.4-0.5,0.7c0,0.1,0,0.5-0.3,0.9l0,0c0,0-0.5,0.4-0.8,0.7c-0.1,0.1-0.1,0.1-0.2,0.2c0,0,0,0,0,0c0,0,0,0,0,0
		c0.1-0.1,0.3-0.1,0.5-0.2C99.5,18.9,100.1,18.8,100.2,18.7"/>
	<path class="st2" d="M98.8,18.7c0.3-0.3,0.6-0.5,0.6-0.6c0.4-0.5,0.3-0.8,0.3-0.8l0-0.1v0l0,0l0.1,0c0.1-0.1,0.2-0.1,0.3-0.2
		c0.1-0.1,0.1-0.2,0.1-0.3c0,0,0-0.1,0-0.1l0-0.1l0,0l0.1,0l0,0c0.2-0.1,0.4-0.2,0.4-0.3c0.1-0.2,0.1-0.3,0.1-0.3v-0.1l0.1,0
		c0.4-0.2,0.7-0.5,0.7-0.5l0,0h0c0.2,0,0.4-0.4,0.5-0.6c0-0.1-0.1-0.1-0.2-0.1c-0.2,0-0.4,0.1-0.4,0.1l0,0l0,0
		c-0.1-0.1-0.2-0.1-0.3-0.1c-0.2,0-0.3,0.2-0.3,0.2l-0.1,0.1l-0.1-0.1c0,0-0.1-0.1-0.1-0.1c-0.2,0-0.4,0.4-0.5,0.6l0,0.1l-0.1-0.1
		c0,0-0.1-0.1-0.1-0.1c-0.1,0-0.3,0.4-0.4,0.8l0,0.1l-0.1-0.1c0,0-0.1,0-0.1,0c-0.1,0.8-0.5,2.2-0.7,2.9c0,0,0,0.1,0,0.1
		c0.1-0.1,0.1-0.1,0.2-0.2C98.7,18.8,98.7,18.8,98.8,18.7"/>
	<path class="st2" d="M96.5,21.3L96.5,21.3c-0.3,0.2-0.6,0.4-0.8,0.4c-0.2,0-0.3-0.1-0.3-0.1c-0.1,0.1-0.1,0.2-0.2,0.3c0,0,0,0,0,0
		l0.1,0.1L95.1,22c-0.3,0.2-0.7,0.5-0.7,0.7c0,0,0,0.1,0.1,0.1l0.1,0.1L94.5,23c-0.1,0.1-0.5,0.5-0.5,0.8c0,0.1,0,0.1,0.1,0.2l0.1,0
		l0,0.1c0,0-0.3,0.4,0.2,0.8l0,0l0,0.1c0,0-0.1,0.5,0.1,0.7c0,0.1,0.1,0.1,0.2,0.1c0.2-0.2,0.5-0.6,0.5-0.8v0v0c0,0,0.2-0.5,0.2-1.1
		v-0.1l0,0c0,0,0.5-0.2,0.5-0.9v-0.1H96c0,0,0.4,0,0.5-0.8l0-0.1l0.1,0c0,0,0.3,0.1,0.7-0.6c0-0.1,0.3-1,0.6-1.5
		C97.3,20.3,96.5,21.2,96.5,21.3"/>
	<path class="st2" d="M97.9,19.5C97.2,19.6,96.1,20,96,20h0c-0.1,0-0.2,0-0.3,0c-0.5,0-0.8-0.2-0.8-0.3c-0.2,0.2-0.5,0.2-0.7,0.2
		c0,0,0,0,0,0c0,0,0,0.1,0,0.1l0,0.1h-0.1c-0.2,0-0.9,0.1-1.1,0.3c0,0.1,0,0.2,0,0.3l0,0.1L93,21c0,0-0.7,0.2-0.8,0.6
		c-0.1,0.1-0.1,0.3,0,0.4l0,0.1l-0.1,0c0,0-0.5,0.4-0.3,1.2l0,0l0,0c0,0-0.6,0.9-0.3,1.3c0.2-0.1,0.8-0.3,0.9-0.7l0,0l0,0
		c0,0,0.5-0.4,0.8-1.2l0-0.1l0.1,0c0,0,0,0,0,0c0.2,0,0.6-0.1,0.9-0.8l0-0.1l0.1,0.1c0,0,0,0,0.1,0c0.1,0,0.2,0,0.4-0.2
		c0,0,0,0,0.1-0.1c0.1-0.1,0.2-0.2,0.3-0.4l0.1-0.1l0,0.1l0,0.1c0,0,0.1,0.1,0.3,0.1c0.2,0,0.4-0.1,0.7-0.3c0.1-0.1,0.7-0.8,1.3-1.3
		c0.1-0.1,0.2-0.1,0.2-0.2c0.1,0,0.1-0.1,0.2-0.1c0,0,0,0,0,0C98,19.5,98,19.5,97.9,19.5"/>
	<path class="st2" d="M91.4,20.5L91.4,20.5c0,0,0.6-0.2,1.1-0.6l0,0l0,0c0,0,0.2,0.1,0.4,0.1c0.2,0,0.5-0.1,0.7-0.3l0.1-0.1l0.1,0.1
		c0,0,0.1,0.1,0.2,0.1c0,0,0.1,0,0.1,0c0,0,0.1,0,0.1,0h0c0.2,0,0.4-0.1,0.6-0.2l0.1-0.1l0,0.1c0,0,0.1,0.3,0.7,0.3
		c0.1,0,0.2,0,0.3,0c0.1,0,0.9-0.3,1.6-0.5c0.1,0,0.1,0,0.2,0h0c-0.2-0.1-0.5-0.2-0.7-0.2c-0.4-0.1-0.7-0.2-0.7-0.2h0
		c-0.6-0.3-0.7-0.6-0.7-0.8c-0.2,0-0.4-0.1-0.5-0.1l0,0c0,0-0.4-0.2-0.7-0.2c-0.1,0-0.2,0-0.3,0.1c0,0,0,0.1,0,0.2l0,0.1l-0.1-0.1
		c0,0-0.6-0.2-0.9-0.2c-0.1,0-0.2,0-0.2,0.1c0,0,0,0.1,0,0.2l0,0.1l-0.1,0c0,0-0.2,0-0.4,0c-0.3,0-0.5,0.1-0.6,0.2
		c-0.1,0.1-0.1,0.1-0.1,0.2v0.1l-0.1,0c0,0-0.6,0.1-0.5,0.8v0.1l0,0c0,0-0.5,0.3-0.6,0.6c0,0.1,0,0.2,0,0.3c0.1,0,0.2,0,0.4,0
		C91.1,20.7,91.3,20.6,91.4,20.5L91.4,20.5z"/>
	<path class="st2" d="M98.1,19.2C98,19.2,98,19.1,97.9,19c-0.4-0.4-0.8-0.7-0.8-0.7l0,0c-0.4-0.5-0.4-0.8-0.3-0.9
		c-0.4-0.2-0.5-0.5-0.5-0.7c-0.2-0.1-0.3-0.2-0.4-0.3h0c0,0-0.1,0-0.1,0.1l-0.1,0.1l-0.1-0.1c-0.2-0.3-0.6-0.7-0.7-0.7
		c0,0-0.1,0-0.1,0.1l0,0.1l-0.1-0.1c0,0-0.4-0.4-0.7-0.4c-0.1,0-0.2,0-0.2,0.2l0,0.1l-0.1,0c0,0-0.1,0-0.2,0c-0.2,0-0.4,0.1-0.5,0.3
		l0,0.1h-0.1h0c-0.1,0-0.5,0-0.6,0.2c0,0.1-0.1,0.1-0.1,0.2c0.2,0.1,0.5,0.4,0.7,0.4c0,0,0,0,0.1,0h0h0c0,0,0.3,0.1,0.7,0.1
		c0.1,0,0.2,0,0.3,0l0.1,0l0,0c0,0,0.2,0.4,0.7,0.4c0.1,0,0.1,0,0.2,0l0.1,0l0,0.1c0,0,0,0.1,0.1,0.2c0,0,0,0,0.1,0.1
		c0,0,0.1,0.1,0.2,0.1c0,0,0,0,0.1,0c0.1,0,0.2,0,0.3,0h0h0.1v0l0,0.1v0c0,0,0,0.4,0.6,0.7c0.1,0,0.7,0.1,1.2,0.4
		C97.8,19.2,97.9,19.2,98.1,19.2L98.1,19.2C98.1,19.3,98.1,19.3,98.1,19.2"/>
	<path class="st2" d="M97.4,16.1c0,0-0.1,0-0.1,0l-0.1,0.1l0-0.1c-0.1-0.4-0.2-0.8-0.4-0.8c0,0-0.1,0-0.1,0.1l-0.1,0.1l-0.1-0.1
		c-0.1-0.2-0.3-0.6-0.5-0.6c0,0-0.1,0-0.1,0.1l-0.1,0.1l-0.1-0.1c0,0-0.1-0.2-0.3-0.2c-0.1,0-0.2,0-0.3,0.1l0,0l0,0
		c0,0-0.2-0.1-0.4-0.1c-0.1,0-0.2,0-0.2,0.1c0.1,0.2,0.3,0.6,0.5,0.6h0l0,0c0,0,0.3,0.3,0.7,0.5l0,0l0,0.1c0,0,0,0.2,0.1,0.3
		c0.1,0.1,0.2,0.2,0.4,0.3l0,0l0.1,0l0,0l0,0.1c0,0,0,0,0,0.1c0,0.1,0,0.2,0.1,0.3c0.1,0.1,0.2,0.1,0.3,0.2l0.1,0l0,0v0l-0.1,0.1
		c0,0-0.1,0.2,0.3,0.8c0.1,0,0.3,0.3,0.6,0.6c0.1,0.1,0.1,0.1,0.2,0.2c0.1,0.1,0.1,0.1,0.2,0.2c0,0,0-0.1,0-0.1
		C97.9,18.2,97.6,16.9,97.4,16.1"/>
	<path class="st2" d="M99,16.1c0,0,0-0.1,0-0.1c0-0.2,0.1-0.4,0-0.5H99l0-0.1c0.1-0.6,0-1.2-0.1-1.3c0,0,0,0-0.1,0c0,0,0,0-0.1,0
		l-0.1,0.1l0-0.1c-0.1-0.5-0.3-0.8-0.4-0.9c-0.1,0.1-0.3,0.4-0.4,0.9l0,0.1L97.8,14c0,0,0,0-0.1,0c0,0,0,0-0.1,0
		c-0.1,0.2-0.2,0.7-0.1,1.3l0,0.1h-0.1c0,0.1,0,0.2,0,0.5c0,0,0,0.1,0,0.1c0,0.1,0,0.1,0,0.2c0.1,0.6,0.3,1.4,0.6,2.3c0,0,0,0,0,0.1
		c0,0.1,0,0.2,0.1,0.2c0,0,0,0,0,0c0,0,0,0,0,0c0-0.1,0-0.2,0.1-0.2c0,0,0,0,0-0.1c0.2-0.8,0.5-1.7,0.6-2.3C99,16.2,99,16.2,99,16.1
		"/>
	<path class="st2" d="M101,32.9h-2.2l0.4-2.1l-0.4-0.4l0.5-1.9l-0.4-0.2l0.5-2.1l-0.5-0.3l0.4-1.8l-0.5-0.2l0.3-1.6l-0.4-0.2
		l0.1-1.7c0,0-0.2-0.5-0.5-0.9l0,0l0,0c-0.4,0.3-0.5,0.8-0.5,0.8v0l0.1,1.7l-0.4,0.2l0.3,1.6l-0.5,0.2l0.4,1.8l-0.5,0.3l0.5,2.1
		l-0.4,0.2l0.5,1.9l-0.4,0.4l0.5,2.1h-2.3c0,0-0.3,0.1-0.2,0.4c0.1,0.2,1.3,1.4,1.4,1.3c0.1-0.1,0.1-0.5,0.2-0.6
		c0-0.1,0.4,0.5,0.6,0.6c0,0,0.4-0.3,0.7-0.5c0.4,0.2,0.6,0.5,0.6,0.5c0.2-0.1,0.7-0.7,0.8-0.6c0.1,0.1,0.1,0.5,0.2,0.6
		c0.1,0.1,1.3-1.1,1.4-1.3C101.3,33,101,32.9,101,32.9"/>
	<path class="st2" d="M91.9,34c-1.6-0.9-5.2-1.9-8-0.9c0,0,3.7-0.3,8.7,3c3.7,2.5,7.3,6,8,6.7l1-1C97.7,37.5,93.5,34.9,91.9,34"/>
	<path class="st2" d="M106.5,42.4c0,0-0.5-0.6-1.1,0c-0.5,0.5-0.9,0.7-1.4,0.7c-0.7,0-1.5-0.4-1.7-0.8c0,0-0.1-0.2,0-0.3
		c0.1,0,0.3,0,0.4-0.1c0.2-0.2,0.2-0.5,0.1-0.6c-0.2-0.2-0.5-0.2-0.7,0c-0.2,0.1-0.2,0.4-0.1,0.5c0,0.1-0.1,0.1-0.1,0.2
		c0,0,0-0.1,0-0.1c0,0-0.1,0-0.1,0l-0.1,0.1l-1,1l-0.2,0.2c0,0,0,0.1,0,0.1c0,0,0,0,0,0c0,0,0,0,0,0c-0.1,0-0.3,0-0.4,0.1
		c-0.2,0.2-0.2,0.5-0.1,0.7c0.2,0.2,0.5,0.2,0.7,0c0.1-0.1,0.2-0.3,0.2-0.4c0-0.1,0.1-0.2,0.1-0.2c0.1-0.1,0.2,0,0.3,0.1
		c0.3,0.4,1.7,1.3,3.1,1.3C105.7,44.6,107.4,43.6,106.5,42.4"/>
	<path class="st2" d="M104.7,34c1.6-0.9,5.2-1.9,8-0.9c0,0-3.7-0.3-8.7,3c-3.7,2.5-7.3,6-8,6.7l-1-1C98.9,37.5,103.1,34.9,104.7,34"
		/>
	<path class="st2" d="M90.1,42.4c0,0,0.5-0.6,1.1,0c0.5,0.5,0.9,0.7,1.4,0.7c0.7,0,1.5-0.4,1.7-0.8c0,0,0.1-0.2,0-0.3
		c-0.1,0-0.3,0-0.4-0.1c-0.2-0.2-0.2-0.5-0.1-0.6c0.2-0.2,0.5-0.2,0.7,0c0.2,0.1,0.2,0.4,0.1,0.5c0,0.1,0.1,0.1,0.1,0.2
		c0,0,0-0.1,0-0.1c0,0,0.1,0,0.1,0l0.1,0.1l1,1l0.2,0.2c0,0,0,0.1,0,0.1c0,0,0,0,0,0c0,0,0,0,0,0c0.1,0,0.3,0,0.4,0.1
		c0.2,0.2,0.2,0.5,0.1,0.7c-0.2,0.2-0.5,0.2-0.7,0c-0.1-0.1-0.2-0.3-0.2-0.4c0-0.1-0.1-0.2-0.1-0.2c-0.1-0.1-0.2,0-0.3,0.1
		c-0.3,0.4-1.7,1.3-3.1,1.3C90.9,44.6,89.2,43.6,90.1,42.4"/>
</g>
<g>
	<polygon class="st0" points="34.8,30.3 36,31 36.6,30.1 35.4,29.4 	"/>
	<g>
		<polygon class="st0" points="6.1,21.9 7.3,22.6 7.8,21.7 6.5,21 6.1,21.7 5,20.9 4.4,21.8 5.7,22.6 		"/>
		<path class="st0" d="M8.2,25.5c0-0.4-0.1-0.7-0.4-0.9c-0.1-0.1-0.3-0.2-0.6-0.5c-0.3-0.2-0.5-0.4-0.6-0.6l-1,1.3
			c-0.8,1-1.2,1.8-1.2,2.3c0,0.3,0.2,0.6,0.5,0.7C5.1,28,5.4,28.1,5.7,28c0.5-0.1,1-0.2,1.4-0.6c0.2-0.1,0.4-0.4,0.6-0.6
			C8,26.2,8.2,25.8,8.2,25.5z M7.1,26.6c-0.4,0.2-0.8,0.3-1.2,0.3c-0.4,0-0.6-0.2-0.6-0.5c0-0.1,0-0.2,0.1-0.3
			c0.3-0.5,0.6-0.8,0.8-1.1c0.8,0.5,1.2,0.9,1.2,1.3C7.4,26.4,7.3,26.5,7.1,26.6z"/>
		<path class="st0" d="M11.6,24.3c-0.1,0.6-0.2,1.1-0.3,1.3c1,0.7,1.5,1.3,1.5,1.7c0,0.6-0.4,1.2-1.2,2c-0.8,0.8-1.5,1.2-2,1.2
			c-0.3,0-0.6-0.1-1-0.3c-0.4-0.2-0.7-0.3-0.7-0.3c-0.1,0-0.1,0-0.1,0.1c0,0.2,0.4,0.4,1.2,0.7c0.7,0.3,1.3,0.4,1.6,0.4
			c0.6,0,1.2-0.4,1.8-1.2c0.6-0.9,0.9-1.7,0.9-2.5c0-0.8-0.2-1.5-0.5-2C12.4,25.1,12.1,24.7,11.6,24.3z"/>
		<path class="st0" d="M29,24.9L29,24.9C29,24.9,29,24.9,29,24.9z"/>
		<polygon class="st0" points="31.3,22.3 32.5,23 33.1,22.2 31.8,21.4 31.4,22.1 30.2,21.3 29.7,22.2 30.9,23 		"/>
		<path class="st0" d="M37,21.1c-0.3-0.2-0.6-0.3-0.9-0.5c-0.1,0-0.1-0.1-0.1-0.2c0,0,0-0.1,0.1-0.2c0-0.1,0.1-0.1,0.1-0.2
			c0,0,0-0.1-0.1-0.1c0,0-0.1,0-0.2,0.2l-0.6,1c0,0.1-0.1,0.2-0.1,0.3c0,0.1,0.1,0.2,0.2,0.3l0.1,0c0.4,2.5,0.6,4.2,0.6,4.9
			c0,0.2,0,0.3,0,0.3h-2.4l0,0h-0.3c-0.1,0-0.2,0-0.2-0.1c0,0,0-0.1,0-0.3c0.2-0.9,0.2-1.6,0.2-2.1c0-0.1,0-0.1,0-0.1
			c-0.4,0.5-0.7,0.9-1,1.2l0,1.4h-2.9l0,0h-2.5l-0.1-0.1c-0.2-0.1-0.3-0.3-0.3-0.5c0.4-0.2,1-0.3,1.8-0.3c0.2,0,0.3,0,0.4,0
			c0.2-0.5,0.4-0.9,0.5-1.1c-0.1,0-0.2,0-0.4,0h-0.4c-0.6,0-1.4-0.2-2.6-0.5c-0.8-0.2-1.4-0.4-1.8-0.4c-0.6,0-1.1,0.4-1.5,1.2
			c-0.1,0.2-0.1,0.4-0.1,0.5c0,0,0,0,0,0c0.5-0.4,0.9-0.6,1.2-0.6l0.6,0.1c0.8,0.2,1.5,0.3,1.9,0.4c-1,0.8-1.9,1.2-2.7,1.2h-2.5l0,0
			H19h-0.3h-1.5l0,0h-0.6c-0.3,0-0.5-0.1-0.6-0.2c0,0-0.1-0.1-0.1-0.1c-0.1-0.1-0.2-1.1-0.4-3l-0.4-4.1c-0.3,0.4-0.6,0.8-0.7,1
			c0.2,2.4,0.4,4.9,0.6,7.5h1.7l0,0h1.9H19h1.6l0,0h2.7c0.5,0,0.9-0.2,1.3-0.5c0.1-0.1,0.4-0.3,0.7-0.5c0.3-0.2,0.5-0.4,0.7-0.5
			c0.1,0.5,0.1,0.8,0.1,0.9c0.1,0.4,0.3,0.6,0.5,0.6h3l0,0h2c0.1,0,0.2-0.1,0.3-0.3c0.1-0.2,0.2-0.3,0.2-0.3c0,0,0.1,0.1,0.1,0.2
			c0.1,0.1,0.1,0.2,0.2,0.3c0.1,0.1,0.3,0.1,0.4,0.1h0.3l0,0h2.9c0.1,0,0.2-0.3,0.3-0.9c0.1-0.5,0.1-0.9,0.1-1.2l-0.4-3.7
			c0,0,0.1,0,0.2,0L37,21.1z"/>
		<path class="st0" d="M39.4,19.5c-0.6,1-0.9,1.6-0.8,1.9c0.3,2.7,0.5,5.1,0.7,7c0.4-0.9,0.5-1.5,0.5-1.9l-0.1-3.5
			C39.5,20.8,39.4,19.6,39.4,19.5z"/>
		<polygon class="st0" points="46.3,21.9 47.5,22.6 48,21.7 46.7,21 46.3,21.7 45.2,20.9 44.6,21.8 45.9,22.6 		"/>
		<path class="st0" d="M48.4,25.5c0-0.4-0.1-0.7-0.4-0.9c-0.1-0.1-0.3-0.2-0.6-0.5c-0.3-0.2-0.5-0.4-0.6-0.6l-1,1.3
			c-0.8,1-1.2,1.8-1.2,2.3c0,0.3,0.2,0.6,0.5,0.7c0.3,0.1,0.6,0.2,0.9,0.1c0.5-0.1,1-0.2,1.4-0.6c0.2-0.1,0.4-0.4,0.6-0.6
			C48.2,26.2,48.4,25.8,48.4,25.5z M47.3,26.6c-0.4,0.2-0.8,0.3-1.2,0.3c-0.4,0-0.6-0.2-0.6-0.5c0-0.1,0-0.2,0.1-0.3
			c0.3-0.5,0.6-0.8,0.8-1.1c0.8,0.5,1.2,0.9,1.2,1.3C47.6,26.4,47.5,26.5,47.3,26.6z"/>
		<path class="st0" d="M51.8,24.3c-0.1,0.6-0.2,1.1-0.3,1.3c1,0.7,1.5,1.3,1.5,1.7c0,0.6-0.4,1.2-1.2,2c-0.8,0.8-1.5,1.2-2,1.2
			c-0.3,0-0.6-0.1-1-0.3C48.2,30,48,29.9,48,29.9c-0.1,0-0.1,0-0.1,0.1c0,0.2,0.4,0.4,1.2,0.7c0.7,0.3,1.3,0.4,1.6,0.4
			c0.6,0,1.2-0.4,1.8-1.2c0.6-0.9,0.9-1.7,0.9-2.5c0-0.8-0.2-1.5-0.5-2C52.6,25.1,52.3,24.7,51.8,24.3z"/>
		<path class="st0" d="M55.8,19.5c-0.6,1-0.9,1.6-0.8,1.9c0.3,2.7,0.5,5.1,0.7,7c0.4-0.9,0.5-1.5,0.5-1.9L56,23.1
			C55.9,20.8,55.8,19.6,55.8,19.5z"/>
		<path class="st0" d="M61.4,25.4c-0.2-0.4-0.6-0.7-1.1-1.1C60.1,25,60,25.4,60,25.7c1,0.7,1.5,1.3,1.5,1.7c0,0.6-0.4,1.2-1.2,2
			c-0.8,0.8-1.5,1.2-2,1.2c-0.3,0-0.6-0.1-1-0.3c-0.4-0.2-0.7-0.3-0.7-0.3c-0.1,0-0.1,0-0.1,0.1c0,0.2,0.4,0.4,1.2,0.7
			c0.7,0.3,1.3,0.4,1.6,0.4c0.6,0,1.2-0.4,1.8-1.2c0.6-0.9,0.9-1.7,0.9-2.5C61.8,26.7,61.7,26,61.4,25.4z"/>
		<polygon class="st0" points="60.5,22 59.2,21.3 58.7,22.2 59.9,22.9 		"/>
		<path class="st0" d="M66.6,24.7c-0.3-0.6-0.5-0.8-0.8-0.8c-0.3,0-0.7,0.3-1.1,1c-0.4,0.6-0.6,1.1-0.6,1.5c0,0.3,0.1,0.6,0.2,0.9
			c0.2,0.3,0.4,0.5,0.7,0.5c0.4,0,0.6,0,0.8-0.1c0.2-0.1,0.5-0.5,0.7-1c0.1,0.2,0.1,0.4,0.1,0.7c0,0.6-0.3,1.2-1,1.9
			c-0.6,0.6-1.3,1.1-2,1.3c-0.1,0-0.3,0.1-0.5,0.1c-0.2,0-0.4,0-0.7-0.1c-0.3-0.1-0.6-0.1-0.7-0.1c-0.1,0-0.2,0-0.2,0.1
			c0,0.1,0.4,0.3,1.2,0.5c0.7,0.1,1.2,0.2,1.5,0.2c0.4,0,0.8-0.2,1.3-0.6c0.4-0.4,0.7-0.8,0.9-1.2c0.4-0.9,0.6-1.9,0.6-2.9
			C67.1,25.9,66.9,25.3,66.6,24.7z M65.6,26.6c-0.2,0-0.4,0-0.6-0.1c-0.3-0.1-0.4-0.2-0.4-0.4c0-0.2,0.1-0.4,0.3-0.6
			s0.4-0.3,0.6-0.3c0.2,0,0.4,0.2,0.6,0.5c0.1,0.3,0.2,0.5,0.2,0.8C66.2,26.5,65.9,26.6,65.6,26.6z"/>
	</g>
	<g>
		<polygon class="st0" points="2.1,33.6 3.6,37.5 5.1,33.6 6.1,33.6 6.1,38.8 5.2,38.8 5.2,35.2 3.8,38.8 3.3,38.8 2,35.2 2,38.8 
			1.1,38.8 1.1,33.6 		"/>
		<path class="st0" d="M7.6,34.3H6.7v-0.7h0.8L7.6,34.3L7.6,34.3z M7.6,38.8H6.7V35h0.8L7.6,38.8L7.6,38.8z"/>
		<path class="st0" d="M8.2,35h0.9v0.3c0.2-0.1,0.3-0.2,0.5-0.3C9.8,35,10,35,10.2,35c0.2,0,0.4,0,0.5,0.1c0.2,0.1,0.3,0.1,0.4,0.2
			c0.1,0.1,0.2,0.2,0.2,0.4c0.1,0.1,0.1,0.3,0.1,0.5v2.7h-0.8v-2.6c0-0.2,0-0.4-0.1-0.5c-0.1-0.1-0.2-0.1-0.4-0.1
			c-0.1,0-0.3,0-0.4,0.1c-0.1,0.1-0.2,0.1-0.3,0.2c-0.1,0.1-0.2,0.2-0.2,0.3s-0.1,0.2-0.1,0.4v2.2H8.2L8.2,35L8.2,35z"/>
		<path class="st0" d="M12.9,34.3h-0.8v-0.7h0.8V34.3z M12.9,38.8h-0.8V35h0.8V38.8z"/>
		<path class="st0" d="M14.4,37.5c0,0.1,0,0.2,0.1,0.3c0,0.1,0.1,0.2,0.1,0.2c0.1,0.1,0.1,0.1,0.2,0.1c0.1,0,0.2,0,0.3,0
			c0.1,0,0.2,0,0.2,0c0.1,0,0.2,0,0.2-0.1c0.1,0,0.1-0.1,0.2-0.2c0-0.1,0.1-0.1,0.1-0.2c0-0.1,0-0.2-0.1-0.2c0-0.1-0.1-0.1-0.2-0.2
			c-0.1,0-0.2-0.1-0.3-0.1c-0.1,0-0.2-0.1-0.3-0.1c-0.2-0.1-0.3-0.1-0.5-0.2c-0.2-0.1-0.3-0.1-0.4-0.2c-0.1-0.1-0.2-0.2-0.3-0.3
			c-0.1-0.1-0.1-0.3-0.1-0.4s0-0.3,0.1-0.4c0.1-0.1,0.2-0.2,0.3-0.3c0.1-0.1,0.3-0.1,0.5-0.2c0.2,0,0.4-0.1,0.5-0.1
			c0.2,0,0.4,0,0.6,0.1c0.2,0,0.3,0.1,0.5,0.2c0.1,0.1,0.2,0.2,0.3,0.4c0.1,0.1,0.1,0.3,0.1,0.5h-0.1c0,0-0.1,0-0.1,0
			c0,0-0.1,0-0.1,0h-0.1h-0.5c0-0.1,0-0.2-0.1-0.2c0-0.1-0.1-0.1-0.1-0.2c-0.1,0-0.1-0.1-0.2-0.1c-0.1,0-0.1,0-0.2,0
			c-0.2,0-0.3,0-0.4,0.1c-0.1,0.1-0.1,0.2-0.1,0.3c0,0.1,0,0.1,0.1,0.2c0,0.1,0.1,0.1,0.2,0.2s0.2,0.1,0.3,0.1
			c0.1,0,0.2,0.1,0.3,0.1c0.2,0.1,0.3,0.1,0.5,0.2c0.2,0.1,0.3,0.1,0.4,0.2c0.1,0.1,0.2,0.2,0.3,0.3c0.1,0.1,0.1,0.2,0.1,0.4
			c0,0.2,0,0.4-0.1,0.5c-0.1,0.1-0.2,0.3-0.4,0.4c-0.1,0.1-0.3,0.2-0.5,0.2c-0.2,0-0.4,0.1-0.6,0.1c-0.2,0-0.4,0-0.6-0.1
			c-0.2-0.1-0.4-0.1-0.5-0.2c-0.1-0.1-0.2-0.2-0.3-0.4c-0.1-0.2-0.1-0.4-0.1-0.6L14.4,37.5L14.4,37.5z"/>
		<path class="st0" d="M18.4,34V35h0.6v0.6h-0.6v2.3c0,0.1,0,0.2,0.1,0.3c0,0,0.1,0.1,0.2,0.1c0,0,0.1,0,0.1,0c0.1,0,0.2,0,0.3,0
			v0.6c-0.1,0-0.2,0-0.3,0.1c-0.1,0-0.2,0-0.3,0c-0.1,0-0.2,0-0.3,0c-0.1,0-0.2-0.1-0.3-0.1c-0.1-0.1-0.1-0.1-0.2-0.2
			c0-0.1-0.1-0.2-0.1-0.4v-2.5H17V35h0.6V34L18.4,34L18.4,34z"/>
		<path class="st0" d="M19.5,35h0.8l0,0.3c0.1-0.1,0.2-0.2,0.4-0.3C20.8,35,21,35,21.1,35c0,0,0.1,0,0.2,0c0.1,0,0.1,0,0.2,0.1v0.7
			c-0.2-0.1-0.4-0.1-0.4-0.1c-0.1,0-0.2,0-0.3,0.1s-0.2,0.1-0.2,0.2c-0.1,0.1-0.1,0.2-0.1,0.3s0,0.2,0,0.4v2.2h-0.8L19.5,35L19.5,35
			z"/>
		<path class="st0" d="M23.4,37.6l0.9-2.6h0.9l-1.6,4.5c-0.1,0.1-0.1,0.3-0.2,0.4c-0.1,0.1-0.2,0.2-0.2,0.2
			c-0.1,0.1-0.2,0.1-0.3,0.1c-0.1,0-0.2,0-0.3,0c-0.1,0-0.2,0-0.2,0s-0.2,0-0.3-0.1v-0.6c0,0,0.1,0,0.1,0c0,0,0.1,0,0.1,0.1
			c0,0,0.1,0,0.1,0c0,0,0.1,0,0.1,0s0.1,0,0.1-0.1c0,0,0.1-0.1,0.1-0.1c0-0.1,0-0.1,0.1-0.2c0-0.1,0-0.1,0.1-0.2l0.2-0.5l-1.4-3.7
			h0.9L23.4,37.6z"/>
		<path class="st0" d="M27,36.9c0-0.3,0-0.5,0.1-0.7c0.1-0.2,0.2-0.4,0.4-0.6c0.1-0.2,0.3-0.3,0.6-0.4c0.2-0.1,0.5-0.1,0.8-0.1
			c0.3,0,0.5,0,0.8,0.1c0.2,0.1,0.4,0.2,0.6,0.4s0.3,0.4,0.4,0.6c0.1,0.2,0.1,0.5,0.1,0.7c0,0.3,0,0.5-0.1,0.7
			c-0.1,0.2-0.2,0.4-0.4,0.6s-0.4,0.3-0.6,0.4s-0.5,0.1-0.8,0.1c-0.3,0-0.5,0-0.8-0.1c-0.2-0.1-0.4-0.2-0.6-0.4s-0.3-0.4-0.4-0.6
			C27,37.4,27,37.2,27,36.9 M27.8,36.9c0,0.2,0,0.4,0.1,0.5c0,0.2,0.1,0.3,0.2,0.4c0.1,0.1,0.2,0.2,0.3,0.3s0.2,0.1,0.4,0.1
			c0.1,0,0.3,0,0.4-0.1c0.1-0.1,0.2-0.2,0.3-0.3c0.1-0.1,0.1-0.3,0.2-0.4c0-0.2,0.1-0.3,0.1-0.5c0-0.2,0-0.4-0.1-0.5
			c0-0.2-0.1-0.3-0.2-0.4c-0.1-0.1-0.2-0.2-0.3-0.3c-0.1-0.1-0.2-0.1-0.4-0.1c-0.1,0-0.3,0-0.4,0.1c-0.1,0.1-0.2,0.2-0.3,0.3
			c-0.1,0.1-0.1,0.3-0.2,0.4C27.9,36.6,27.8,36.7,27.8,36.9"/>
		<path class="st0" d="M31.6,35v-0.8c0-0.1,0-0.2,0.1-0.3c0-0.1,0.1-0.2,0.2-0.2c0.1-0.1,0.2-0.1,0.3-0.2c0.1,0,0.2-0.1,0.4-0.1
			c0.1,0,0.2,0,0.3,0c0.1,0,0.2,0.1,0.3,0.1v0.6c-0.1,0-0.2-0.1-0.3-0.1c-0.1,0-0.1,0-0.1,0c-0.1,0-0.1,0-0.2,0.1
			c0,0-0.1,0.1-0.1,0.2V35h0.6v0.6h-0.6v3.1h-0.9v-3.1H31V35L31.6,35L31.6,35z"/>
		<path class="st0" d="M36,36.1c0,0.4,0,0.7,0.1,1c0.1,0.3,0.2,0.5,0.4,0.7c0.1,0.2,0.3,0.3,0.5,0.4c0.2,0.1,0.4,0.1,0.6,0.1
			s0.4,0,0.5-0.1c0.2-0.1,0.3-0.2,0.4-0.3c0.1-0.1,0.2-0.3,0.3-0.5c0.1-0.2,0.1-0.3,0.2-0.5h0.9c-0.1,0.3-0.1,0.5-0.3,0.8
			c-0.1,0.2-0.3,0.5-0.5,0.6c-0.2,0.2-0.4,0.3-0.7,0.4c-0.3,0.1-0.6,0.2-0.9,0.2c-0.4,0-0.7-0.1-1-0.2c-0.3-0.1-0.6-0.3-0.8-0.6
			c-0.2-0.2-0.4-0.5-0.5-0.9c-0.1-0.4-0.2-0.7-0.2-1.2c0-0.2,0-0.5,0.1-0.7s0.1-0.4,0.2-0.6c0.1-0.2,0.2-0.4,0.4-0.5
			c0.1-0.2,0.3-0.3,0.5-0.4c0.2-0.1,0.4-0.2,0.6-0.3c0.2-0.1,0.5-0.1,0.7-0.1c0.3,0,0.6,0,0.9,0.1c0.2,0.1,0.5,0.2,0.7,0.4
			c0.2,0.1,0.4,0.3,0.5,0.5c0.1,0.2,0.2,0.4,0.3,0.7H39c-0.1-0.4-0.3-0.7-0.6-0.8S37.9,34,37.6,34c-0.2,0-0.4,0.1-0.6,0.2
			c-0.2,0.1-0.4,0.3-0.5,0.5c-0.1,0.2-0.2,0.4-0.3,0.7C36,35.6,36,35.8,36,36.1"/>
		<path class="st0" d="M40.4,36.9c0-0.3,0-0.5,0.1-0.7s0.2-0.4,0.4-0.6c0.1-0.2,0.3-0.3,0.6-0.4c0.2-0.1,0.5-0.1,0.8-0.1
			c0.3,0,0.5,0,0.8,0.1c0.2,0.1,0.4,0.2,0.6,0.4c0.2,0.2,0.3,0.4,0.4,0.6c0.1,0.2,0.1,0.5,0.1,0.7c0,0.3,0,0.5-0.1,0.7
			c-0.1,0.2-0.2,0.4-0.4,0.6c-0.2,0.2-0.4,0.3-0.6,0.4s-0.5,0.1-0.8,0.1c-0.3,0-0.5,0-0.8-0.1c-0.2-0.1-0.4-0.2-0.6-0.4
			c-0.1-0.2-0.3-0.4-0.4-0.6C40.4,37.4,40.4,37.2,40.4,36.9 M41.2,36.9c0,0.2,0,0.4,0.1,0.5c0,0.2,0.1,0.3,0.2,0.4
			c0.1,0.1,0.2,0.2,0.3,0.3s0.2,0.1,0.4,0.1s0.3,0,0.4-0.1s0.2-0.2,0.3-0.3c0.1-0.1,0.1-0.3,0.2-0.4c0-0.2,0.1-0.3,0.1-0.5
			c0-0.2,0-0.4-0.1-0.5c0-0.2-0.1-0.3-0.2-0.4c-0.1-0.1-0.2-0.2-0.3-0.3s-0.2-0.1-0.4-0.1s-0.3,0-0.4,0.1s-0.2,0.2-0.3,0.3
			c-0.1,0.1-0.1,0.3-0.2,0.4C41.3,36.6,41.2,36.7,41.2,36.9"/>
		<path class="st0" d="M44.6,35h0.8v0.3c0.1-0.1,0.3-0.2,0.5-0.3c0.2-0.1,0.3-0.1,0.5-0.1c0.2,0,0.4,0,0.5,0.1
			c0.2,0.1,0.3,0.2,0.4,0.4c0.1-0.1,0.2-0.2,0.2-0.2c0.1-0.1,0.2-0.1,0.3-0.2c0.1,0,0.2-0.1,0.3-0.1c0.1,0,0.2,0,0.3,0
			c0.2,0,0.4,0,0.5,0.1c0.2,0.1,0.3,0.1,0.4,0.2c0.1,0.1,0.2,0.2,0.3,0.4c0.1,0.1,0.1,0.3,0.1,0.5v2.6H49v-2.5c0-0.1,0-0.2-0.1-0.4
			c0-0.1-0.1-0.2-0.1-0.2c-0.1-0.1-0.1-0.1-0.2-0.1c-0.1,0-0.1,0-0.2,0c-0.1,0-0.2,0-0.3,0.1c-0.1,0-0.2,0.1-0.2,0.2
			c-0.1,0.1-0.1,0.2-0.2,0.3c0,0.1-0.1,0.2-0.1,0.4v2.3h-0.8v-2.5c0-0.1,0-0.2,0-0.4c0-0.1-0.1-0.2-0.1-0.2c0-0.1-0.1-0.1-0.2-0.1
			c-0.1,0-0.1,0-0.2,0c-0.1,0-0.2,0-0.3,0.1c-0.1,0.1-0.2,0.1-0.3,0.2c-0.1,0.1-0.1,0.2-0.2,0.3c0,0.1-0.1,0.2-0.1,0.3v2.2h-0.8
			L44.6,35L44.6,35z"/>
		<path class="st0" d="M50.5,35h0.8v0.3c0.1-0.1,0.3-0.2,0.5-0.3C52,35,52.1,35,52.3,35c0.2,0,0.4,0,0.5,0.1
			c0.2,0.1,0.3,0.2,0.4,0.4c0.1-0.1,0.2-0.2,0.2-0.2c0.1-0.1,0.2-0.1,0.3-0.2c0.1,0,0.2-0.1,0.3-0.1c0.1,0,0.2,0,0.3,0
			c0.2,0,0.4,0,0.5,0.1c0.2,0.1,0.3,0.1,0.4,0.2c0.1,0.1,0.2,0.2,0.3,0.4c0.1,0.1,0.1,0.3,0.1,0.5v2.6h-0.8v-2.5
			c0-0.1,0-0.2-0.1-0.4c0-0.1-0.1-0.2-0.1-0.2s-0.1-0.1-0.2-0.1c-0.1,0-0.1,0-0.2,0c-0.1,0-0.2,0-0.3,0.1c-0.1,0-0.2,0.1-0.2,0.2
			c-0.1,0.1-0.1,0.2-0.2,0.3c0,0.1-0.1,0.2-0.1,0.4v2.3h-0.8v-2.5c0-0.1,0-0.2,0-0.4c0-0.1-0.1-0.2-0.1-0.2c0-0.1-0.1-0.1-0.2-0.1
			c-0.1,0-0.1,0-0.2,0c-0.1,0-0.2,0-0.3,0.1c-0.1,0.1-0.2,0.1-0.3,0.2c-0.1,0.1-0.1,0.2-0.2,0.3c0,0.1-0.1,0.2-0.1,0.3v2.2h-0.8
			L50.5,35L50.5,35z"/>
		<path class="st0" d="M57.2,37.1c0,0.2,0,0.3,0.1,0.5c0,0.1,0.1,0.3,0.2,0.4c0.1,0.1,0.2,0.2,0.3,0.3c0.1,0.1,0.2,0.1,0.4,0.1
			c0.4,0,0.7-0.2,0.9-0.7h0.8c0,0.2-0.1,0.4-0.2,0.6c-0.1,0.2-0.2,0.3-0.4,0.4c-0.1,0.1-0.3,0.2-0.5,0.3c-0.2,0.1-0.4,0.1-0.6,0.1
			c-0.3,0-0.5-0.1-0.8-0.2c-0.2-0.1-0.4-0.2-0.6-0.4c-0.2-0.2-0.3-0.4-0.4-0.6s-0.1-0.5-0.1-0.8c0-0.2,0-0.5,0.1-0.7
			c0.1-0.2,0.2-0.4,0.4-0.6c0.2-0.2,0.4-0.3,0.6-0.4s0.5-0.2,0.8-0.2c0.3,0,0.5,0,0.7,0.1c0.2,0.1,0.4,0.2,0.6,0.4
			c0.1,0.2,0.3,0.4,0.4,0.6c0.1,0.2,0.1,0.5,0.1,0.7v0.3L57.2,37.1L57.2,37.1z M59,36.5c0-0.1,0-0.3-0.1-0.4c0-0.1-0.1-0.2-0.2-0.3
			c-0.1-0.1-0.2-0.2-0.3-0.2c-0.1,0-0.2-0.1-0.4-0.1c-0.1,0-0.2,0-0.3,0.1c-0.1,0.1-0.2,0.1-0.3,0.2c-0.1,0.1-0.1,0.2-0.2,0.3
			c0,0.1-0.1,0.2-0.1,0.4L59,36.5L59,36.5z"/>
		<path class="st0" d="M60.4,35h0.8l0,0.3c0.1-0.1,0.2-0.2,0.4-0.3C61.7,35,61.9,35,62,35c0,0,0.1,0,0.2,0c0.1,0,0.1,0,0.2,0.1v0.7
			c-0.2-0.1-0.4-0.1-0.4-0.1c-0.1,0-0.2,0-0.3,0.1c-0.1,0-0.2,0.1-0.2,0.2c-0.1,0.1-0.1,0.2-0.1,0.3s0,0.2,0,0.4v2.2h-0.8L60.4,35
			L60.4,35z"/>
		<path class="st0" d="M65.3,36.3c-0.1-0.3-0.2-0.4-0.3-0.5c-0.1-0.1-0.3-0.2-0.5-0.2c-0.1,0-0.3,0-0.4,0.1
			c-0.1,0.1-0.2,0.2-0.3,0.3c-0.1,0.1-0.1,0.2-0.2,0.4c0,0.2-0.1,0.3-0.1,0.5c0,0.2,0,0.4,0.1,0.5c0,0.2,0.1,0.3,0.2,0.5
			c0.1,0.1,0.2,0.2,0.3,0.3c0.1,0.1,0.2,0.1,0.4,0.1c0.1,0,0.2,0,0.3-0.1S65,38.1,65,38c0.1-0.1,0.1-0.2,0.2-0.3s0.1-0.2,0.1-0.3
			h0.9c0,0.2-0.1,0.4-0.2,0.6c-0.1,0.2-0.2,0.3-0.4,0.5c-0.1,0.1-0.3,0.2-0.5,0.3c-0.2,0.1-0.4,0.1-0.6,0.1c-0.3,0-0.6-0.1-0.8-0.2
			s-0.4-0.3-0.5-0.5c-0.1-0.2-0.2-0.4-0.3-0.6c-0.1-0.2-0.1-0.5-0.1-0.7c0-0.3,0-0.5,0.1-0.7c0.1-0.2,0.2-0.4,0.4-0.6
			c0.1-0.2,0.3-0.3,0.6-0.4c0.2-0.1,0.5-0.1,0.7-0.1c0.2,0,0.5,0,0.6,0.1c0.2,0.1,0.4,0.2,0.5,0.3c0.1,0.1,0.2,0.2,0.3,0.4
			c0.1,0.2,0.1,0.3,0.2,0.5L65.3,36.3L65.3,36.3z"/>
		<path class="st0" d="M67.6,37.1c0,0.2,0,0.3,0.1,0.5c0,0.1,0.1,0.3,0.2,0.4c0.1,0.1,0.2,0.2,0.3,0.3c0.1,0.1,0.2,0.1,0.4,0.1
			c0.4,0,0.7-0.2,0.9-0.7h0.8c0,0.2-0.1,0.4-0.2,0.6c-0.1,0.2-0.2,0.3-0.4,0.4c-0.1,0.1-0.3,0.2-0.5,0.3c-0.2,0.1-0.4,0.1-0.6,0.1
			c-0.3,0-0.5-0.1-0.8-0.2c-0.2-0.1-0.4-0.2-0.6-0.4c-0.2-0.2-0.3-0.4-0.4-0.6c-0.1-0.2-0.1-0.5-0.1-0.8c0-0.2,0-0.5,0.1-0.7
			c0.1-0.2,0.2-0.4,0.4-0.6c0.2-0.2,0.4-0.3,0.6-0.4s0.5-0.2,0.8-0.2c0.3,0,0.5,0,0.7,0.1c0.2,0.1,0.4,0.2,0.6,0.4
			c0.1,0.2,0.3,0.4,0.4,0.6c0.1,0.2,0.1,0.5,0.1,0.7v0.3L67.6,37.1L67.6,37.1z M69.5,36.5c0-0.1,0-0.3-0.1-0.4
			c0-0.1-0.1-0.2-0.2-0.3c-0.1-0.1-0.2-0.2-0.3-0.2c-0.1,0-0.2-0.1-0.4-0.1c-0.1,0-0.2,0-0.3,0.1c-0.1,0.1-0.2,0.1-0.3,0.2
			c-0.1,0.1-0.1,0.2-0.2,0.3s-0.1,0.2-0.1,0.4L69.5,36.5L69.5,36.5z"/>
	</g>
</g>
</svg>
