<?xml version="1.0" encoding="utf-8"?>
<!-- Generator: Adobe Illustrator 25.4.1, SVG Export Plug-In . SVG Version: 6.00 Build 0)  -->
<svg version="1.1" id="Layer_1" xmlns="http://www.w3.org/2000/svg" xmlns:xlink="http://www.w3.org/1999/xlink" x="0px" y="0px"
	 viewBox="0 0 120 60" style="enable-background:new 0 0 120 60;" xml:space="preserve">
<style type="text/css">
	.st0{fill:#F79045;}
	.st1{fill:#14539B;}
</style>
<g>
	<path class="st0" d="M47.9,43.4c-0.5,0-0.9,0.1-1.1,0.3l0.3,0.5c0.2-0.1,0.5-0.2,0.8-0.2c0.6,0,1,0.4,1.1,1.1h-2.8v0h-0.3
		c-0.3,0-0.5-0.3-0.5-0.7c0-0.2,0-2.3,0-2.8h-0.7l0,3c0,0.3-0.3,0.4-0.5,0.4h-1.5c-0.2-1.1-0.7-1.7-1.7-1.7l0.9-0.9l-0.5-0.5
		l-1.7,1.7l0.2,0.5c0.3-0.2,0.6-0.3,0.9-0.3c0.3,0,0.6,0.1,0.8,0.3c0.2,0.2,0.4,0.5,0.4,0.8h-2.4c-0.5,0-0.9-0.3-1-0.8
		c-0.1-0.3-0.2-0.5-0.4-0.6c-0.2-0.2-0.5-0.3-0.8-0.3c-0.6,0-0.9,0.2-1.1,0.7h-0.6c-0.6,0-0.8,0.3-0.8,0.8l0,2.2h0.7l0-1.8
		c0-0.2,0-0.3,0-0.4c0.1-0.1,0.2-0.2,0.3-0.2h0.3c0,0.3,0.2,0.5,0.4,0.7c0.2,0.2,0.5,0.3,0.8,0.3c0.5,0,0.8-0.2,1-0.5
		c0.2,0.4,0.6,0.6,1,0.5v0h4.9c0.3,0,0.7-0.2,0.8-0.5c0.1,0.3,0.4,0.5,0.6,0.5h3.9c0-0.7-0.1-1.2-0.4-1.6
		C49,43.7,48.5,43.4,47.9,43.4 M37.5,45.3c-0.1,0-0.3-0.1-0.3-0.2C37,45,37,44.8,37,44.6c0-0.2,0.1-0.4,0.1-0.5
		c0.1-0.1,0.2-0.2,0.3-0.2c0.1,0,0.3,0.1,0.4,0.2c0.1,0.1,0.2,0.3,0.2,0.5C37.9,45,37.7,45.3,37.5,45.3 M47.7,46.8h0.6v-0.6h-0.6
		V46.8z M51,40.8c0-0.1,0-0.1,0.1-0.1c0.1,0,0.1,0,0.2,0.1l0.2-0.2c-0.1-0.1-0.2-0.2-0.3-0.2c-0.2,0-0.4,0.2-0.4,0.4
		c0,0.1,0,0.1,0.1,0.2h-0.3l-0.1,0.3h1.1V41h-0.2C51,41,51,41,51,40.8 M50.5,41.7l0,4.1h0.7l0-4.1H50.5z M55,42.9h-0.6v0.6H55V42.9z
		 M59.1,43.4c-0.7,0-1.1,0.5-1.1,1.2c0,0.2,0,0.4,0.1,0.6h-0.8v0h-0.4c-0.1,0-0.2-0.1-0.3-0.2c-0.1-0.1-0.2-0.3-0.2-0.5l0-0.5h-0.7
		l0,1.3c0,0.3-0.1,0.6-0.3,0.8c-0.2,0.2-0.4,0.3-0.7,0.3c-0.3,0-0.5-0.1-0.7-0.3c-0.2-0.2-0.3-0.5-0.3-0.8c0,0,0-0.2,0-0.6v-0.7H53
		c0,0.1,0,0.3,0,0.7c0,0.3,0,0.5,0,0.6c0,0.5,0.2,0.9,0.5,1.3c0.3,0.3,0.7,0.5,1.2,0.5c0.5,0,0.8-0.2,1.2-0.5
		c0.3-0.3,0.5-0.8,0.5-1.2c0.1,0.2,0.3,0.4,0.6,0.4h0.5v0h1.7c0.7,0,1.1-0.5,1.1-1.2c0-0.3-0.1-0.6-0.3-0.8
		C59.8,43.5,59.5,43.4,59.1,43.4 M59.2,45.3c-0.1,0-0.3-0.1-0.3-0.2c-0.1-0.1-0.2-0.3-0.2-0.5c0-0.2,0-0.4,0.1-0.5
		C58.9,44,59,44,59.2,44c0.1,0,0.3,0.1,0.3,0.2c0.1,0.1,0.2,0.3,0.2,0.5C59.7,45,59.5,45.3,59.2,45.3 M64.8,44.1l0,1.3
		c0,0.3-0.1,0.6-0.3,0.8c-0.2,0.2-0.4,0.3-0.7,0.3c-0.3,0-0.5-0.1-0.7-0.3c-0.2-0.2-0.3-0.5-0.3-0.8c0-0.4,0-0.8,0-1.3h-0.7l0,1.3
		c0,0.5,0.2,0.9,0.5,1.3c0.3,0.3,0.7,0.5,1.2,0.5c0.5,0,0.9-0.2,1.2-0.5c0.3-0.3,0.5-0.8,0.5-1.3l0-1.3H64.8z M64.1,42.9h-0.6v0.6
		h0.6V42.9z M69.9,41.9h-0.6v0.6h0.6V41.9z M69,41.9h-0.6v0.6H69V41.9z M72.6,42.3H72V43h0.6V42.3z M71.7,42.3h-0.6V43h0.6V42.3z
		 M72,43.5c0,0.2,0,0.4,0,0.6c0,0.2,0,0.4,0,0.6c0,0.3-0.2,0.4-0.4,0.4h-0.7v0h-0.2c-0.3,0-0.5,0-0.7-0.1c0.3-0.3,0.4-0.6,0.4-1
		c0-0.3-0.1-0.6-0.4-0.8c-0.2-0.2-0.5-0.3-0.8-0.3c-0.3,0-0.6,0.1-0.8,0.3c-0.2,0.2-0.4,0.5-0.4,0.8c0,0.4,0.2,0.7,0.4,1
		c-0.2,0-0.4,0.1-0.7,0.1h-0.5c-0.2,0-0.3-0.2-0.3-0.4l0-3.1h-0.7l0,3.3c0,0.2,0.1,0.4,0.2,0.6c0.1,0.1,0.3,0.2,0.4,0.2h1.2
		c0.3,0,0.7-0.1,1-0.2c0.3,0.1,0.7,0.2,1,0.2h0.7v0h0.9c0.5,0,0.8-0.3,0.8-0.8c0,0,0-0.5,0-1.5L72,43.5L72,43.5z M69.5,44.7
		c-0.1,0.1-0.2,0.2-0.3,0.2c-0.1,0-0.2-0.1-0.3-0.2c-0.1-0.2-0.2-0.4-0.2-0.6c0-0.3,0.2-0.6,0.5-0.6c0.2,0,0.3,0.1,0.4,0.2
		c0.1,0.1,0.1,0.2,0.1,0.4C69.7,44.3,69.6,44.5,69.5,44.7 M73.9,46.6c0-0.1,0-0.1,0.1-0.1c0.1,0,0.1,0,0.2,0.1l0.2-0.2
		c-0.1-0.1-0.2-0.2-0.3-0.2c-0.2,0-0.4,0.2-0.4,0.4c0,0.1,0,0.1,0.1,0.2h-0.3l-0.1,0.3h1.1v-0.3h-0.2C74,46.8,73.9,46.7,73.9,46.6
		 M75.4,46.8H76v-0.6h-0.6V46.8z M76,43.5c0,0.2,0,0.4,0,0.6c0,0.2,0,0.4,0,0.6c0,0.3-0.2,0.4-0.4,0.4h-0.6v0h-0.5
		c-0.2,0-0.3-0.2-0.3-0.4l0-3.1h-0.7l0,3.3c0,0.2,0.1,0.4,0.2,0.6c0.1,0.1,0.3,0.2,0.4,0.2h0.7v0h1c0.5,0,0.8-0.3,0.8-0.8
		c0,0,0-0.5,0-1.5L76,43.5L76,43.5z M91.9,42.3h-0.6V43h0.6V42.3z M91.9,43.5h-0.7c0,0.2,0,0.4,0,0.6c0,0.2,0,0.4,0,0.6
		c0,0.3-0.2,0.4-0.4,0.4h-0.7v0h-0.9c-0.2,0-0.3,0-0.4-0.1c0.4-0.4,0.8-0.8,1.1-1.3c-0.4-0.4-1.1-0.7-1.8-0.7
		c-0.6,0-1.1,0.2-1.6,0.5v0.5c0.5,0,0.9,0.3,1.4,0.9c-0.2,0.1-0.5,0.2-0.7,0.2h-1.5c0-0.3-0.1-0.6-0.3-0.8c-0.2-0.2-0.5-0.4-0.9-0.4
		c-0.7,0-1.2,0.5-1.2,1.2h-0.4v0h-0.6c-0.3,0-0.5-0.3-0.5-0.6l0-3h-0.7l0,3.7c0,0.6-0.5,1.1-1,1.1c-0.3,0-0.5-0.1-0.7-0.3
		c-0.3-0.4-0.3-0.5-0.3-1.4l0-0.7h-0.7c0,0,0,1.2,0,1.3c0,1,0.8,1.8,1.7,1.8c0.9,0,1.7-0.8,1.7-1.7c0.1,0.2,0.3,0.4,0.6,0.4h0.4h0.7
		c0.2,0.4,0.6,0.6,1,0.6c0.5,0,0.8-0.2,1-0.6h1.6c0.3,0,0.7-0.1,1.1-0.3c0.2,0.2,0.4,0.3,0.6,0.3h1.3v0h0.9c0.5,0,0.8-0.3,0.8-0.8
		C92,45,91.9,44.5,91.9,43.5 M84.6,45.8c-0.1,0-0.3-0.1-0.3-0.2c-0.1-0.1-0.2-0.3-0.2-0.5c0-0.2,0-0.4,0.1-0.5
		c0.1-0.1,0.2-0.2,0.3-0.2c0.1,0,0.3,0.1,0.3,0.2C85,44.8,85,45,85,45.2C85,45.6,84.8,45.8,84.6,45.8 M88.4,44.7
		c-0.3-0.4-0.7-0.7-1-0.8c0.2-0.1,0.4-0.1,0.7-0.1c0.4,0,0.7,0.1,0.9,0.3C88.9,44.3,88.7,44.5,88.4,44.7"/>
	<path class="st1" d="M14.8,14.2c2.6,0.3,6.2,1.9,8.3,4.3c-2.8-3.5-6.7-5.9-10.4-6c-6-0.2-9.4,5.6-7.5,12.9c0.3,1,0.6,2,1,3
		c0.6,1.5,1.4,3,2.5,4.4c0.7,1,1.5,1.9,2.3,2.7c-0.6-0.6-1.1-1.3-1.6-2c-4.9-6.6-4.3-14,1.6-16.1c2.6-0.9,5.9-0.5,9.1,0.5
		c-2.9-2.1-6.5-3.3-10.5-2c-1.5,0.5-2.6,1.4-3.3,2.6C7.5,15.4,10.3,13.6,14.8,14.2"/>
	<path class="st0" d="M27.7,27.9L27.7,27.9c3.5,5.8,4.2,11.8,1.9,14.9c-3.1,4.3-11.3,1.9-18.3-5.3c-6.8-7.1-9.9-16.2-7.1-20.7
		C4.2,17,4.1,17,4.1,17.1c-3.4,4.6,0,14.7,7.4,22.4c7.4,7.8,16.2,10.3,19.6,5.7C33.7,41.6,32.2,34.6,27.7,27.9"/>
	<path class="st0" d="M26.1,25.1c0.9,1.1,1.2,2.3,0.6,2.8c-0.5,0.5-1.7,0-2.6-1.1c-0.9-1.1-1.2-2.3-0.6-2.8
		C24.1,23.5,25.2,24,26.1,25.1"/>
	<path class="st1" d="M101.5,24.1c-0.4-0.3-0.8-0.7-1.3-1c1-0.3,1.8-0.5,2.3-0.7c0.1-0.4,0.2-0.8,0.3-1.2l-3.4,1
		c-0.1,0.2-0.1,0.5-0.2,0.7c-0.1,0.3-0.1,0.5-0.1,0.7c0,0.1,0.1,0.2,0.4,0.5c0.3,0.3,0.4,0.4,0.5,0.4c0.1,0,0.1,0,0.2-0.1l1.2,0.9
		h-2.7c-0.3,0-0.4-0.1-0.5-0.3c-0.1-0.3-0.2-0.8-0.3-1.5c-0.1-0.8-0.2-1.4-0.3-1.6l-0.1,0L96.9,23c0,0.1,0.1,0.2,0.1,0.3
		c-0.4,0.2-0.8,0.4-1.2,0.7c-0.3,0.2-0.5,0.4-0.6,0.6c-0.1,0.2-0.3,0.7-0.4,1.3l1.9,0.3c0.1,0,0.2-0.1,0.4-0.4
		c0.2-0.3,0.3-0.5,0.3-0.5c0.1,0.2,0.1,0.5,0.2,0.7c0.1,0.3,0.3,0.4,0.5,0.4h3.9c0.2-0.7,0.3-1.2,0.3-1.3
		C102.4,25,102.1,24.6,101.5,24.1 M96.2,24.7c0.2-0.1,0.3-0.2,0.4-0.3c0.2-0.2,0.4-0.4,0.5-0.5l0.2,1L96.2,24.7z M69.8,23.1
		l-0.6,1.1c0.3,0.4,0.5,0.8,0.7,1.2H67c-0.3,0-0.4-0.1-0.5-0.3c-0.1-0.3-0.2-0.8-0.3-1.5c-0.1-0.8-0.2-1.4-0.3-1.6l-0.1,0L65.2,23
		c0,0.1,0.1,0.2,0.1,0.3c-0.4,0.2-0.8,0.4-1.2,0.7c-0.3,0.2-0.5,0.4-0.6,0.6c-0.1,0.2-0.3,0.7-0.4,1.3l1.9,0.3
		c0.1,0,0.2-0.1,0.4-0.4c0.2-0.3,0.3-0.5,0.3-0.5c0.1,0.2,0.1,0.5,0.2,0.7c0.1,0.3,0.3,0.4,0.5,0.4h3.9c0.2-0.8,0.2-1.4,0.2-1.7
		C70.6,24.3,70.3,23.7,69.8,23.1 M64.5,24.7c0.2-0.1,0.3-0.2,0.4-0.3c0.2-0.2,0.4-0.4,0.5-0.5l0.2,1L64.5,24.7z M69,27.5
		c-0.1,0.1-0.2,0.2-0.3,0.2c-0.1,0-0.3-0.1-0.8-0.5c-0.2,0.2-0.4,0.5-0.6,0.7c0.2,0.2,0.4,0.3,0.8,0.5c0.2-0.2,0.4-0.4,0.5-0.5
		l0.8,0.5c0.2-0.2,0.4-0.4,0.6-0.7l-0.8-0.5C69.2,27.2,69.1,27.3,69,27.5 M59.3,21.7c0-0.1-0.1-0.2-0.1-0.4l-0.1-0.1
		c-0.2,0.3-0.5,0.7-0.8,1.3c0.1,0.1,0.2,0.3,0.3,0.3c0.1,0.2,0.1,0.5,0.2,1.1c0.1,0.6,0.1,1,0.1,1.2c0,0,0,0.1,0,0.1h-0.8
		c-0.2,0-0.3,0-0.3,0c-0.1,0-0.2-0.1-0.2-0.2c0-0.3-0.1-0.9-0.1-1.9c0-0.8-0.1-1.4-0.3-1.9l0,0l-0.8,1.2l0.4,2.9h-1.1v0h-0.2
		c-0.3,0-0.7-0.3-1.3-0.9c-0.4-0.4-0.8-0.9-1.1-1.3l2.4-0.5c0.1-0.4,0.2-0.8,0.3-1.2c-0.1,0-1.2,0.2-3.2,0.6
		c-0.2,0.5-0.3,1.1-0.4,1.6l1.7,1.6h-1.7v0h-1c0.1-0.3,0.2-0.6,0.4-0.8c0.2-0.4,0.2-0.7,0.2-0.9V23c-0.3,0-0.7,0.2-1.1,0.6
		c-0.4,0.3-0.6,0.6-0.8,1c-0.1,0.3-0.3,0.6-0.3,0.8H49c-0.4,0-0.8-0.2-1-0.5c-0.2-0.3-0.4-0.6-0.6-1c-0.1,0.1-0.2,0.3-0.3,0.5
		c-0.2,0.3-0.3,0.5-0.3,0.5c0,0,0.1,0.2,0.3,0.4c0.2,0.3,0.3,0.5,0.3,0.6c0,0.3-0.3,0.6-0.9,1c-0.6,0.4-1,0.6-1.3,0.6
		c-0.2,0-0.4-0.1-0.7-0.2c-0.3-0.1-0.4-0.2-0.4-0.2c0,0-0.1,0-0.1,0v0.1c0.2,0.2,0.5,0.4,1,0.7c0.5,0.3,0.9,0.4,1.2,0.4
		c0.4,0,0.8-0.2,1.1-0.7c0.2-0.4,0.4-0.8,0.7-1.2l0.1-0.1c0.2,0.1,0.3,0.1,0.4,0.1h0.8c0,0,0.1,0.1,0.2,0.4c0.2,0.3,0.3,0.6,0.5,0.7
		c0.2,0.3,0.4,0.4,0.7,0.4c0.6,0,1-0.5,1.4-1.5h2l0.4-0.7l0.8,0.7h0.9v0h0.5l0.4-0.7c0,0.1,0,0.3,0,0.4c0,0.2,0.1,0.3,0.2,0.3h2.2
		c0.1,0,0.2-0.1,0.2-0.1c0-0.1,0.1-0.3,0.2-0.6c0.1-0.4,0.1-0.6,0.1-0.7l-0.1-1.5l0.8-1.1c-0.2-0.1-0.4-0.2-0.7-0.4
		C59.5,21.9,59.3,21.8,59.3,21.7 M51.2,26.9H51c-0.2,0-0.4-0.1-0.5-0.2c-0.2-0.1-0.3-0.3-0.4-0.4c0.2,0,0.4,0,0.7,0.1
		C51,26.5,51.2,26.6,51.2,26.9L51.2,26.9L51.2,26.9z M50.9,24.8c-0.2,0.1-0.5,0.2-0.7,0.3h-0.1c0.4-0.6,0.8-1,1.1-1.1
		c0,0.1,0,0.1,0,0.2C51.2,24.5,51.1,24.7,50.9,24.8 M110.3,26.5h1.4c0.1-0.1,0.2-0.2,0.2-0.3c0.1,0.1,0.1,0.2,0.1,0.3h1.9
		c0.1,0,0.2-0.1,0.2-0.1c0-0.1,0.1-0.3,0.2-0.6c0.1-0.4,0.1-0.6,0.1-0.7l-0.1-1.5l0.8-1.1c-0.2-0.1-0.4-0.2-0.7-0.4
		c-0.3-0.2-0.5-0.4-0.6-0.5c0-0.1-0.1-0.2-0.1-0.4l-0.1-0.1c-0.2,0.3-0.5,0.7-0.8,1.3c0.1,0.1,0.2,0.3,0.3,0.3
		c0.1,0.2,0.1,0.5,0.2,1.1c0.1,0.6,0.1,1,0.1,1.2c0,0,0,0.1,0,0.1h-1c-0.3,0-0.5-0.2-0.5-0.7c0,0,0-0.1,0-0.2c0-0.1,0-0.1,0-0.2
		c0-0.2,0-0.3,0-0.5c-0.1,0.1-0.2,0.2-0.4,0.4c-0.2,0.2-0.3,0.4-0.3,0.5c0,0,0,0.1,0,0.2c0,0.1,0,0.1,0,0.2c0,0,0,0.1-0.1,0.1
		c-0.5,0-0.8,0-0.8,0c0.1-0.5,0.2-1,0.2-1.4c0,0,0-0.1,0-0.1c-0.1,0.1-0.3,0.3-0.5,0.5c-0.2,0.3-0.3,0.5-0.3,0.6
		c0,0.2,0,0.3-0.1,0.4h-1c0.2-0.6,0.3-1,0.3-1.2l0-0.3c-0.1,0-0.3,0.2-0.5,0.4c-0.2,0.2-0.3,0.4-0.3,0.5c0,0.2,0,0.4-0.1,0.6h-1.1
		c-0.4,0-0.8-0.2-1-0.5c-0.2-0.3-0.4-0.6-0.6-1c-0.1,0.1-0.2,0.3-0.4,0.5c-0.2,0.3-0.3,0.5-0.3,0.5c0,0,0.1,0.2,0.3,0.4
		c0.2,0.3,0.3,0.5,0.3,0.6c0,0.3-0.3,0.6-0.9,1c-0.6,0.4-1,0.6-1.4,0.6c-0.2,0-0.4-0.1-0.7-0.2c-0.3-0.1-0.4-0.2-0.4-0.2
		c0,0-0.1,0-0.1,0v0.1c0.2,0.2,0.5,0.4,1,0.7c0.5,0.2,0.9,0.4,1.2,0.4c0.4,0,0.8-0.2,1.1-0.7c0.2-0.4,0.4-0.8,0.7-1.2l0.1-0.1
		c0.2,0.1,0.3,0.1,0.4,0.1h1.4c0.1,0,0.1,0,0.2-0.1c0.1-0.1,0.1-0.1,0.2-0.2c0.1,0.1,0.1,0.2,0.1,0.3h1.3c0,0,0.1,0,0.1-0.1
		c0.1-0.1,0.1-0.1,0.1-0.1C110.2,26.3,110.2,26.4,110.3,26.5 M43.5,27.9c0-0.1-0.1-0.2-0.4-0.4c-0.3-0.2-0.4-0.4-0.5-0.4
		c0,0-0.2,0.1-0.4,0.4c-0.2,0.2-0.4,0.4-0.4,0.4c0,0,0.1,0.2,0.4,0.4c0.2,0.2,0.4,0.3,0.5,0.3C43.2,28.2,43.5,28,43.5,27.9
		 M35.4,26.2c0.2,0.1,0.4,0.1,0.6,0.2c-0.2,0.1-0.4,0.3-0.6,0.4c-0.2,0.2-0.3,0.4-0.3,0.6v0.1c0.7-0.7,1.6-1,2.6-1
		c0.2-0.3,0.5-0.6,0.6-0.9c-1.4,0-2.2-0.1-2.5-0.4c0.2-0.2,0.4-0.3,0.6-0.3c0.1,0,0.3,0,0.4,0.1c0.1,0.1,0.2,0.2,0.4,0.2
		c0.3-0.5,0.5-0.7,0.5-0.8c0-0.2-0.1-0.3-0.2-0.4c-0.1-0.1-0.3-0.2-0.5-0.2c-0.5,0-0.9,0.2-1.3,0.6c-0.4,0.4-0.6,0.8-0.6,1.3
		C35,26,35.2,26.2,35.4,26.2 M88.8,26.4c0-0.1,0.1-0.3,0.2-0.6c0.1-0.4,0.1-0.6,0.1-0.7l-0.1-1.5l0.8-1.1c-0.2-0.1-0.4-0.2-0.7-0.4
		c-0.3-0.2-0.5-0.4-0.6-0.5c0-0.1-0.1-0.2-0.1-0.4l-0.1-0.1c-0.2,0.3-0.5,0.7-0.8,1.3c0.1,0.1,0.2,0.3,0.3,0.3
		c0.1,0.2,0.1,0.5,0.2,1.1c0.1,0.6,0.1,1,0.1,1.2c0,0,0,0.1,0,0.1h-1c-0.3,0-0.5-0.2-0.5-0.7c0,0,0-0.1,0-0.2c0-0.1,0-0.1,0-0.2
		c0-0.2,0-0.3,0-0.5c-0.1,0.1-0.2,0.2-0.4,0.4c-0.2,0.2-0.3,0.4-0.3,0.5c0,0,0,0.1,0,0.2c0,0.1,0,0.1,0,0.2c0,0,0,0.1-0.1,0.1
		c-0.5,0-0.8,0-0.8,0c0.1-0.5,0.2-1,0.2-1.4c0,0,0-0.1,0-0.1c-0.1,0.1-0.3,0.3-0.5,0.5c-0.2,0.3-0.3,0.5-0.3,0.6
		c0,0.2,0,0.3-0.1,0.4h-0.9c0.2-0.6,0.3-1,0.3-1.2l0-0.3c-0.1,0-0.3,0.2-0.5,0.4c-0.2,0.2-0.3,0.4-0.3,0.5c0,0.2,0,0.4-0.1,0.6h-1.6
		c0.1-0.1,0.2-0.3,0.2-0.4c0.1-0.2,0.1-0.3,0.1-0.4c0-0.3-0.2-0.6-0.5-0.8c-0.3-0.2-0.6-0.3-0.9-0.3c-0.5,0-0.9,0.1-1.1,0.4
		c-0.1,0.1-0.3,0.5-0.6,1c0.2,0,0.4,0,0.4,0c0.3,0,0.6,0.2,0.8,0.5h-2c-0.2-1.2-0.5-1.9-1-1.9c-0.3,0-0.6,0.3-0.9,0.9
		c-0.3,0.5-0.4,1-0.4,1.3c0,0.3,0.2,0.5,0.5,0.7c0,0,0.4,0.1,0.9,0.2c-0.3,0.2-0.6,0.5-0.9,0.7c-0.4,0.2-0.8,0.3-1.1,0.3
		c-0.1,0-0.3,0-0.5-0.1c-0.2-0.1-0.4-0.1-0.5-0.1c0,0-0.1,0-0.1,0v0.1c0.2,0.2,0.5,0.4,0.9,0.6c0.4,0.2,0.7,0.2,1,0.2
		c0.4,0,0.8-0.2,1.1-0.6c0.3-0.3,0.5-0.7,0.7-1.1H80c0.2-0.2,0.3-0.4,0.3-0.5c0.1,0.2,0.2,0.4,0.3,0.5h2c0.1,0,0.1,0,0.2-0.1
		c0.1-0.1,0.1-0.1,0.2-0.2c0.1,0.1,0.1,0.2,0.1,0.3h1.3c0,0,0.1,0,0.1-0.1c0.1-0.1,0.1-0.1,0.1-0.1c0,0,0.1,0.1,0.2,0.2h1.4
		c0.1-0.1,0.2-0.2,0.2-0.3c0.1,0.1,0.1,0.2,0.1,0.3h1.9C88.7,26.4,88.7,26.4,88.8,26.4 M76.8,25.3c-0.3,0-0.5-0.1-0.6-0.3
		c0,0,0,0,0,0c0-0.1,0-0.1,0.1-0.2c0.1-0.1,0.2-0.1,0.2-0.1c0.1,0,0.2,0.1,0.3,0.3c0,0,0.1,0.2,0.2,0.4C77,25.3,76.9,25.3,76.8,25.3
		 M110.2,22.8l0.9,0.5c0.4-0.2,0.6-0.5,0.7-0.7l-0.9-0.5c-0.1,0.1-0.2,0.2-0.3,0.3c-0.2,0.1-0.3,0.2-0.3,0.2c-0.1,0-0.4-0.2-0.8-0.5
		c-0.3,0.3-0.6,0.5-0.7,0.7c0.5,0.3,0.9,0.5,0.9,0.5C109.7,23.3,109.8,23.1,110.2,22.8 M44.1,26.5c0.2,0,0.3-0.5,0.3-1.6
		c0-0.3-0.1-0.7-0.2-1.1c-0.1-0.4-0.4-0.6-0.6-0.8l-0.6,1.1c0.1,0.1,0.3,0.3,0.4,0.6c0.2,0.3,0.2,0.5,0.2,0.6c0,0,0,0,0,0h-2.4
		c-0.2,0-0.3-0.1-0.3-0.2c-0.1-0.4-0.2-1-0.2-1.9c0-0.6-0.1-1.3-0.1-2c-0.1,0.1-0.2,0.2-0.4,0.5c-0.2,0.3-0.3,0.4-0.3,0.5l0.4,4.2
		L44.1,26.5L44.1,26.5z M117.2,24.8c0-0.6-0.1-1.6-0.3-3c-0.4,0.5-0.7,1-0.8,1.4l0.5,3.5C117,26.1,117.2,25.5,117.2,24.8 M95.8,21.9
		c0.5,0.3,0.8,0.5,0.9,0.5c0,0,0.2-0.1,0.3-0.3c0.2-0.2,0.3-0.3,0.3-0.4l-0.9-0.5c-0.4,0.3-0.6,0.4-0.6,0.4c-0.1,0-0.4-0.2-0.8-0.4
		c-0.4,0.4-0.6,0.6-0.6,0.7c0.4,0.2,0.7,0.4,0.9,0.5C95.6,22.1,95.8,22,95.8,21.9 M109.8,22c0.2,0.2,0.3,0.2,0.3,0.2
		c0.1,0,0.2-0.1,0.4-0.2c0.1-0.1,0.2-0.2,0.3-0.3c-0.4-0.4-0.6-0.6-0.7-0.6c-0.4,0.3-0.6,0.5-0.6,0.6
		C109.5,21.7,109.6,21.8,109.8,22 M64.1,21.9c0.5,0.3,0.8,0.5,0.9,0.5c0,0,0.2-0.1,0.3-0.3c0.2-0.2,0.3-0.3,0.3-0.4l-0.9-0.5
		c-0.4,0.3-0.6,0.4-0.6,0.4c-0.1,0-0.4-0.2-0.8-0.4c-0.4,0.4-0.6,0.6-0.6,0.7c0.4,0.2,0.7,0.4,0.9,0.5C63.9,22.1,64.1,22,64.1,21.9
		 M74.1,25.3c0-1.1-0.5-2-1.6-2.5L72.1,24c0.2,0,0.5,0.2,0.8,0.5c0.3,0.3,0.5,0.6,0.5,0.7c0,0,0,0,0,0h-2.1l-0.1,1.2h2.6
		C74,26.5,74.1,26.1,74.1,25.3 M91.8,24.8c0-0.6-0.1-1.6-0.3-3c-0.4,0.5-0.7,1-0.8,1.4l0.5,3.5C91.6,26.1,91.8,25.5,91.8,24.8
		 M51.3,37.5h0.9v-3.4h-0.9V37.5z M49.5,34.5c-0.3-0.3-0.6-0.5-1-0.5c-0.4,0-0.8,0.2-1,0.4c-0.3,0.3-0.4,0.7-0.4,1.3
		c0,0.6,0.1,1,0.4,1.3c0.3,0.3,0.6,0.5,1,0.5c0.2,0,0.4-0.1,0.6-0.2c0.2-0.1,0.3-0.2,0.5-0.4v0.5h0.8v-4.7h-0.9V34.5z M49.3,36.6
		c-0.1,0.2-0.3,0.3-0.5,0.3c-0.3,0-0.5-0.1-0.6-0.4C48,36.4,48,36.1,48,35.7c0-0.3,0.1-0.6,0.2-0.8c0.1-0.2,0.3-0.3,0.5-0.3
		c0.2,0,0.4,0.1,0.5,0.3c0.1,0.2,0.2,0.5,0.2,0.8C49.5,36.2,49.4,36.4,49.3,36.6 M42.4,36.4l0-1c0-0.4,0-0.7-0.1-0.8
		c-0.1-0.1-0.2-0.3-0.4-0.4C41.7,34.1,41.4,34,41,34c-0.4,0-0.8,0.1-1,0.2c-0.2,0.2-0.4,0.4-0.5,0.7l0.8,0.1
		c0.1-0.2,0.1-0.3,0.2-0.3c0.1-0.1,0.2-0.1,0.4-0.1c0.2,0,0.4,0,0.5,0.1c0.1,0.1,0.1,0.2,0.1,0.4v0.1c-0.2,0.1-0.5,0.1-0.9,0.2
		c-0.3,0.1-0.5,0.1-0.7,0.2c-0.2,0.1-0.3,0.2-0.4,0.3c-0.1,0.2-0.1,0.3-0.1,0.5c0,0.3,0.1,0.5,0.3,0.7c0.2,0.2,0.5,0.3,0.8,0.3
		c0.2,0,0.4,0,0.6-0.1c0.2-0.1,0.3-0.2,0.5-0.3c0,0,0,0.1,0,0.1c0,0.1,0.1,0.2,0.1,0.3h0.9c-0.1-0.2-0.1-0.3-0.2-0.5
		C42.4,36.9,42.4,36.7,42.4,36.4 M41.5,36c0,0.2,0,0.4,0,0.4c0,0.1-0.1,0.2-0.2,0.3c-0.1,0.1-0.3,0.2-0.5,0.2c-0.1,0-0.3,0-0.4-0.1
		c-0.1-0.1-0.1-0.2-0.1-0.3c0-0.1,0.1-0.2,0.2-0.3c0.1-0.1,0.2-0.1,0.5-0.2c0.2-0.1,0.4-0.1,0.5-0.1L41.5,36L41.5,36z M51.3,33.6
		h0.9v-0.8h-0.9V33.6z M38.1,34.9c-0.2-0.1-0.6-0.2-1-0.3c-0.5-0.1-0.8-0.2-0.9-0.3c-0.1-0.1-0.1-0.2-0.1-0.3c0-0.1,0.1-0.2,0.2-0.3
		c0.2-0.1,0.4-0.2,0.6-0.2c0.3,0,0.5,0.1,0.6,0.2c0.1,0.1,0.2,0.3,0.3,0.5l0.9,0c0-0.4-0.2-0.8-0.5-1c-0.3-0.3-0.7-0.4-1.3-0.4
		c-0.4,0-0.7,0.1-0.9,0.2c-0.3,0.1-0.4,0.3-0.6,0.5c-0.1,0.2-0.2,0.4-0.2,0.7c0,0.4,0.1,0.7,0.4,0.9c0.2,0.2,0.6,0.3,1.1,0.5
		c0.4,0.1,0.6,0.2,0.8,0.2c0.2,0.1,0.3,0.1,0.3,0.2c0.1,0.1,0.1,0.2,0.1,0.3c0,0.2-0.1,0.3-0.2,0.5c-0.2,0.1-0.4,0.2-0.7,0.2
		c-0.3,0-0.5-0.1-0.7-0.2c-0.2-0.1-0.3-0.4-0.3-0.7L35,36c0.1,0.5,0.2,0.9,0.6,1.2c0.3,0.3,0.8,0.4,1.4,0.4c0.4,0,0.7-0.1,1-0.2
		c0.3-0.1,0.5-0.3,0.6-0.5c0.1-0.2,0.2-0.5,0.2-0.8c0-0.3-0.1-0.5-0.2-0.7C38.5,35.2,38.4,35,38.1,34.9 M115.5,36.5l-0.8-2.4h-0.9
		l1.3,3.4c-0.1,0.2-0.1,0.3-0.2,0.5c-0.1,0.1-0.3,0.2-0.5,0.2c-0.1,0-0.2,0-0.4,0l0.1,0.7c0.2,0,0.3,0,0.5,0c0.2,0,0.3,0,0.5,0
		c0.1,0,0.3-0.1,0.3-0.2c0.1-0.1,0.2-0.2,0.2-0.3c0.1-0.1,0.1-0.2,0.2-0.5l0.2-0.6l1.2-3.3h-0.9L115.5,36.5z M45.5,35.5
		c0,0.5,0,0.8-0.1,0.9c0,0.1-0.1,0.2-0.3,0.3c-0.1,0.1-0.3,0.1-0.4,0.1c-0.1,0-0.2,0-0.3-0.1c-0.1-0.1-0.1-0.1-0.2-0.2
		c0-0.1,0-0.4,0-0.9v-1.6h-0.9v2.2c0,0.3,0,0.6,0.1,0.8c0.1,0.2,0.2,0.3,0.4,0.4c0.2,0.1,0.4,0.2,0.6,0.2c0.2,0,0.4-0.1,0.6-0.2
		c0.2-0.1,0.4-0.3,0.5-0.4v0.5h0.8v-3.4h-0.9L45.5,35.5L45.5,35.5z M73.2,33.6h0.9v-0.8h-0.9V33.6z M78.6,33.6h0.9v-0.8h-0.9V33.6z
		 M83.9,36.5l-0.8-2.4h-0.9l1.3,3.4c-0.1,0.2-0.1,0.3-0.2,0.5c-0.1,0.1-0.2,0.2-0.5,0.2c-0.1,0-0.2,0-0.4,0l0.1,0.7
		c0.2,0,0.3,0,0.5,0c0.2,0,0.3,0,0.5,0c0.1,0,0.3-0.1,0.3-0.2c0.1-0.1,0.2-0.2,0.2-0.3c0.1-0.1,0.2-0.2,0.2-0.5l0.2-0.6l1.2-3.3
		h-0.9L83.9,36.5z M81.6,36.8c-0.1,0-0.1,0-0.2,0c0,0-0.1-0.1-0.1-0.1c0,0,0-0.2,0-0.5v-1.4h0.6v-0.7h-0.6v-1.2l-0.9,0.5v0.7H80v0.7
		h0.4v1.5c0,0.3,0,0.5,0,0.6c0,0.1,0.1,0.3,0.1,0.4c0.1,0.1,0.2,0.2,0.3,0.2c0.1,0.1,0.3,0.1,0.4,0.1c0.3,0,0.5-0.1,0.7-0.1
		l-0.1-0.7C81.8,36.8,81.7,36.8,81.6,36.8 M78.6,37.5h0.9v-3.4h-0.9V37.5z M76.8,36.7c-0.1,0.1-0.2,0.1-0.4,0.1
		c-0.2,0-0.4-0.1-0.5-0.3c-0.1-0.2-0.2-0.5-0.2-0.9c0-0.4,0.1-0.6,0.2-0.8c0.1-0.2,0.3-0.2,0.5-0.2c0.2,0,0.3,0,0.4,0.1
		c0.1,0.1,0.2,0.2,0.2,0.4l0.9-0.2c-0.1-0.4-0.3-0.6-0.5-0.8c-0.2-0.2-0.6-0.3-1-0.3c-0.5,0-0.9,0.2-1.2,0.5
		c-0.3,0.3-0.4,0.8-0.4,1.3c0,0.6,0.2,1,0.4,1.3c0.3,0.3,0.7,0.5,1.2,0.5c0.4,0,0.8-0.1,1-0.3c0.3-0.2,0.4-0.5,0.5-0.9L77,36.2
		C77,36.4,76.9,36.6,76.8,36.7 M104.4,34c-0.2,0-0.4,0.1-0.6,0.2c-0.2,0.1-0.3,0.2-0.4,0.4v-0.5h-0.8v4.7h0.9v-1.7
		c0.2,0.2,0.3,0.3,0.5,0.4c0.2,0.1,0.3,0.1,0.5,0.1c0.4,0,0.7-0.2,1-0.5c0.3-0.3,0.4-0.8,0.4-1.3c0-0.6-0.1-1-0.4-1.3
		C105.2,34.2,104.8,34,104.4,34 M104.7,36.6c-0.1,0.2-0.3,0.2-0.5,0.2c-0.2,0-0.4-0.1-0.6-0.3c-0.1-0.2-0.2-0.5-0.2-0.9
		c0-0.3,0.1-0.6,0.2-0.8c0.1-0.2,0.3-0.3,0.6-0.3c0.2,0,0.4,0.1,0.5,0.3c0.1,0.2,0.2,0.4,0.2,0.8C104.9,36.2,104.9,36.4,104.7,36.6
		 M101.2,34.2c-0.2-0.1-0.4-0.2-0.6-0.2c-0.2,0-0.4,0-0.6,0.1c-0.2,0.1-0.3,0.2-0.5,0.4c-0.1-0.2-0.2-0.3-0.4-0.4
		C99,34.1,98.8,34,98.6,34c-0.4,0-0.8,0.2-1.1,0.5v-0.5h-0.8v3.4h0.9v-1.7c0-0.3,0-0.6,0.1-0.7c0.1-0.1,0.1-0.2,0.2-0.3
		c0.1-0.1,0.2-0.1,0.4-0.1c0.1,0,0.2,0,0.3,0.1c0.1,0,0.1,0.1,0.1,0.2c0,0.1,0,0.3,0,0.6v1.9h0.9v-1.6c0-0.3,0-0.6,0.1-0.7
		c0-0.1,0.1-0.3,0.2-0.3c0.1-0.1,0.2-0.1,0.4-0.1c0.2,0,0.3,0.1,0.4,0.2c0.1,0.1,0.1,0.3,0.1,0.7v1.9h0.9v-2.2c0-0.3,0-0.6-0.1-0.7
		C101.5,34.4,101.4,34.3,101.2,34.2 M94.3,34c-0.3,0-0.6,0.1-0.9,0.2c-0.3,0.1-0.5,0.4-0.6,0.6c-0.1,0.3-0.2,0.6-0.2,0.9
		c0,0.4,0.1,0.7,0.2,1c0.1,0.3,0.4,0.5,0.6,0.6c0.3,0.1,0.6,0.2,0.9,0.2c0.5,0,0.9-0.2,1.3-0.5c0.3-0.3,0.5-0.8,0.5-1.3
		c0-0.5-0.2-0.9-0.5-1.3C95.2,34.2,94.8,34,94.3,34 M94.9,36.6c-0.2,0.2-0.4,0.3-0.6,0.3c-0.2,0-0.4-0.1-0.6-0.3
		c-0.2-0.2-0.2-0.4-0.2-0.8c0-0.3,0.1-0.6,0.2-0.8c0.2-0.2,0.4-0.3,0.6-0.3c0.2,0,0.4,0.1,0.6,0.3c0.2,0.2,0.2,0.4,0.2,0.8
		C95.1,36.1,95,36.4,94.9,36.6 M90.6,36.5c-0.2,0.2-0.4,0.2-0.6,0.2c-0.3,0-0.6-0.1-0.8-0.4c-0.2-0.2-0.3-0.7-0.3-1.3
		c0-0.6,0.1-1,0.3-1.2c0.2-0.2,0.5-0.4,0.8-0.4c0.3,0,0.5,0.1,0.6,0.2c0.2,0.1,0.3,0.3,0.3,0.6l0.9-0.2c-0.1-0.4-0.3-0.7-0.5-0.9
		c-0.4-0.3-0.8-0.5-1.4-0.5c-0.7,0-1.2,0.2-1.6,0.7c-0.4,0.4-0.6,1-0.6,1.8c0,0.7,0.2,1.3,0.6,1.7c0.4,0.4,0.9,0.6,1.5,0.6
		c0.5,0,0.9-0.1,1.3-0.4c0.3-0.3,0.6-0.6,0.7-1.2L91,35.8C91,36.1,90.8,36.4,90.6,36.5 M63.6,34.5c-0.3-0.3-0.7-0.5-1.2-0.5
		c-0.5,0-0.8,0.2-1.1,0.5c-0.3,0.3-0.4,0.8-0.4,1.3c0,0.5,0.1,0.9,0.3,1.2c0.3,0.4,0.7,0.6,1.3,0.6c0.4,0,0.7-0.1,0.9-0.3
		c0.2-0.2,0.4-0.4,0.5-0.8l-0.9-0.1c0,0.2-0.1,0.3-0.2,0.4c-0.1,0.1-0.2,0.1-0.4,0.1c-0.2,0-0.4-0.1-0.5-0.2
		c-0.1-0.2-0.2-0.4-0.2-0.6H64C64,35.4,63.9,34.9,63.6,34.5 M61.8,35.5c0-0.2,0.1-0.4,0.2-0.6c0.1-0.1,0.3-0.2,0.5-0.2
		c0.2,0,0.3,0.1,0.5,0.2c0.1,0.1,0.2,0.3,0.2,0.6H61.8z M73.1,37.5H74v-3.4h-0.9V37.5z M113.1,34.4c-0.1-0.1-0.2-0.2-0.4-0.3
		c-0.2-0.1-0.3-0.1-0.5-0.1c-0.4,0-0.8,0.2-1.1,0.6v-0.5h-0.8v3.4h0.9V36c0-0.4,0-0.6,0.1-0.8c0-0.1,0.1-0.3,0.2-0.3
		c0.1-0.1,0.3-0.1,0.4-0.1c0.1,0,0.2,0,0.3,0.1c0.1,0.1,0.1,0.1,0.2,0.3c0,0.1,0.1,0.3,0.1,0.7v1.7h0.9v-2.1c0-0.3,0-0.5,0-0.6
		C113.2,34.6,113.1,34.5,113.1,34.4 M109.3,36.4l0-1c0-0.4,0-0.7-0.1-0.8c-0.1-0.1-0.2-0.3-0.4-0.4c-0.2-0.1-0.5-0.1-0.9-0.1
		c-0.4,0-0.8,0.1-1,0.2c-0.2,0.2-0.4,0.4-0.5,0.7l0.8,0.1c0.1-0.2,0.1-0.3,0.2-0.3c0.1-0.1,0.2-0.1,0.4-0.1c0.2,0,0.4,0,0.5,0.1
		c0.1,0.1,0.1,0.2,0.1,0.4v0.1c-0.2,0.1-0.5,0.1-0.9,0.2c-0.3,0.1-0.5,0.1-0.7,0.2c-0.2,0.1-0.3,0.2-0.4,0.3
		c-0.1,0.2-0.1,0.3-0.1,0.5c0,0.3,0.1,0.5,0.3,0.7c0.2,0.2,0.5,0.3,0.8,0.3c0.2,0,0.4,0,0.6-0.1c0.2-0.1,0.3-0.2,0.5-0.3
		c0,0,0,0.1,0,0.1c0,0.1,0.1,0.2,0.1,0.3h0.9c-0.1-0.2-0.1-0.3-0.2-0.5C109.3,36.9,109.3,36.7,109.3,36.4 M108.4,36
		c0,0.2,0,0.4,0,0.4c0,0.1-0.1,0.2-0.2,0.3c-0.2,0.1-0.3,0.2-0.5,0.2c-0.1,0-0.3,0-0.4-0.1c-0.1-0.1-0.1-0.2-0.1-0.3
		c0-0.1,0.1-0.2,0.2-0.3c0.1-0.1,0.2-0.1,0.5-0.2c0.2-0.1,0.4-0.1,0.5-0.1L108.4,36L108.4,36z M59.3,37.5h0.9v-4.7h-0.9V37.5z
		 M55.9,35.4h2.4v-0.8h-2.4v-1h2.5v-0.8h-3.5v4.7h3.6v-0.8h-2.6L55.9,35.4L55.9,35.4z M66.6,36.7c-0.1,0.1-0.2,0.1-0.4,0.1
		c-0.2,0-0.4-0.1-0.5-0.3c-0.1-0.2-0.2-0.5-0.2-0.9c0-0.4,0.1-0.6,0.2-0.8c0.1-0.2,0.3-0.2,0.5-0.2c0.2,0,0.3,0,0.4,0.1
		c0.1,0.1,0.2,0.2,0.2,0.4l0.9-0.2c-0.1-0.4-0.3-0.6-0.5-0.8c-0.2-0.2-0.6-0.3-1-0.3c-0.5,0-0.9,0.2-1.2,0.5
		c-0.3,0.3-0.4,0.8-0.4,1.3c0,0.6,0.1,1,0.4,1.3c0.3,0.3,0.7,0.5,1.2,0.5c0.4,0,0.8-0.1,1-0.3c0.3-0.2,0.4-0.5,0.5-0.9l-0.9-0.1
		C66.8,36.4,66.7,36.6,66.6,36.7 M71.7,34.1c-0.1,0.1-0.2,0.2-0.4,0.4v-0.5h-0.8v3.4h0.9v-1c0-0.6,0-1,0.1-1.1
		c0-0.2,0.1-0.3,0.2-0.4c0.1-0.1,0.2-0.1,0.3-0.1c0.1,0,0.3,0,0.4,0.1l0.3-0.8c-0.2-0.1-0.4-0.2-0.6-0.2C72,34,71.8,34.1,71.7,34.1
		 M69.6,36.8c-0.1,0-0.1,0-0.2,0c0,0-0.1-0.1-0.1-0.1c0,0,0-0.2,0-0.5v-1.4h0.6v-0.7h-0.6v-1.2l-0.9,0.5v0.7H68v0.7h0.4v1.5
		c0,0.3,0,0.5,0,0.6c0,0.1,0.1,0.3,0.1,0.4c0.1,0.1,0.2,0.2,0.3,0.2c0.1,0.1,0.3,0.1,0.4,0.1c0.3,0,0.5-0.1,0.7-0.1l-0.1-0.7
		C69.8,36.8,69.7,36.8,69.6,36.8"/>
</g>
</svg>
