<?xml version="1.0" encoding="utf-8"?>
<!-- Generator: Adobe Illustrator 25.4.1, SVG Export Plug-In . SVG Version: 6.00 Build 0)  -->
<svg version="1.1" id="Layer_1" xmlns="http://www.w3.org/2000/svg" xmlns:xlink="http://www.w3.org/1999/xlink" x="0px" y="0px"
	 viewBox="0 0 120 60" style="enable-background:new 0 0 120 60;" xml:space="preserve">
<style type="text/css">
	.st0{fill:#103557;}
	.st1{fill:#63BE6A;}
</style>
<g id="logo">
	<g id="Group_12176">
		<g id="Group_12175">
			<path id="Path_5189" class="st0" d="M5.5,37.7L5.5,37.7l-0.9-2.2H4v2.8h0.4V36h0l0.9,2.4h0.3L6.6,36h0v2.4H7v-2.8H6.3L5.5,37.7
				L5.5,37.7z"/>
			<rect id="Rectangle_2032" x="7.6" y="36.5" class="st0" width="0.4" height="1.9"/>
			<path id="Path_5190" class="st0" d="M7.8,35.5c-0.1,0-0.1,0-0.2,0.1c-0.1,0.1-0.1,0.2,0,0.3l0,0c0,0,0.1,0.1,0.2,0.1
				c0.1,0,0.1,0,0.2-0.1c0,0,0.1-0.1,0.1-0.2c0-0.1,0-0.1-0.1-0.2C7.9,35.6,7.9,35.5,7.8,35.5L7.8,35.5z"/>
			<path id="Path_5191" class="st0" d="M10.2,36.6c-0.1-0.1-0.1-0.1-0.2-0.2c-0.2-0.1-0.3-0.1-0.5,0c-0.1,0-0.1,0-0.2,0.1
				c-0.1,0-0.1,0.1-0.1,0.1c0,0-0.1,0.1-0.1,0.1h0c0,0,0-0.1,0-0.1c0-0.1,0-0.1,0-0.2H8.6c0,0.1,0,0.1,0,0.2c0,0.1,0,0.1,0,0.2v1.5
				H9v-1c0-0.2,0-0.3,0.1-0.5c0.1-0.1,0.2-0.2,0.4-0.2c0.1,0,0.1,0,0.2,0c0.1,0,0.1,0.1,0.1,0.1C9.9,37,10,37,10,37.1
				c0,0.1,0,0.1,0,0.2v1.1h0.4v-1.2c0-0.1,0-0.2,0-0.3C10.3,36.8,10.3,36.7,10.2,36.6z"/>
			<rect id="Rectangle_2033" x="11" y="36.5" class="st0" width="0.4" height="1.9"/>
			<path id="Path_5192" class="st0" d="M11.2,35.5c-0.1,0-0.1,0-0.2,0.1c-0.1,0.1-0.1,0.2,0,0.3l0,0c0,0,0.1,0.1,0.2,0.1
				c0.1,0,0.1,0,0.2-0.1c0,0,0.1-0.1,0.1-0.2c0-0.1,0-0.1-0.1-0.2C11.3,35.6,11.3,35.5,11.2,35.5L11.2,35.5z"/>
			<path id="Path_5193" class="st0" d="M13.2,37.4c-0.1,0-0.1-0.1-0.2-0.1c-0.1,0-0.2-0.1-0.3-0.1c-0.1,0-0.2-0.1-0.3-0.1
				c-0.1,0-0.1-0.1-0.1-0.2c0,0,0-0.1,0-0.1c0,0,0-0.1,0.1-0.1c0,0,0.1,0,0.1,0c0,0,0.1,0,0.1,0c0.1,0,0.2,0,0.3,0.1
				c0.1,0,0.1,0.1,0.2,0.2l0.3-0.2c-0.1-0.1-0.2-0.2-0.3-0.2c-0.1-0.1-0.3-0.1-0.4-0.1c-0.1,0-0.2,0-0.3,0c-0.1,0-0.2,0.1-0.2,0.1
				c-0.1,0-0.1,0.1-0.2,0.2c0,0.1-0.1,0.2-0.1,0.3c0,0.1,0,0.2,0.1,0.2c0,0.1,0.1,0.1,0.1,0.1c0.1,0,0.1,0.1,0.2,0.1
				c0.1,0,0.1,0,0.2,0.1c0.1,0,0.3,0.1,0.4,0.1c0.1,0,0.1,0.1,0.1,0.2c0,0,0,0.1,0,0.1c0,0-0.1,0.1-0.1,0.1c0,0-0.1,0-0.1,0
				c0,0-0.1,0-0.1,0c-0.1,0-0.2,0-0.3-0.1c-0.1,0-0.2-0.1-0.2-0.2l-0.3,0.2c0.1,0.1,0.2,0.2,0.3,0.3c0.1,0.1,0.3,0.1,0.4,0.1
				c0.1,0,0.2,0,0.3,0c0.1,0,0.2-0.1,0.2-0.1c0.1,0,0.1-0.1,0.2-0.2c0-0.1,0.1-0.2,0.1-0.3c0-0.1,0-0.1,0-0.2
				C13.3,37.5,13.2,37.5,13.2,37.4L13.2,37.4z"/>
			<path id="Path_5194" class="st0" d="M14.2,35.9h-0.4v0.5h-0.4v0.3h0.4v1c0,0.2,0,0.3,0.1,0.4c0.1,0.1,0.3,0.2,0.4,0.1
				c0.1,0,0.1,0,0.2,0c0.1,0,0.1,0,0.1,0l0-0.3c0,0-0.1,0-0.1,0c0,0-0.1,0-0.1,0c-0.1,0-0.1,0-0.2-0.1c0-0.1-0.1-0.2-0.1-0.2v-1h0.5
				v-0.3h-0.5L14.2,35.9C14.3,35.9,14.2,35.9,14.2,35.9z"/>
			<path id="Path_5195" class="st0" d="M15.7,36.5c-0.1,0.1-0.2,0.2-0.2,0.3h0c0,0,0-0.1,0-0.2c0-0.1,0-0.1,0-0.2h-0.4
				c0,0.1,0,0.1,0,0.2c0,0.1,0,0.1,0,0.2v1.5h0.4v-1c0-0.1,0-0.2,0-0.2c0-0.1,0.1-0.1,0.1-0.2s0.1-0.1,0.2-0.1
				c0.1,0,0.2-0.1,0.2-0.1c0.1,0,0.1,0,0.2,0l0-0.3c0,0-0.1,0-0.1,0C16,36.4,15.8,36.4,15.7,36.5L15.7,36.5z"/>
			<path id="Path_5196" class="st0" d="M17.3,38L17.3,38l-0.6-1.5h-0.4l0.8,1.9L17,38.7c0,0.1-0.1,0.2-0.1,0.2
				C16.8,39,16.7,39,16.6,39c-0.1,0-0.1,0-0.2,0l0,0.3c0,0,0.1,0,0.1,0c0,0,0.1,0,0.1,0c0.1,0,0.2,0,0.2,0c0.1,0,0.1-0.1,0.2-0.1
				s0.1-0.1,0.1-0.2c0-0.1,0.1-0.1,0.1-0.2l0.9-2.3h-0.4L17.3,38L17.3,38z"/>
			<path id="Path_5197" class="st0" d="M21.2,36.7c-0.1-0.1-0.2-0.2-0.3-0.2c-0.3-0.1-0.5-0.1-0.8,0c-0.1,0-0.2,0.1-0.3,0.2
				c-0.1,0.1-0.2,0.2-0.2,0.3c-0.1,0.1-0.1,0.3-0.1,0.4s0,0.3,0.1,0.4c0,0.1,0.1,0.2,0.2,0.3c0.1,0.1,0.2,0.2,0.3,0.2
				c0.1,0.1,0.3,0.1,0.4,0.1s0.3,0,0.4-0.1c0.1,0,0.2-0.1,0.3-0.2c0.1-0.1,0.2-0.2,0.2-0.3c0.1-0.3,0.1-0.5,0-0.8
				C21.4,36.9,21.3,36.8,21.2,36.7z M21.1,37.7c-0.1,0.2-0.2,0.3-0.3,0.4c-0.1,0-0.2,0.1-0.3,0.1c-0.1,0-0.2,0-0.3-0.1
				c-0.1,0-0.1-0.1-0.2-0.2c-0.1-0.1-0.1-0.1-0.1-0.2c0-0.1,0-0.2,0-0.3c0-0.1,0-0.2,0-0.3c0-0.1,0.1-0.2,0.1-0.2
				c0.1-0.1,0.1-0.1,0.2-0.1c0.1,0,0.2-0.1,0.3-0.1c0.1,0,0.2,0,0.3,0.1c0.1,0,0.1,0.1,0.2,0.1s0.1,0.1,0.1,0.2c0,0.1,0,0.2,0,0.3
				C21.1,37.5,21.1,37.6,21.1,37.7L21.1,37.7z"/>
			<path id="Path_5198" class="st0" d="M22.5,35.3c-0.1,0-0.2,0.1-0.2,0.2c-0.1,0.1-0.1,0.2-0.1,0.2c0,0.1,0,0.2,0,0.3v0.4h-0.4v0.3
				h0.4v1.6h0.4v-1.6H23v-0.3h-0.4v-0.4c0-0.1,0-0.1,0-0.2c0-0.1,0-0.1,0-0.1c0,0,0.1-0.1,0.1-0.1c0.1,0,0.1,0,0.2,0
				c0,0,0.1,0,0.1,0c0,0,0.1,0,0.1,0l0-0.3c-0.1,0-0.2,0-0.2,0C22.7,35.3,22.6,35.3,22.5,35.3L22.5,35.3z"/>
			<path id="Path_5199" class="st0" d="M24.8,37.1h1.3v-0.3h-1.3v-0.8h1.4v-0.4h-1.8v2.8h1.9V38h-1.5V37.1z"/>
			<path id="Path_5200" class="st0" d="M28.3,36.6c-0.1-0.1-0.1-0.1-0.2-0.2c-0.2-0.1-0.3-0.1-0.5,0c-0.1,0-0.1,0-0.2,0.1
				c-0.1,0-0.1,0.1-0.1,0.1c0,0-0.1,0.1-0.1,0.1h0c0,0,0-0.1,0-0.1c0-0.1,0-0.1,0-0.2h-0.4c0,0.1,0,0.1,0,0.2c0,0.1,0,0.1,0,0.2v1.5
				h0.4v-1c0-0.2,0-0.3,0.1-0.5c0.1-0.1,0.2-0.2,0.4-0.2c0.1,0,0.1,0,0.2,0c0.1,0,0.1,0.1,0.1,0.1c0,0.1,0.1,0.1,0.1,0.2
				c0,0.1,0,0.1,0,0.2v1.1h0.4v-1.2c0-0.1,0-0.2,0-0.3C28.4,36.8,28.4,36.7,28.3,36.6z"/>
			<path id="Path_5201" class="st0" d="M29.8,38L29.8,38l-0.6-1.5h-0.4l0.8,1.9H30l0.8-1.9h-0.4L29.8,38L29.8,38z"/>
			<path id="Path_5202" class="st0" d="M31.4,35.5c-0.1,0-0.1,0-0.2,0.1c-0.1,0.1-0.1,0.2,0,0.3l0,0c0,0,0.1,0.1,0.2,0.1
				c0.1,0,0.1,0,0.2-0.1c0,0,0.1-0.1,0.1-0.2c0-0.1,0-0.1-0.1-0.2C31.5,35.6,31.4,35.5,31.4,35.5L31.4,35.5z"/>
			<rect id="Rectangle_2034" x="31.2" y="36.5" class="st0" width="0.4" height="1.9"/>
			<path id="Path_5203" class="st0" d="M32.8,36.5c-0.1,0.1-0.2,0.2-0.2,0.3h0c0,0,0-0.1,0-0.2s0-0.1,0-0.2h-0.4c0,0.1,0,0.1,0,0.2
				s0,0.1,0,0.2v1.5h0.4v-1c0-0.1,0-0.2,0-0.2c0-0.1,0.1-0.1,0.1-0.2s0.1-0.1,0.2-0.1c0.1,0,0.2-0.1,0.2-0.1c0.1,0,0.1,0,0.2,0
				l0-0.3c0,0-0.1,0-0.1,0C33,36.4,32.9,36.4,32.8,36.5L32.8,36.5z"/>
			<path id="Path_5204" class="st0" d="M35.2,36.7c-0.1-0.1-0.2-0.2-0.3-0.2c-0.3-0.1-0.5-0.1-0.8,0c-0.1,0-0.2,0.1-0.3,0.2
				c-0.1,0.1-0.2,0.2-0.2,0.3c-0.1,0.1-0.1,0.3-0.1,0.4s0,0.3,0.1,0.4c0,0.1,0.1,0.2,0.2,0.3c0.1,0.1,0.2,0.2,0.3,0.2
				c0.1,0.1,0.3,0.1,0.4,0.1s0.3,0,0.4-0.1c0.1,0,0.2-0.1,0.3-0.2c0.1-0.1,0.2-0.2,0.2-0.3c0.1-0.3,0.1-0.5,0-0.8
				C35.4,36.9,35.3,36.8,35.2,36.7L35.2,36.7z M35.1,37.7C35,37.8,34.9,38,34.8,38c-0.1,0-0.2,0.1-0.3,0.1c-0.1,0-0.2,0-0.3-0.1
				c-0.1,0-0.1-0.1-0.2-0.2c-0.1-0.1-0.1-0.1-0.1-0.2c0-0.1,0-0.2,0-0.3c0-0.1,0-0.2,0-0.3c0-0.1,0.1-0.2,0.1-0.2
				c0.1-0.1,0.1-0.1,0.2-0.1c0.1,0,0.2-0.1,0.3-0.1c0.1,0,0.2,0,0.3,0.1c0.1,0,0.1,0.1,0.2,0.1c0.1,0.1,0.1,0.1,0.1,0.2
				C35.1,37.3,35.1,37.5,35.1,37.7L35.1,37.7L35.1,37.7z"/>
			<path id="Path_5205" class="st0" d="M37.6,36.6c-0.1-0.1-0.1-0.1-0.2-0.2c-0.2-0.1-0.3-0.1-0.5,0c-0.1,0-0.1,0-0.2,0.1
				c-0.1,0-0.1,0.1-0.1,0.1c0,0-0.1,0.1-0.1,0.1h0c0,0,0-0.1,0-0.1c0-0.1,0-0.1,0-0.2H36c0,0.1,0,0.1,0,0.2s0,0.1,0,0.2v1.5h0.4v-1
				c0-0.2,0-0.3,0.1-0.5c0.1-0.1,0.2-0.2,0.4-0.2c0.1,0,0.1,0,0.2,0c0.1,0,0.1,0.1,0.1,0.1c0,0.1,0.1,0.1,0.1,0.2c0,0.1,0,0.1,0,0.2
				v1.1h0.4v-1.2c0-0.1,0-0.2,0-0.3C37.7,36.8,37.6,36.7,37.6,36.6z"/>
			<path id="Path_5206" class="st0" d="M41.1,36.6c-0.1-0.1-0.1-0.1-0.2-0.2c-0.1,0-0.2-0.1-0.3-0.1c-0.1,0-0.3,0-0.4,0.1
				c-0.1,0.1-0.2,0.2-0.3,0.3c0-0.1-0.1-0.2-0.2-0.3c-0.1-0.1-0.2-0.1-0.3-0.1c-0.3,0-0.5,0.1-0.6,0.4h0c0,0,0-0.1,0-0.1
				c0-0.1,0-0.1,0-0.2h-0.4c0,0.1,0,0.1,0,0.2c0,0.1,0,0.1,0,0.2v1.5h0.4v-1c0-0.2,0-0.3,0.1-0.5c0.1-0.1,0.2-0.2,0.3-0.2
				c0.1,0,0.1,0,0.2,0c0.1,0,0.1,0.1,0.1,0.1c0,0,0.1,0.1,0.1,0.2c0,0.1,0,0.1,0,0.2v1.1H40v-1c0-0.1,0-0.1,0-0.2
				c0-0.1,0-0.1,0.1-0.2c0-0.1,0.1-0.1,0.1-0.1c0.1,0,0.1-0.1,0.2-0.1c0.1,0,0.3,0.1,0.3,0.2c0,0.1,0.1,0.1,0.1,0.2
				c0,0.1,0,0.1,0,0.2v1.1h0.4v-1.2c0-0.1,0-0.2,0-0.3C41.2,36.8,41.2,36.7,41.1,36.6L41.1,36.6z"/>
			<path id="Path_5207" class="st0" d="M43.5,36.7c-0.1-0.1-0.2-0.2-0.3-0.2c-0.1,0-0.3-0.1-0.4-0.1c-0.1,0-0.3,0-0.4,0.1
				c-0.1,0-0.2,0.1-0.3,0.2c-0.1,0.1-0.2,0.2-0.2,0.3c-0.1,0.3-0.1,0.6,0,0.8c0,0.1,0.1,0.2,0.2,0.3c0.1,0.1,0.2,0.2,0.3,0.2
				c0.3,0.1,0.6,0.1,0.9,0c0.1-0.1,0.3-0.2,0.4-0.3l-0.3-0.2c-0.1,0.1-0.1,0.2-0.2,0.2c-0.1,0.1-0.2,0.1-0.3,0.1
				c-0.2,0-0.3-0.1-0.4-0.2c-0.1-0.1-0.2-0.3-0.2-0.4h1.5c0,0,0,0,0-0.1v-0.1c0-0.1,0-0.3-0.1-0.4C43.6,36.9,43.5,36.8,43.5,36.7
				L43.5,36.7z M42.2,37.2c0-0.1,0.1-0.3,0.2-0.4c0.1-0.1,0.1-0.1,0.2-0.1c0.1,0,0.1,0,0.2,0s0.2,0,0.2,0c0.1,0,0.1,0.1,0.2,0.1
				c0,0,0.1,0.1,0.1,0.2c0,0.1,0,0.1,0,0.2L42.2,37.2L42.2,37.2z"/>
			<path id="Path_5208" class="st0" d="M45.7,36.6c-0.1-0.1-0.1-0.1-0.2-0.2c-0.2-0.1-0.3-0.1-0.5,0c-0.1,0-0.1,0-0.2,0.1
				c-0.1,0-0.1,0.1-0.1,0.1c0,0-0.1,0.1-0.1,0.1h0c0,0,0-0.1,0-0.1c0-0.1,0-0.1,0-0.2h-0.4c0,0.1,0,0.1,0,0.2s0,0.1,0,0.2v1.5h0.4
				v-1c0-0.2,0-0.3,0.1-0.5c0.1-0.1,0.2-0.2,0.4-0.2c0.1,0,0.1,0,0.2,0c0.1,0,0.1,0.1,0.1,0.1c0,0.1,0.1,0.1,0.1,0.2
				c0,0.1,0,0.1,0,0.2v1.1h0.4v-1.2c0-0.1,0-0.2,0-0.3C45.9,36.8,45.8,36.7,45.7,36.6z"/>
			<path id="Path_5209" class="st0" d="M47,35.9h-0.4v0.5h-0.4v0.3h0.4v1c0,0.2,0,0.3,0.1,0.4c0.1,0.1,0.3,0.2,0.4,0.1
				c0.1,0,0.1,0,0.2,0c0.1,0,0.1,0,0.1,0l0-0.3c0,0-0.1,0-0.1,0c0,0-0.1,0-0.1,0c-0.1,0-0.1,0-0.2-0.1c0-0.1-0.1-0.2-0.1-0.2v-1h0.5
				v-0.3H47L47,35.9L47,35.9z"/>
			<path id="Path_5210" class="st0" d="M51.4,37.8L51.4,37.8l-0.7-2.3h-0.4l-0.7,2.3h0L49,35.5h-0.4l0.8,2.8h0.4l0.7-2.3h0l0.7,2.3
				h0.4l0.8-2.8H52L51.4,37.8L51.4,37.8z"/>
			<path id="Path_5211" class="st0" d="M54.2,38v-0.8c0-0.1,0-0.2,0-0.3c-0.1-0.2-0.2-0.3-0.4-0.4c-0.1,0-0.2-0.1-0.4-0.1
				c-0.1,0-0.3,0-0.4,0.1c-0.1,0-0.2,0.1-0.3,0.2l0.2,0.2c0.1-0.1,0.1-0.1,0.2-0.2c0.1,0,0.2-0.1,0.3-0.1c0.1,0,0.2,0,0.3,0.1
				c0.1,0.1,0.1,0.2,0.1,0.3v0.1c-0.2,0-0.3,0-0.5,0c-0.1,0-0.3,0-0.4,0.1c-0.1,0-0.2,0.1-0.3,0.2c-0.1,0.1-0.1,0.2-0.1,0.3
				c0,0.1,0,0.2,0.1,0.3c0,0.1,0.1,0.1,0.2,0.2c0.1,0,0.1,0.1,0.2,0.1c0.1,0,0.2,0,0.2,0c0.1,0,0.3,0,0.4-0.1
				c0.1-0.1,0.2-0.1,0.3-0.2h0c0,0.1,0,0.2,0,0.3h0.3c0-0.1,0-0.1,0-0.2C54.2,38.1,54.2,38.1,54.2,38L54.2,38z M53.8,37.6
				c0,0.1,0,0.3-0.1,0.4c-0.1,0.1-0.3,0.2-0.4,0.2c0,0-0.1,0-0.1,0c0,0-0.1,0-0.1-0.1c0,0-0.1-0.1-0.1-0.1c0,0,0-0.1,0-0.1
				c0-0.1,0-0.1,0.1-0.2c0.1-0.1,0.1-0.1,0.2-0.1c0.1,0,0.2,0,0.3,0c0.1,0,0.2,0,0.3,0h0.1V37.6L53.8,37.6z"/>
			<path id="Path_5212" class="st0" d="M55.2,35.9h-0.4v0.5h-0.4v0.3h0.4v1c0,0.2,0,0.3,0.1,0.4c0.1,0.1,0.3,0.2,0.4,0.1
				c0.1,0,0.1,0,0.2,0c0.1,0,0.1,0,0.1,0l0-0.3c0,0-0.1,0-0.1,0c0,0-0.1,0-0.1,0c-0.1,0-0.1,0-0.2-0.1c0-0.1-0.1-0.2-0.1-0.2v-1h0.5
				v-0.3h-0.5L55.2,35.9L55.2,35.9z"/>
			<path id="Path_5213" class="st0" d="M57.6,36.7c-0.1-0.1-0.2-0.2-0.3-0.2c-0.1,0-0.3-0.1-0.4-0.1c-0.1,0-0.3,0-0.4,0.1
				c-0.1,0-0.2,0.1-0.3,0.2c-0.1,0.1-0.2,0.2-0.2,0.3c-0.1,0.3-0.1,0.6,0,0.8c0,0.1,0.1,0.2,0.2,0.3c0.1,0.1,0.2,0.2,0.3,0.2
				c0.3,0.1,0.6,0.1,0.9,0c0.1-0.1,0.3-0.2,0.4-0.3l-0.3-0.2c-0.1,0.1-0.1,0.2-0.2,0.2c-0.1,0.1-0.2,0.1-0.3,0.1
				c-0.2,0-0.3-0.1-0.4-0.2c-0.1-0.1-0.2-0.3-0.2-0.4h1.5c0,0,0,0,0-0.1v-0.1c0-0.1,0-0.3-0.1-0.4C57.8,36.9,57.7,36.8,57.6,36.7
				L57.6,36.7z M56.4,37.2c0-0.1,0.1-0.3,0.2-0.4c0.1-0.1,0.1-0.1,0.2-0.1c0.1,0,0.1,0,0.2,0c0.1,0,0.2,0,0.2,0
				c0.1,0,0.1,0.1,0.2,0.1c0,0,0.1,0.1,0.1,0.2c0,0.1,0,0.1,0,0.2L56.4,37.2L56.4,37.2z"/>
			<path id="Path_5214" class="st0" d="M59,36.5c-0.1,0.1-0.2,0.2-0.2,0.3h0c0,0,0-0.1,0-0.2s0-0.1,0-0.2h-0.4c0,0.1,0,0.1,0,0.2
				s0,0.1,0,0.2v1.5h0.4v-1c0-0.1,0-0.2,0-0.2c0-0.1,0.1-0.1,0.1-0.2c0-0.1,0.1-0.1,0.2-0.1c0.1,0,0.2-0.1,0.2-0.1
				c0.1,0,0.1,0,0.2,0l0-0.3c0,0-0.1,0-0.1,0C59.2,36.4,59.1,36.4,59,36.5L59,36.5z"/>
			<path id="Path_5215" class="st0" d="M63.3,36.9h-0.4l-0.4,0.6l-0.6-0.6c0.1,0,0.2-0.1,0.2-0.1c0.1,0,0.1-0.1,0.2-0.2
				c0.1-0.1,0.1-0.1,0.1-0.2c0-0.1,0.1-0.2,0.1-0.3c0-0.1,0-0.2-0.1-0.3c0-0.1-0.1-0.2-0.2-0.2c-0.1-0.1-0.1-0.1-0.2-0.1
				c-0.1,0-0.2,0-0.3,0s-0.2,0-0.3,0c-0.1,0-0.2,0.1-0.2,0.1c-0.1,0.1-0.1,0.1-0.2,0.2c0,0.1-0.1,0.2-0.1,0.3c0,0.1,0,0.2,0.1,0.4
				c0.1,0.1,0.1,0.2,0.2,0.3c-0.1,0-0.2,0.1-0.2,0.1C61.1,37,61,37,60.9,37.1c-0.1,0.1-0.1,0.1-0.1,0.2c0,0.1-0.1,0.2-0.1,0.3
				c0,0.2,0.1,0.5,0.3,0.6c0.1,0.1,0.2,0.1,0.3,0.2c0.1,0,0.2,0.1,0.4,0.1c0.2,0,0.3,0,0.5-0.1c0.1-0.1,0.3-0.2,0.4-0.3l0.4,0.4h0.5
				l-0.7-0.7L63.3,36.9L63.3,36.9z M61.5,35.9c0.1-0.1,0.2-0.1,0.3-0.1c0.2,0,0.4,0.2,0.4,0.4c0,0.1,0,0.1,0,0.2
				c0,0.1-0.1,0.1-0.1,0.1c0,0-0.1,0.1-0.1,0.1c-0.1,0-0.1,0.1-0.2,0.1c0,0-0.1-0.1-0.1-0.1c-0.1-0.1-0.1-0.2-0.2-0.3
				C61.4,36.1,61.4,36,61.5,35.9L61.5,35.9L61.5,35.9z M62,38c-0.1,0.1-0.2,0.1-0.3,0.1c-0.1,0-0.1,0-0.2,0c-0.1,0-0.1-0.1-0.2-0.1
				c-0.1-0.1-0.2-0.2-0.2-0.4c0-0.1,0-0.3,0.1-0.3c0.1-0.1,0.2-0.2,0.3-0.2l0.7,0.7C62.2,37.9,62.1,37.9,62,38z"/>
			<path id="Path_5216" class="st0" d="M65.6,35.5l-1.2,2.8h0.4l0.3-0.7h1.3l0.3,0.7h0.4L66,35.5H65.6z M65.2,37.3l0.5-1.3l0.5,1.3
				H65.2z"/>
			<path id="Path_5217" class="st0" d="M69.1,36.8L69.1,36.8c-0.1-0.1-0.2-0.2-0.3-0.3c-0.1-0.1-0.3-0.1-0.4-0.1
				c-0.1,0-0.3,0-0.4,0.1c-0.1,0-0.2,0.1-0.3,0.2c-0.1,0.1-0.1,0.2-0.2,0.3c0,0.1-0.1,0.3-0.1,0.4c0,0.1,0,0.3,0.1,0.4
				c0,0.1,0.1,0.2,0.2,0.3c0.1,0.1,0.2,0.2,0.3,0.2c0.1,0.1,0.3,0.1,0.4,0.1c0.1,0,0.3,0,0.4-0.1c0.1-0.1,0.2-0.1,0.3-0.2h0v0.2
				c0,0.1,0,0.2,0,0.3c0,0.1-0.1,0.2-0.1,0.2c-0.1,0.1-0.1,0.1-0.2,0.1c-0.1,0-0.2,0.1-0.3,0.1c-0.1,0-0.3,0-0.4-0.1
				c-0.1-0.1-0.2-0.1-0.3-0.2L67.4,39c0.1,0.1,0.3,0.2,0.4,0.3c0.2,0.1,0.3,0.1,0.5,0.1c0.2,0,0.3,0,0.5-0.1
				c0.1-0.1,0.2-0.1,0.3-0.2c0.1-0.1,0.1-0.2,0.2-0.3c0-0.1,0.1-0.3,0.1-0.4v-1.8h-0.4L69.1,36.8L69.1,36.8L69.1,36.8z M69,37.7
				c0,0.1-0.1,0.2-0.1,0.2c-0.1,0.1-0.3,0.2-0.5,0.2c-0.1,0-0.2,0-0.3-0.1c-0.1,0-0.1-0.1-0.2-0.1c-0.1-0.1-0.1-0.1-0.1-0.2
				c0-0.1,0-0.2,0-0.3c0-0.1,0-0.2,0-0.3c0-0.1,0.1-0.2,0.1-0.2c0.1-0.1,0.1-0.1,0.2-0.1c0.2-0.1,0.4-0.1,0.5,0
				c0.1,0,0.1,0.1,0.2,0.1c0.1,0.1,0.1,0.1,0.1,0.2c0,0.1,0,0.2,0,0.3C69.1,37.5,69.1,37.6,69,37.7L69,37.7z"/>
			<path id="Path_5218" class="st0" d="M70.7,36.5c-0.1,0.1-0.2,0.2-0.2,0.3h0c0,0,0-0.1,0-0.2s0-0.1,0-0.2h-0.4c0,0.1,0,0.1,0,0.2
				s0,0.1,0,0.2v1.5h0.4v-1c0-0.1,0-0.2,0-0.2c0-0.1,0.1-0.1,0.1-0.2c0-0.1,0.1-0.1,0.2-0.1c0.1,0,0.2-0.1,0.2-0.1
				c0.1,0,0.1,0,0.2,0l0-0.3c0,0-0.1,0-0.1,0C70.9,36.4,70.8,36.4,70.7,36.5L70.7,36.5z"/>
			<rect id="Rectangle_2035" x="71.5" y="36.5" class="st0" width="0.4" height="1.9"/>
			<path id="Path_5219" class="st0" d="M71.7,35.5c-0.1,0-0.1,0-0.2,0.1c-0.1,0.1-0.1,0.2,0,0.3l0,0c0,0,0.1,0.1,0.2,0.1
				c0.1,0,0.1,0,0.2-0.1c0,0,0.1-0.1,0.1-0.2c0-0.1,0-0.1-0.1-0.2C71.8,35.6,71.8,35.5,71.7,35.5L71.7,35.5z"/>
			<path id="Path_5220" class="st0" d="M73.7,38c-0.1,0-0.2,0.1-0.3,0.1c-0.1,0-0.2,0-0.3-0.1c-0.1,0-0.1-0.1-0.2-0.1
				c-0.1-0.1-0.1-0.1-0.1-0.2c-0.1-0.2-0.1-0.4,0-0.5c0-0.1,0.1-0.2,0.1-0.2c0.1-0.1,0.1-0.1,0.2-0.1c0.1,0,0.2-0.1,0.3-0.1
				c0.1,0,0.2,0,0.3,0.1c0.1,0,0.1,0.1,0.2,0.2l0.3-0.2c-0.1-0.1-0.2-0.2-0.3-0.2c-0.1-0.1-0.3-0.1-0.4-0.1c-0.1,0-0.3,0-0.4,0.1
				c-0.1,0-0.2,0.1-0.3,0.2c-0.1,0.1-0.2,0.2-0.2,0.3c-0.1,0.3-0.1,0.6,0,0.8c0,0.1,0.1,0.2,0.2,0.3c0.1,0.1,0.2,0.2,0.3,0.2
				c0.1,0,0.3,0.1,0.4,0.1c0.1,0,0.3,0,0.4-0.1c0.1,0,0.2-0.1,0.3-0.2l-0.3-0.2C73.9,38,73.8,38,73.7,38L73.7,38z"/>
			<path id="Path_5221" class="st0" d="M76.2,38v-1.5h-0.4v1c0,0.2,0,0.3-0.1,0.5c-0.1,0.1-0.2,0.2-0.4,0.2c-0.1,0-0.1,0-0.2,0
				C75.1,38,75,38,75,37.9c0-0.1-0.1-0.1-0.1-0.2c0-0.1,0-0.1,0-0.2v-1.1h-0.4v1.2c0,0.1,0,0.2,0,0.3c0,0.1,0.1,0.2,0.1,0.2
				c0.1,0.1,0.1,0.1,0.2,0.2c0.1,0,0.2,0.1,0.3,0.1c0.1,0,0.3,0,0.4-0.1c0.1-0.1,0.2-0.1,0.2-0.3h0c0,0,0,0.1,0,0.1
				c0,0.1,0,0.1,0,0.2h0.4c0-0.1,0-0.1,0-0.2S76.2,38,76.2,38L76.2,38z"/>
			<rect id="Rectangle_2036" x="76.9" y="35.3" class="st0" width="0.4" height="3"/>
			<path id="Path_5222" class="st0" d="M78.3,35.9H78v0.5h-0.4v0.3H78v1c0,0.2,0,0.3,0.1,0.4c0.1,0.1,0.3,0.2,0.4,0.1
				c0.1,0,0.1,0,0.2,0c0.1,0,0.1,0,0.1,0l0-0.3c0,0-0.1,0-0.1,0c0,0-0.1,0-0.1,0c-0.1,0-0.1,0-0.2-0.1c0-0.1-0.1-0.2-0.1-0.2v-1h0.5
				v-0.3h-0.5L78.3,35.9L78.3,35.9L78.3,35.9z"/>
			<path id="Path_5223" class="st0" d="M80.9,38v-1.5h-0.4v1c0,0.2,0,0.3-0.1,0.5c-0.1,0.1-0.2,0.2-0.4,0.2c-0.1,0-0.1,0-0.2,0
				c-0.1,0-0.1-0.1-0.1-0.1c0-0.1-0.1-0.1-0.1-0.2c0-0.1,0-0.1,0-0.2v-1.1h-0.4v1.2c0,0.1,0,0.2,0,0.3c0,0.1,0.1,0.2,0.1,0.2
				c0.1,0.1,0.1,0.1,0.2,0.2c0.1,0,0.2,0.1,0.3,0.1c0.1,0,0.3,0,0.4-0.1c0.1-0.1,0.2-0.1,0.2-0.3h0c0,0,0,0.1,0,0.1
				c0,0.1,0,0.1,0,0.2h0.4c0-0.1,0-0.1,0-0.2S80.9,38,80.9,38L80.9,38z"/>
			<path id="Path_5224" class="st0" d="M82.2,36.5c-0.1,0.1-0.2,0.2-0.2,0.3h0c0,0,0-0.1,0-0.2s0-0.1,0-0.2h-0.4c0,0.1,0,0.1,0,0.2
				s0,0.1,0,0.2v1.5H82v-1c0-0.1,0-0.2,0-0.2c0-0.1,0.1-0.1,0.1-0.2c0-0.1,0.1-0.1,0.2-0.1c0.1,0,0.2-0.1,0.2-0.1c0.1,0,0.1,0,0.2,0
				l0-0.3c0,0-0.1,0-0.1,0C82.4,36.4,82.3,36.4,82.2,36.5L82.2,36.5z"/>
			<path id="Path_5225" class="st0" d="M84.7,37c0-0.1-0.1-0.2-0.2-0.3c-0.1-0.1-0.2-0.2-0.3-0.2c-0.1,0-0.3-0.1-0.4-0.1
				c-0.3,0-0.5,0.1-0.7,0.3c-0.1,0.1-0.2,0.2-0.2,0.3c-0.1,0.3-0.1,0.6,0,0.8c0,0.1,0.1,0.2,0.2,0.3c0.1,0.1,0.2,0.2,0.3,0.2
				c0.3,0.1,0.6,0.1,0.9,0c0.1-0.1,0.3-0.2,0.4-0.3l-0.3-0.2c-0.1,0.1-0.1,0.2-0.2,0.2c-0.1,0.1-0.2,0.1-0.3,0.1
				c-0.2,0-0.3-0.1-0.4-0.2c-0.1-0.1-0.2-0.3-0.2-0.4h1.5c0,0,0,0,0-0.1v-0.1C84.7,37.3,84.7,37.1,84.7,37L84.7,37z M83.2,37.2
				c0-0.1,0.1-0.3,0.2-0.4c0.1-0.1,0.1-0.1,0.2-0.1c0.1,0,0.1,0,0.2,0c0.1,0,0.2,0,0.2,0c0.1,0,0.1,0.1,0.2,0.1c0,0,0.1,0.1,0.1,0.2
				c0,0.1,0,0.1,0,0.2L83.2,37.2L83.2,37.2z"/>
			<path id="Path_5226" class="st0" d="M58.9,26.9h-0.6v-0.2c0-0.1,0-0.2,0.1-0.3c0.1-0.1,0.3-0.1,0.4-0.1v-0.6c0,0,0,0,0,0
				c-0.1,0-0.3,0-0.3,0c-0.2,0-0.4,0.1-0.6,0.3c-0.2,0.2-0.3,0.4-0.2,0.6v0.8h1.3L58.9,26.9L58.9,26.9L58.9,26.9z"/>
			<path id="Path_5227" class="st0" d="M55.5,27.6c0.1,0,0.3-0.1,0.4-0.2c0.1-0.1,0.2-0.2,0.2-0.4s-0.1-0.3-0.2-0.4
				c-0.2-0.2-0.6-0.2-0.8,0C55,26.8,55,26.9,55,27.1c0,0.1,0.1,0.3,0.2,0.4C55.3,27.6,55.4,27.6,55.5,27.6L55.5,27.6z"/>
			<path id="Path_5228" class="st0" d="M54.1,27.6c0.1,0,0.3-0.1,0.4-0.2c0.1-0.1,0.2-0.2,0.2-0.4c0-0.1-0.1-0.3-0.2-0.4
				c-0.2-0.2-0.6-0.2-0.8,0c-0.1,0.1-0.2,0.2-0.2,0.4c0,0.1,0.1,0.3,0.2,0.4C53.8,27.6,54,27.6,54.1,27.6z"/>
			<path id="Path_5229" class="st0" d="M73.4,27.6c0.1,0,0.3-0.1,0.4-0.2c0.1-0.1,0.2-0.2,0.2-0.4c0-0.1-0.1-0.3-0.2-0.4
				c-0.2-0.2-0.6-0.2-0.8,0c-0.1,0.1-0.2,0.2-0.2,0.4c0,0.1,0.1,0.3,0.2,0.4C73.1,27.6,73.2,27.6,73.4,27.6z"/>
			<path id="Path_5230" class="st0" d="M72,27.6c0.1,0,0.3-0.1,0.4-0.2c0.1-0.1,0.2-0.2,0.2-0.4c0-0.1-0.1-0.3-0.2-0.4
				c-0.2-0.2-0.6-0.2-0.8,0c-0.1,0.1-0.2,0.2-0.2,0.4c0,0.1,0.1,0.3,0.2,0.4C71.7,27.6,71.8,27.6,72,27.6z"/>
			<path id="Path_5231" class="st0" d="M75.5,32.6c0.3-0.3,0.5-0.7,0.5-1.1l0-3.3h-0.9c0,2.1,0,3.1,0,3.2c0,0.2-0.1,0.4-0.2,0.5
				c-0.1,0.1-0.3,0.2-0.5,0.2V33c0.1,0,0.2,0,0.2,0C74.9,32.9,75.2,32.8,75.5,32.6L75.5,32.6z"/>
			<path id="Path_5232" class="st0" d="M79.8,32.6c0.3-0.3,0.5-0.7,0.5-1.1l0-3.3h-0.9c0,2.1,0,3.1,0,3.2c0,0.2-0.1,0.4-0.2,0.5
				c-0.1,0.1-0.3,0.2-0.5,0.2V33c0.1,0,0.2,0,0.2,0C79.2,32.9,79.6,32.8,79.8,32.6L79.8,32.6z"/>
			<path id="Path_5233" class="st0" d="M71.3,31.4c0.5,0.3,1.2,0.3,1.7,0c0.3-0.2,0.5-0.4,0.6-0.6c0.2-0.3,0.2-0.6,0.2-0.9
				c0-0.5,0-1.3,0-1.7l-1.8,0c-0.3,0-0.6,0.1-0.9,0.2c-0.3,0.1-0.5,0.4-0.6,0.6c-0.1,0.3-0.2,0.6-0.2,0.9
				C70.5,30.5,70.8,31.1,71.3,31.4L71.3,31.4z M71.6,29.3c0.1-0.1,0.3-0.2,0.5-0.2l0.9,0v0.8c0,0.2-0.1,0.4-0.2,0.6
				c-0.3,0.3-0.8,0.3-1.1,0c0,0,0,0,0,0C71.3,30.1,71.3,29.6,71.6,29.3L71.6,29.3L71.6,29.3z"/>
			<path id="Path_5234" class="st0" d="M78.1,31.5v-1.9c0-0.5,0-2,0-3.1l-0.9,0c0,1.1,0,2.6,0,3.1v1.9H78.1z"/>
			<path id="Path_5235" class="st0" d="M79.9,27.5c0.1,0,0.3-0.1,0.4-0.2c0.1-0.1,0.2-0.2,0.2-0.4c0-0.3-0.2-0.6-0.5-0.6
				c-0.1,0-0.3,0.1-0.4,0.2c-0.2,0.2-0.2,0.6,0,0.8l0,0C79.6,27.5,79.7,27.5,79.9,27.5z"/>
			<path id="Path_5236" class="st0" d="M63.4,32.5c-0.1,0.1-0.2,0.2-0.2,0.4c0,0.3,0.2,0.5,0.6,0.6c0.1,0,0.3-0.1,0.4-0.2
				c0.1-0.1,0.2-0.2,0.2-0.4c0-0.1-0.1-0.3-0.2-0.4C64,32.3,63.6,32.3,63.4,32.5z"/>
			<path id="Path_5237" class="st0" d="M59.4,31.5h0.6c0.2,0,0.4,0,0.5-0.1c0.2-0.1,0.3-0.1,0.5-0.3l0,0c0.1,0.1,0.3,0.2,0.5,0.3
				c0.2,0,0.4,0.1,0.5,0.1h0.6c0.2,0,0.4,0,0.5-0.1c0.2-0.1,0.3-0.1,0.5-0.3h0l0,0c0.1,0.1,0.3,0.2,0.5,0.3c0.2,0,0.4,0.1,0.5,0.1
				h1.6l0-5v0h-0.9l0,4.1h-0.5c-0.2,0-0.4-0.1-0.5-0.2c-0.1-0.2-0.2-0.4-0.1-0.5l0-1.7v0h-0.9l0,1.8c0,0.1,0,0.3-0.1,0.4
				c-0.1,0.1-0.2,0.2-0.3,0.2c-0.2,0-0.4,0-0.7,0l-0.2,0c-0.2,0-0.3-0.1-0.4-0.2c-0.1-0.2-0.2-0.4-0.1-0.5l0-1.7h-0.9l0,1.8
				c0,0.1,0,0.3-0.1,0.4c-0.1,0.1-0.2,0.2-0.3,0.2c-0.2,0-0.4,0-0.7,0c0,0-0.2,0-0.2,0c-0.2,0-0.3-0.1-0.4-0.2
				c-0.1-0.2-0.2-0.4-0.1-0.5l0-1.7v0h-0.9l0,1.8c0,0.1,0,0.3-0.1,0.4c-0.1,0.1-0.2,0.2-0.3,0.2c-0.1,0-0.7,0-1,0
				c-0.3,0-0.4-0.1-0.4-0.2c-0.1-0.2-0.1-0.4-0.1-0.6c0-0.5,0-0.9,0-1.3l0-0.4l-1.8,0c-0.3,0-0.6,0.1-0.9,0.2
				c-0.3,0.1-0.5,0.4-0.6,0.6c-0.1,0.3-0.2,0.6-0.2,0.9c0,0.3,0.1,0.6,0.2,0.9c0.1,0.3,0.4,0.5,0.6,0.6c0.3,0.2,0.6,0.2,0.9,0.2
				c0.2,0,0.4,0,0.6-0.1c0.2-0.1,0.4-0.2,0.6-0.4l0,0c0.1,0.1,0.2,0.2,0.2,0.2c0.1,0.1,0.2,0.1,0.3,0.1c0.2,0,0.3,0.1,0.5,0.1h0.7
				c0.2,0,0.4,0,0.5-0.1c0.2-0.1,0.3-0.1,0.5-0.3l0,0c0.1,0.1,0.3,0.2,0.5,0.3C59.1,31.5,59.2,31.5,59.4,31.5L59.4,31.5z M55.2,29.9
				c0,0.2-0.1,0.4-0.2,0.6c-0.3,0.3-0.8,0.3-1.1,0c0,0,0,0,0,0c-0.3-0.3-0.3-0.8,0-1.1c0.1-0.1,0.3-0.2,0.5-0.2l0.9,0V29.9
				L55.2,29.9z"/>
			<path id="Path_5238" class="st0" d="M61.6,33.5c0.1,0,0.3-0.1,0.4-0.2c0.1-0.1,0.2-0.2,0.2-0.4c0-0.1-0.1-0.3-0.2-0.4
				c-0.2-0.2-0.6-0.2-0.8,0c-0.2,0.2-0.2,0.6,0,0.8c0,0,0,0,0,0C61.4,33.4,61.5,33.5,61.6,33.5L61.6,33.5z"/>
			<path id="Path_5239" class="st0" d="M59.8,32.5c-0.1,0.1-0.2,0.2-0.2,0.4c0,0.1,0.1,0.3,0.2,0.4c0.1,0.1,0.2,0.2,0.4,0.2
				c0.1,0,0.3-0.1,0.4-0.2c0.1-0.1,0.2-0.2,0.2-0.4c0-0.3-0.2-0.6-0.5-0.6C60.1,32.3,59.9,32.4,59.8,32.5z"/>
			<path id="Path_5240" class="st0" d="M22.1,31.5v-1.9c0-0.5,0-2,0-3.1l-0.9,0c0,1.1,0,2.6,0,3.1v1.9L22.1,31.5L22.1,31.5z"/>
			<path id="Path_5241" class="st0" d="M6.8,27.6c0.1,0,0.3-0.1,0.4-0.2c0.1-0.1,0.2-0.2,0.2-0.4s-0.1-0.3-0.2-0.4
				c-0.2-0.2-0.6-0.2-0.8,0c-0.1,0.1-0.2,0.2-0.2,0.4c0,0.1,0.1,0.3,0.2,0.4C6.5,27.5,6.7,27.6,6.8,27.6L6.8,27.6z"/>
			<path id="Path_5242" class="st0" d="M13.2,31.5v-1.9c0-0.5,0-2,0-3.1l-0.9,0c0,1.1,0,2.6,0,3.1v1.9L13.2,31.5L13.2,31.5z"/>
			<path id="Path_5243" class="st0" d="M5.4,27.6c0.1,0,0.3-0.1,0.4-0.2c0.2-0.2,0.2-0.6,0-0.8c-0.2-0.2-0.6-0.2-0.8,0c0,0,0,0,0,0
				c-0.1,0.1-0.2,0.2-0.2,0.4c0,0.1,0.1,0.3,0.2,0.4C5.1,27.5,5.2,27.6,5.4,27.6z"/>
			<path id="Path_5244" class="st0" d="M9.9,31.5c0.1,0,0.1,0,0.2,0l1.3,0v-0.9l-1.3,0c-0.2,0-0.4-0.1-0.5-0.2
				c-0.1-0.1-0.2-0.4-0.2-0.6c0-0.2,0-0.3,0.1-0.4c0.2-0.3,0.6-0.4,0.9-0.3c0,0,0.1,0,0.2,0.1l0.5-0.7c-0.1,0-0.2-0.1-0.2-0.1
				C10.4,28,9.8,28,9.3,28.3c-0.3,0.2-0.5,0.4-0.6,0.6c-0.2,0.3-0.2,0.6-0.2,0.9c0,0.2,0,0.5,0.1,0.7l0,0.1H7.9
				c-0.3,0-0.4-0.1-0.4-0.2c-0.1-0.2-0.1-0.4-0.1-0.6c0-0.5,0-0.9,0-1.3l0-0.4l-1.8,0c-0.3,0-0.6,0.1-0.9,0.2
				c-0.3,0.1-0.5,0.4-0.6,0.6c-0.1,0.3-0.2,0.6-0.2,0.9c0,0.3,0.1,0.6,0.2,0.9c0.1,0.3,0.4,0.5,0.6,0.6c0.3,0.2,0.6,0.2,0.9,0.2
				c0.2,0,0.4,0,0.6-0.1c0.2-0.1,0.4-0.2,0.6-0.4l0,0c0.1,0.1,0.1,0.1,0.2,0.2c0.1,0.1,0.2,0.1,0.3,0.1c0.2,0,0.3,0.1,0.5,0.1
				L9.9,31.5L9.9,31.5L9.9,31.5z M6.4,29.9c0,0.2-0.1,0.4-0.2,0.6c-0.3,0.3-0.8,0.3-1.1,0c0,0,0,0,0,0c-0.3-0.3-0.3-0.8,0-1.1
				c0.1-0.1,0.3-0.2,0.5-0.2l0.9,0C6.4,29.1,6.4,29.9,6.4,29.9z"/>
			<path id="Path_5245" class="st0" d="M17.3,27.6c0.1,0,0.3-0.1,0.4-0.2c0.2-0.2,0.2-0.6,0-0.8s-0.6-0.2-0.8,0
				c-0.1,0.1-0.2,0.2-0.2,0.4C16.7,27.4,17,27.6,17.3,27.6C17.3,27.6,17.3,27.6,17.3,27.6z"/>
			<path id="Path_5246" class="st0" d="M32,28.2l-1.8,0c-0.3,0-0.6,0.1-0.9,0.2c-0.3,0.1-0.5,0.4-0.6,0.6c-0.1,0.3-0.2,0.6-0.2,0.9
				c0,0.6,0.3,1.2,0.9,1.5c0.5,0.3,1.2,0.3,1.7,0c0.3-0.2,0.5-0.4,0.6-0.6c0.2-0.3,0.2-0.6,0.2-0.9c0-0.5,0-0.9,0-1.2L32,28.2
				L32,28.2z M31.1,29.9c0,0.2-0.1,0.4-0.2,0.6c-0.3,0.3-0.8,0.3-1.1,0c0,0,0,0,0,0c-0.3-0.3-0.3-0.8,0-1.1c0.1-0.1,0.3-0.2,0.5-0.2
				l0.9,0L31.1,29.9L31.1,29.9L31.1,29.9z"/>
			<path id="Path_5247" class="st0" d="M35.2,33.4c0.1,0,0.3-0.1,0.4-0.2c0.1-0.1,0.2-0.2,0.2-0.4c0-0.1-0.1-0.3-0.2-0.4
				c-0.2-0.2-0.6-0.2-0.8,0c-0.1,0.1-0.2,0.2-0.2,0.4c0,0.1,0.1,0.3,0.2,0.4C35,33.4,35.1,33.4,35.2,33.4z"/>
			<path id="Path_5248" class="st0" d="M43.3,26.5l0,4.1h-0.9c-0.2,0-0.4-0.1-0.5-0.2c-0.1-0.2-0.2-0.4-0.2-0.6
				c0-0.3-0.1-0.6-0.2-0.9c-0.1-0.3-0.4-0.5-0.6-0.6C40,27.9,39,28.1,38.5,29c-0.2,0.3-0.2,0.6-0.2,0.9l0,0.8h-1l-0.1,0
				c-0.2,0-0.3-0.1-0.5-0.2c-0.1-0.2-0.2-0.4-0.1-0.5l0-1.7v0h-0.9l0,1.8c0,0.1,0,0.3-0.1,0.4c-0.1,0.1-0.2,0.2-0.3,0.2
				c-0.2,0-0.4,0-0.5,0H34l0-4.1h-0.9l0,5h2c0.2,0,0.4,0,0.5-0.1c0.2-0.1,0.3-0.1,0.5-0.3l0,0c0.1,0.1,0.3,0.2,0.5,0.3
				c0.2,0,0.4,0.1,0.5,0.1h2.9c0.4,0,0.9-0.2,1.2-0.5l0,0c0.3,0.3,0.7,0.5,1.2,0.5h1.7l0-5v0L43.3,26.5L43.3,26.5z M40.8,30.1
				c0,0.1-0.1,0.2-0.2,0.2c0,0,0,0,0,0c0,0-0.1,0.1-0.1,0.1c-0.1,0.1-0.3,0.1-0.4,0.1h-0.9c0-0.2,0-0.6,0-0.7v0l0,0
				c0-0.1,0-0.2,0-0.2c0,0,0,0,0-0.1c0,0,0-0.1,0.1-0.1c0.1-0.1,0.2-0.2,0.4-0.3c0,0,0,0,0.1,0c0,0,0,0,0.1,0l0,0c0.1,0,0.2,0,0.3,0
				c0.1,0,0.1,0,0.1,0c0.1,0,0.2,0.1,0.3,0.2c0.1,0.1,0.1,0.2,0.2,0.3c0,0,0,0.1,0,0.1C40.8,29.8,40.8,30,40.8,30.1L40.8,30.1
				L40.8,30.1z"/>
			<path id="Path_5249" class="st0" d="M47.9,32.2v0.9c1.4,0,2.7-1.1,2.8-2.5c0,0,0-0.4,0-0.4v-0.4c0-0.6-0.3-1.2-0.9-1.5
				c-0.8-0.5-1.9-0.2-2.4,0.6c-0.2,0.3-0.2,0.6-0.2,0.9c0,0.3,0.1,0.6,0.2,0.9c0.1,0.3,0.3,0.5,0.6,0.6c0.3,0.1,0.6,0.2,0.9,0.2
				c0.2,0,0.3,0,0.4,0C49,32,48.4,32.2,47.9,32.2L47.9,32.2z M49,30.6L49,30.6c-0.1,0-0.2,0-0.3-0.1c0,0-0.1,0-0.1-0.1
				c0,0-0.1-0.1-0.1-0.1c-0.1-0.1-0.2-0.2-0.2-0.4c0-0.1,0-0.1,0-0.2c0-0.1,0-0.2,0.1-0.3c0-0.1,0.1-0.2,0.2-0.3
				c0.1-0.2,0.4-0.2,0.6-0.2c0.2,0,0.4,0.1,0.6,0.2c0.1,0.1,0.1,0.2,0.2,0.3c0,0.1,0.1,0.2,0.1,0.3v0.8H49L49,30.6z"/>
			<path id="Path_5250" class="st0" d="M23.7,32.2v0.9c1.4,0,2.7-1.1,2.8-2.5c0,0,0-0.4,0-0.4v-0.4c0-0.6-0.3-1.2-0.9-1.5
				c-0.8-0.5-1.9-0.2-2.4,0.6c-0.2,0.3-0.2,0.6-0.2,0.9c0,0.3,0.1,0.6,0.2,0.9c0.1,0.3,0.3,0.5,0.6,0.6c0.3,0.1,0.6,0.2,0.9,0.2
				c0.2,0,0.3,0,0.4,0C24.8,32,24.3,32.2,23.7,32.2z M24.8,30.6c-0.2,0-0.4-0.1-0.5-0.2c-0.3-0.3-0.3-0.9,0.1-1.2
				c0.1-0.1,0.3-0.2,0.5-0.2c0.2,0,0.4,0.1,0.6,0.2c0.2,0.1,0.2,0.4,0.2,0.6v0.8H24.8z"/>
			<path id="Path_5251" class="st0" d="M81.9,32.2v0.9c1.4,0,2.7-1.1,2.8-2.5c0,0,0-0.4,0-0.4v-0.4c0-0.6-0.3-1.2-0.9-1.5
				C83,27.9,82,28.1,81.5,29c-0.2,0.3-0.2,0.6-0.2,0.9c0,0.3,0.1,0.6,0.2,0.9c0.1,0.3,0.3,0.5,0.6,0.6c0.3,0.1,0.6,0.2,0.9,0.2
				c0.2,0,0.3,0,0.4,0C83,32,82.4,32.2,81.9,32.2L81.9,32.2z M83,30.6L83,30.6C82.9,30.6,82.9,30.6,83,30.6c-0.1,0-0.1,0-0.1,0h0
				c0,0,0,0,0,0c-0.2,0-0.3-0.1-0.4-0.2c-0.3-0.3-0.3-0.9,0.1-1.2c0.1-0.1,0.2-0.1,0.3-0.2c0,0,0,0,0,0c0,0,0.1,0,0.1,0
				c0,0,0.1,0,0.1,0c0,0,0,0,0,0h0c0.2,0,0.4,0.1,0.6,0.2c0.2,0.1,0.2,0.4,0.2,0.6v0.7l0,0h0v0C83.5,30.6,83.1,30.6,83,30.6L83,30.6
				L83,30.6z"/>
			<path id="Path_5252" class="st0" d="M37.1,33.3c0.2-0.2,0.2-0.6,0-0.8c-0.2-0.2-0.6-0.2-0.8,0c-0.1,0.1-0.2,0.2-0.2,0.4
				c0,0.3,0.2,0.5,0.6,0.6C36.8,33.4,37,33.4,37.1,33.3L37.1,33.3z"/>
			<path id="Path_5253" class="st0" d="M45.4,29.7v1.9h0.9v-1.9c0-0.5,0-2,0-3.1l-0.9,0C45.4,27.6,45.4,29.2,45.4,29.7z"/>
			<path id="Path_5254" class="st0" d="M15.5,28.2h-0.9c0,2.1,0,3.1,0,3.2c0,0.2-0.1,0.4-0.2,0.5c-0.1,0.1-0.3,0.2-0.5,0.2V33
				c0.1,0,0.2,0,0.2,0c0.3,0,0.7-0.2,0.9-0.4c0.3-0.3,0.5-0.7,0.5-1.1L15.5,28.2L15.5,28.2z"/>
			<path id="Path_5255" class="st0" d="M17.2,32.6c0.3-0.3,0.5-0.6,0.5-1.1H20l0-5h-0.9l0,4.1h-1.3l0-2.4h-0.9c0,2.1,0,3.1,0,3.2
				c0,0.2-0.1,0.4-0.2,0.5c-0.1,0.1-0.3,0.2-0.5,0.2V33c0.1,0,0.2,0,0.2,0C16.6,32.9,16.9,32.8,17.2,32.6L17.2,32.6z"/>
			<path id="Path_5256" class="st0" d="M68.6,31.5v-1.9c0-0.5,0-2,0-3.1l-0.9,0c0,1.1,0,2.6,0,3.1v1.9H68.6z"/>
			<path id="Path_5257" class="st0" d="M48.6,30.6c0.1,0,0.2,0.1,0.3,0.1l0,0C48.8,30.6,48.7,30.6,48.6,30.6z"/>
			<path id="Path_5258" class="st0" d="M48.2,30c0,0.1,0.1,0.3,0.2,0.4c0,0,0.1,0.1,0.1,0.1c0,0-0.1-0.1-0.1-0.1
				C48.3,30.3,48.2,30.2,48.2,30z"/>
		</g>
	</g>
</g>
<g id="Group_12174">
	<path id="Path_5179" class="st1" d="M103.3,17.7c-8.2,0-14.9,6.6-14.9,14.8s6.6,14.9,14.8,14.9s14.9-6.6,14.9-14.8c0,0,0,0,0,0
		C118.1,24.3,111.5,17.7,103.3,17.7L103.3,17.7z M103.3,45.9c-7.4,0-13.4-6-13.4-13.3c0-7.4,6-13.4,13.3-13.4
		c7.4,0,13.4,6,13.4,13.3c0,0,0,0,0,0C116.6,39.9,110.7,45.9,103.3,45.9L103.3,45.9L103.3,45.9z"/>
	<path id="Path_5180" class="st1" d="M111.2,38.2c-0.5-0.2-1.1-0.3-1.7-0.3c-1.4,0-3.5,0.4-6.1,2.4l0,0l-0.1,0
		c-2.6-1.9-4.7-2.3-6.1-2.3c-0.6,0-1.2,0.1-1.7,0.3c0,0-0.1,0.1-0.1,0.1c0,0,0,0.1,0.1,0.1c0,0,0,0,0,0c0.3-0.1,0.7-0.1,1-0.1
		c1.8,0,4.1,1.4,6,2.7c-0.4,0.3-0.8,0.6-1.1,1c-0.1,0-0.1-0.1-0.1-0.1c-0.1-0.1-0.3-0.2-0.5-0.3c-0.1,0-0.2,0-0.3,0
		c-0.2,0-0.3,0.2-0.3,0.4c0,0.2,0.1,0.3,0.3,0.3c0.1,0,0.2-0.1,0.3-0.2c0.1,0.1,0.1,0.1,0.2,0.2l0.1,0.1l-0.1,0.1
		c-0.1,0.1-0.2,0.2-0.3,0.2c-0.2,0.2-0.4,0.3-0.6,0.4c-0.1,0-0.2,0.1-0.2,0.1c0,0-0.1,0-0.1,0l0,0c0,0,0,0,0,0c0,0-0.1,0-0.1,0
		c0,0,0,0,0,0c-0.1,0-0.1,0-0.2,0.1c0,0.1,0,0.2,0,0.2c0,0.1,0,0.1,0.1,0.1c0.1,0.1,0.3,0.2,0.5,0.3c0,0,0.1,0,0.1,0
		c0,0,0.1,0,0.1,0c0.2,0,0.3-0.1,0.5-0.1c0.3-0.1,0.5-0.3,0.8-0.5l0.2-0.2c0.1,0.1,0.2,0.1,0.2,0.2c0.1,0.1,0.2,0.2,0.4,0.2
		c0,0,0.1,0,0.1,0c0,0,0,0,0.1,0c0,0,0,0,0.1,0c0.1,0,0.2-0.1,0.3-0.3c0-0.1,0-0.3-0.1-0.4c-0.1-0.1-0.3-0.1-0.4,0c0,0,0,0,0,0
		c-0.1-0.1-0.1-0.1-0.2-0.2c0.4-0.3,0.9-0.7,1.3-1.1c0.4,0.4,0.9,0.7,1.3,1.1c-0.1,0.1-0.1,0.1-0.2,0.2c0,0,0,0,0,0
		c-0.1-0.1-0.2-0.1-0.4,0c-0.1,0.1-0.2,0.2-0.1,0.4c0,0.1,0.1,0.3,0.3,0.3c0,0,0,0,0.1,0c0,0,0,0,0,0c0,0,0.1,0,0.1,0
		c0.1-0.1,0.3-0.1,0.4-0.2c0.1-0.1,0.2-0.1,0.2-0.2l0.2,0.2c0.2,0.2,0.5,0.4,0.8,0.5c0.1,0.1,0.3,0.1,0.5,0.1c0,0,0.1,0,0.1,0
		c0,0,0.1,0,0.1,0c0.2,0,0.4-0.1,0.5-0.3c0,0,0.1-0.1,0.1-0.1c0-0.1,0-0.2,0-0.2c0-0.1-0.1-0.1-0.2-0.1c0,0,0,0,0,0c0,0-0.1,0-0.1,0
		c0,0,0,0,0,0l0,0c0,0-0.1,0-0.1,0c-0.1,0-0.2,0-0.2-0.1c-0.2-0.1-0.4-0.2-0.6-0.4c-0.1-0.1-0.2-0.2-0.3-0.2l-0.1-0.1l0.1-0.1
		c0.1-0.1,0.1-0.1,0.2-0.2c0.1,0.1,0.2,0.2,0.3,0.2c0.2,0,0.3-0.2,0.3-0.3c0-0.2-0.1-0.4-0.3-0.4c-0.1,0-0.2,0-0.3,0
		c-0.2,0.1-0.3,0.2-0.5,0.3c-0.1,0-0.1,0.1-0.1,0.1c-0.4-0.4-0.8-0.7-1.1-1c1.8-1.3,4.2-2.7,5.9-2.7c0.3,0,0.7,0,1,0.1c0,0,0,0,0,0
		c0.1,0,0.1,0,0.1-0.1C111.2,38.3,111.2,38.2,111.2,38.2L111.2,38.2z"/>
	<path id="Path_5181" class="st1" d="M104.1,37.4c-0.2,0.3-0.3,0.7-0.4,1c0.4-0.2,0.8-0.3,1.2-0.4c2.2-0.5,2.3-2.4,2.4-2.8
		c-0.1,0.1-0.2,0.3-1.5,0.4c-0.7,0-1.8,0.1-2.4,1.2c0.1,0.2,0.2,0.5,0.2,0.7c0.7-1.8,2.6-1.5,2.9-1.6
		C106.1,36.1,104.8,36.2,104.1,37.4L104.1,37.4z"/>
	<path id="Path_5182" class="st1" d="M103.2,39.5l0.3-0.2c-0.1-3.5-2-3.7-2.9-3.7c-1.3-0.1-1.5-0.3-1.5-0.4c0.1,0.4,0.2,2.3,2.4,2.8
		c0.3,0,0.7,0.1,1,0.3c-0.2-2.3-2.1-2.2-2.5-2.4c0.4,0.1,3-0.5,2.9,3.4L103.2,39.5z"/>
	<path id="Path_5183" class="st1" d="M102.2,29.5c0,0.6,0.4,1.2,1.1,1.2c0.6-0.1,1.1-0.6,1.1-1.2c0-0.9-1.1-2.8-1.1-2.8
		S102.1,28.5,102.2,29.5z M103.7,30.3c-0.1,0.1-0.3,0.2-0.5,0.2c-0.5,0-0.9-0.5-0.8-1c0-0.2,0.1-0.5,0.2-0.7c0,0.1-0.1,0.2-0.1,0.3
		c0,0.6,0.4,1.1,1,1.2C103.6,30.3,103.6,30.3,103.7,30.3L103.7,30.3L103.7,30.3z"/>
	<path id="Path_5184" class="st1" d="M100.3,33.1c0,2,2.8,2.6,2.8,2.6v-0.6c0-2.1-2.8-2.6-2.8-2.6V33.1z"/>
	<path id="Path_5185" class="st1" d="M103.4,35.1v0.6c0,0,2.8-0.6,2.8-2.6v-0.6C106.2,32.5,103.4,33.1,103.4,35.1z"/>
	<path id="Path_5186" class="st1" d="M101,30.9c0,1.6,2.1,2.1,2.1,2.1v-0.5c0-1.7-2.1-2.1-2.1-2.1V30.9z"/>
	<path id="Path_5187" class="st1" d="M103.3,32.5V33c0,0,2.1-0.5,2.1-2.1v-0.5C105.5,30.4,103.3,30.9,103.3,32.5z"/>
	<path id="Path_5188" class="st1" d="M95.8,27.5c1.9-1.9,3-2.2,4.5-2.4c-1.5,1-2.9,3.2-2.5,4.8c0.8-1.7,2.2-3.3,3.5-3.9
		c-0.7,1-0.8,2.4,0,3.4c0.2-1.4,1.2-2.8,2-3.7c0.8,0.9,1.8,2.3,2,3.7c0.7-1,0.7-2.4,0-3.4c1.3,0.6,2.7,2.2,3.5,3.9
		c0.4-1.6-1-3.8-2.5-4.8c1.5,0.2,2.7,0.6,4.5,2.4c-0.6-2.5-2.8-3.4-4.5-3.7c1.9-0.2,2.3,0,3.9,0.7c-1.8-1.8-3.1-2.1-4.9-1.9
		c0.3-0.3,0.7-0.5,1.1-0.5c-0.8-0.3-2-0.1-2.4,0.3c0-0.5-0.3-0.9-0.6-1.2v0h0h0v0c-0.4,0.3-0.6,0.7-0.6,1.2
		c-0.5-0.4-1.7-0.6-2.4-0.3c0.4,0.1,0.8,0.3,1.1,0.5c-1.8-0.2-3.1,0.1-4.9,1.9c1.7-0.7,2-0.9,3.9-0.7C98.5,24.1,96.4,25,95.8,27.5
		L95.8,27.5z"/>
</g>
</svg>
