<?xml version="1.0" encoding="utf-8"?>
<!-- Generator: Adobe Illustrator 25.4.1, SVG Export Plug-In . SVG Version: 6.00 Build 0)  -->
<svg version="1.1" id="Layer_1" xmlns="http://www.w3.org/2000/svg" xmlns:xlink="http://www.w3.org/1999/xlink" x="0px" y="0px"
	 viewBox="0 0 120 60" style="enable-background:new 0 0 120 60;" xml:space="preserve">
<style type="text/css">
	.st0{fill:#5E5E5E;}
	.st1{fill:url(#SVGID_1_);}
	.st2{fill:url(#SVGID_00000142888594952864719760000016076992860437803671_);}
	.st3{fill:url(#SVGID_00000018938055318359317630000011237999533568688287_);}
	.st4{fill:url(#SVGID_00000095297505289056793690000012677310956364142738_);}
	.st5{fill:url(#SVGID_00000034811029108782905100000011888449164046755731_);}
	.st6{fill:url(#SVGID_00000147905340534446778420000001751905693550276521_);}
	.st7{fill:url(#SVGID_00000017516924863343817030000000109193112940407963_);}
	.st8{fill:url(#SVGID_00000046330063028703346580000008007271923496595876_);}
	.st9{fill:url(#SVGID_00000148658370196441428890000002700045569746113947_);}
	.st10{fill:url(#SVGID_00000002345762365223596270000016897187707572794776_);}
	.st11{fill:url(#SVGID_00000104705491035795111940000005893736183318658750_);}
	.st12{fill:url(#SVGID_00000014633552476359864260000009262788250962834054_);}
	.st13{fill:url(#SVGID_00000179605535700039993930000007069755296384872635_);}
	.st14{fill:url(#SVGID_00000177483072418967582170000005982694042675485075_);}
	.st15{fill:url(#SVGID_00000178898607584155499080000007505834881805391239_);}
	.st16{fill:url(#SVGID_00000048477766767462814970000008145319985870612126_);}
	.st17{fill:url(#SVGID_00000160170985548942822880000001308952749209402509_);}
	.st18{fill:url(#SVGID_00000060737661531609782880000002671311234318185344_);}
	.st19{fill:url(#SVGID_00000166664315769866151180000010838000537418323618_);}
	.st20{fill:url(#SVGID_00000181054037938934490270000006157406115782410413_);}
	.st21{fill:url(#SVGID_00000111871034258637617540000018375589758770478999_);}
	.st22{fill:url(#SVGID_00000102513651909742681830000015571753698440754828_);}
	.st23{fill:url(#SVGID_00000002383008727498118810000003724075692881548723_);}
	.st24{fill:url(#SVGID_00000139275137933860769850000014620606299250683536_);}
</style>
<g>
	<path class="st0" d="M5.3,24.7H4.6c-0.1-0.1-0.2-0.2-0.2-0.4c0-0.1,0.1-0.2,0.2-0.2c0,0,0,0,0,0c0.2,0,0.3,0.1,0.3,0.3h0.4
		c0-0.5-0.3-0.7-0.7-0.7c-0.3,0-0.6,0.2-0.6,0.5c0,0,0,0.1,0,0.1c0,0.2,0.1,0.3,0.2,0.4H3.8v0.4h1.4L5.3,24.7L5.3,24.7z"/>
	<path class="st0" d="M6.5,26.3c0,0.3-0.1,0.6-0.6,0.6H3.4c-0.4,0-0.7-0.3-0.7-0.7c0,0,0,0,0-0.1v-1.1H1.9v1.1
		c0,0.8,0.6,1.5,1.4,1.5c0,0,0.1,0,0.1,0h2.8c0.6,0,1.1-0.4,1.1-1c0,0,0,0,0,0v-3.9H6.5L6.5,26.3L6.5,26.3z"/>
	<path class="st0" d="M8.7,27.8c0,0.4-0.3,0.7-0.7,0.7c0,0,0,0-0.1,0H7.6v0.8H8c0.8,0,1.5-0.6,1.5-1.5c0,0,0,0,0-0.1v-3.5H8.7
		L8.7,27.8L8.7,27.8z"/>
	<path class="st0" d="M18.5,28.3c-0.3,0-0.5,0.2-0.5,0.5c0,0.3,0.2,0.5,0.5,0.5c0,0,0,0,0.1,0c0.3,0,0.5-0.2,0.5-0.5
		C19.1,28.6,18.9,28.3,18.5,28.3C18.6,28.3,18.6,28.3,18.5,28.3L18.5,28.3z"/>
	<path class="st0" d="M21.9,26.6c0,0.2-0.1,0.3-0.3,0.3c0,0,0,0,0,0h-0.9c-0.1,0-0.3,0-0.7-1c-0.7-1.5-1.8-2.1-3.1-1.7v0.7
		c1.1-0.4,1.7,0,2.2,1c0.1,0.3,0.3,0.6,0.5,0.9h-3.2c-0.2,0-0.4-0.2-0.5-0.4c0,0,0,0,0,0v-0.8c0-0.8-0.7-1.6-1.5-1.6c0,0,0,0-0.1,0
		h-0.1c-0.8,0-1.5,0.7-1.6,1.5c0,0,0,0,0,0.1v0.8c0,0.2-0.2,0.5-0.4,0.5c0,0,0,0,0,0h-0.6c-0.2,0-0.3-0.1-0.3-0.3c0,0,0,0,0,0v-3.8
		h-0.8v4.1c0,0.5,0.4,0.9,0.8,0.9c0,0,0,0,0,0h0.9c0.4,0,0.7-0.2,0.9-0.5c0.3,0.3,0.8,0.4,1.2,0.4c0.4,0,0.8-0.2,1-0.5
		c0.2,0.3,0.6,0.5,1,0.5h5.6c0.5,0,0.8-0.4,0.9-0.8c0,0,0,0,0,0v-4.1h-0.8L21.9,26.6L21.9,26.6z M15,26.2L15,26.2
		c0,0.4-0.3,0.7-0.7,0.7c-0.3,0-0.6-0.1-0.9-0.4v-0.9c0-0.4,0.3-0.7,0.7-0.7c0,0,0.1,0,0.1,0h0.1c0.4,0,0.7,0.3,0.7,0.7
		c0,0,0,0.1,0,0.1L15,26.2L15,26.2z"/>
	<polygon class="st0" points="23.7,22.8 24.5,22.8 24.5,27.8 23.7,27.8 	"/>
	<path class="st0" d="M27,24.1L27,24.1c-0.9,0-1.6,0.6-1.6,1.5c0,0,0,0,0,0.1v0.5c0,0.9,0.7,1.6,1.5,1.6h0.9v0.1
		c0,0.6-0.4,0.9-1.9,0.6v0.8c1.7,0.4,2.7-0.2,2.7-1.2v-2.4C28.6,24.8,27.9,24.1,27,24.1C27.1,24.1,27,24.1,27,24.1L27,24.1z
		 M27.7,26.9L27.7,26.9h-0.9c-0.4,0-0.7-0.4-0.7-0.7v-0.5c0-0.4,0.3-0.7,0.7-0.7c0,0,0.1,0,0.1,0H27c0.4,0,0.7,0.3,0.7,0.7
		c0,0,0,0.1,0,0.1L27.7,26.9L27.7,26.9z"/>
	<path class="st0" d="M31.7,23.5c0.3,0,0.5-0.2,0.5-0.5c0-0.3-0.2-0.5-0.5-0.5c-0.3,0-0.5,0.2-0.5,0.5
		C31.2,23.3,31.4,23.5,31.7,23.5C31.7,23.5,31.7,23.5,31.7,23.5L31.7,23.5z"/>
	<path class="st0" d="M33.1,23.5c0.3,0,0.5-0.2,0.5-0.5c0-0.3-0.2-0.5-0.5-0.5c-0.3,0-0.5,0.2-0.5,0.5
		C32.6,23.3,32.8,23.5,33.1,23.5z"/>
	<path class="st0" d="M35.9,28.6c-0.3,0-0.5,0.2-0.5,0.5c0,0.3,0.2,0.5,0.5,0.5c0.3,0,0.5-0.2,0.5-0.5c0,0,0,0,0,0
		C36.4,28.8,36.2,28.6,35.9,28.6L35.9,28.6z"/>
	<path class="st0" d="M39.1,28.4c-0.3,0-0.5,0.3-0.5,0.5c0,0.3,0.2,0.5,0.5,0.5c0.3,0,0.5-0.3,0.5-0.5
		C39.6,28.6,39.4,28.4,39.1,28.4L39.1,28.4z"/>
	<path class="st0" d="M39.5,26.9v-2.5h-0.8v2.2c0,0.2-0.1,0.3-0.3,0.3c0,0,0,0,0,0h-1.5c-0.4,0-0.6-0.3-0.6-0.6v-0.1
		c0-0.1,0-0.1,0-0.2v-1.7h-0.8v2c0,0.3-0.1,0.6-0.5,0.6h-0.6c-0.2,0-0.5-0.2-0.5-0.4c0,0,0,0,0,0v-2.4h-1.6c-0.8,0-1.5,0.7-1.6,1.5
		c0,0,0,0,0,0.1v0.5c0,0.9,0.7,1.6,1.5,1.6c0.4,0,0.8-0.1,1.1-0.5c0.2,0.3,0.6,0.5,1,0.5h0.6c0.4,0,0.7-0.1,1-0.4
		c0.2,0.2,0.5,0.4,0.9,0.4h1.9C39.1,27.8,39.4,27.4,39.5,26.9C39.5,26.9,39.5,26.9,39.5,26.9L39.5,26.9z M33.1,26.5L33.1,26.5
		c-0.2,0.3-0.5,0.4-0.9,0.4c-0.4,0-0.7-0.3-0.7-0.7c0,0,0,0,0,0v-0.5c0-0.4,0.3-0.7,0.7-0.7c0,0,0.1,0,0.1,0h0.8V26.5L33.1,26.5z"/>
	<path class="st0" d="M37.7,28.4c-0.3,0-0.5,0.2-0.5,0.5c0,0.3,0.2,0.5,0.5,0.5c0,0,0,0,0.1,0c0.3,0,0.5-0.3,0.5-0.5
		C38.2,28.6,38,28.4,37.7,28.4L37.7,28.4z"/>
	<path class="st0" d="M46.3,23.7c0.3,0,0.5-0.2,0.5-0.5c0-0.3-0.2-0.5-0.5-0.5c-0.3,0-0.5,0.2-0.5,0.5C45.8,23.5,46,23.7,46.3,23.7z
		"/>
	<path class="st0" d="M49.2,26.6c0,0.2-0.1,0.3-0.3,0.3c0,0,0,0,0,0h-0.8v-0.6c0-1.5-0.6-2.2-1.8-2.2c-0.8,0-1.5,0.5-2,1.2v-0.8
		h-0.8v2.4h-1.1v-2.6h-0.8v3.5c0,0.4-0.3,0.7-0.6,0.7c0,0,0,0-0.1,0h-0.4v0.8h0.4c0.8,0,1.5-0.6,1.5-1.5c0,0,0,0,0-0.1v-0.1h6.9
		c0.5,0,0.8-0.4,0.8-0.8c0,0,0,0,0,0v-4.1h-0.8L49.2,26.6L49.2,26.6z M47.3,26.9L47.3,26.9h-3.1v-0.8c0.6-0.7,1.3-1.1,1.9-1.1
		s1.1,0.4,1.1,1.3L47.3,26.9L47.3,26.9z"/>
	<polygon class="st0" points="51,22.8 51.9,22.8 51.9,27.8 51,27.8 	"/>
	<path class="st0" d="M54.4,24.1L54.4,24.1c-0.9,0-1.6,0.6-1.6,1.5c0,0,0,0,0,0.1v0.5c0,0.9,0.7,1.6,1.5,1.6h0.9v0.1
		c0,0.6-0.4,0.9-1.8,0.6v0.8c1.7,0.4,2.7-0.2,2.7-1.2v-2.4C55.9,24.8,55.3,24.1,54.4,24.1C54.4,24.1,54.4,24.1,54.4,24.1L54.4,24.1z
		 M55.1,26.9L55.1,26.9h-0.9c-0.4,0-0.7-0.4-0.7-0.7v-0.5c0-0.4,0.3-0.7,0.7-0.7c0,0,0.1,0,0.1,0h0.1c0.4,0,0.7,0.3,0.7,0.7
		c0,0,0,0.1,0,0.1L55.1,26.9L55.1,26.9z"/>
	<path class="st0" d="M60.5,23.6c0.3,0,0.5-0.3,0.5-0.5c0-0.3-0.2-0.5-0.5-0.5c-0.3,0-0.5,0.3-0.5,0.5C60,23.4,60.2,23.6,60.5,23.6z
		"/>
	<path class="st0" d="M59.1,23.6c0.3,0,0.5-0.2,0.5-0.5c0-0.3-0.2-0.5-0.5-0.5c-0.3,0-0.5,0.2-0.5,0.5
		C58.6,23.4,58.8,23.6,59.1,23.6C59.1,23.6,59.1,23.6,59.1,23.6L59.1,23.6z"/>
	<path class="st0" d="M59.7,24.1h-0.1c-0.8,0-1.5,0.7-1.5,1.5l0,0v0.6c0,0.8,0.7,1.5,1.5,1.5c0,0,0,0,0,0h0.2c0.8,0,1.5-0.7,1.5-1.5
		c0,0,0,0,0,0v-0.7C61.2,24.8,60.5,24.1,59.7,24.1C59.7,24.1,59.7,24.1,59.7,24.1L59.7,24.1z M60.4,26.3L60.4,26.3
		c0,0.3-0.3,0.6-0.6,0.6h-0.2c-0.4,0-0.7-0.3-0.7-0.7v-0.6c0-0.4,0.3-0.7,0.7-0.7c0,0,0,0,0,0h0.1c0.4,0,0.7,0.3,0.7,0.7
		c0,0,0,0,0,0L60.4,26.3L60.4,26.3z"/>
	<path class="st0" d="M69.9,23.7c0.3,0,0.5-0.2,0.5-0.5c0-0.3-0.2-0.5-0.5-0.5c-0.3,0-0.5,0.2-0.5,0.5c0,0,0,0,0,0
		C69.4,23.4,69.7,23.7,69.9,23.7z"/>
	<path class="st0" d="M71.6,26.6c0,0.2-0.1,0.3-0.3,0.3c0,0,0,0,0,0h-1v-2.6h-0.8v3.5c0,0.4-0.3,0.7-0.6,0.7c0,0,0,0-0.1,0h-0.4v0.8
		h0.4c0.8,0,1.5-0.6,1.5-1.5c0,0,0,0,0-0.1v-0.1h1.2c0.5,0,0.8-0.4,0.9-0.8c0,0,0,0,0,0v-4.1h-0.8V26.6L71.6,26.6z"/>
	<polygon class="st0" points="73.4,22.8 74.2,22.8 74.2,27.8 73.4,27.8 	"/>
	<path class="st0" d="M77.5,23.5c0.3,0,0.5-0.2,0.5-0.5c0-0.3-0.2-0.5-0.5-0.5c-0.3,0-0.5,0.2-0.5,0.5C77,23.3,77.3,23.5,77.5,23.5
		C77.5,23.5,77.5,23.5,77.5,23.5L77.5,23.5z"/>
	<path class="st0" d="M78.9,23.5c0.3,0,0.5-0.2,0.5-0.5c0-0.3-0.2-0.5-0.5-0.5c-0.3,0-0.5,0.2-0.5,0.5
		C78.4,23.3,78.7,23.5,78.9,23.5z"/>
	<path class="st0" d="M82.3,23.3h-0.7c-0.2-0.1-0.3-0.2-0.3-0.4c0-0.1,0.1-0.2,0.2-0.3c0,0,0,0,0,0c0.2,0,0.3,0.1,0.3,0.3h0.4
		c0-0.5-0.3-0.7-0.7-0.7c-0.3,0-0.6,0.2-0.7,0.6c0,0,0,0.1,0,0.1c0,0.2,0.1,0.3,0.2,0.5h-0.3v0.5h1.5L82.3,23.3L82.3,23.3z"/>
	<path class="st0" d="M83.5,28.4c-0.3,0-0.5,0.2-0.5,0.5c0,0.3,0.2,0.5,0.5,0.5c0.3,0,0.5-0.2,0.5-0.5c0,0,0,0,0,0
		C84,28.6,83.8,28.4,83.5,28.4L83.5,28.4z"/>
	<path class="st0" d="M84.9,28.4c-0.3,0-0.5,0.2-0.5,0.5c0,0.3,0.2,0.5,0.5,0.5c0.3,0,0.5-0.2,0.5-0.5c0,0,0,0,0,0
		C85.4,28.6,85.2,28.4,84.9,28.4L84.9,28.4z"/>
	<path class="st0" d="M87.6,24.2v0.4c-0.6,0.1-1,0.7-1,1.3v0.4c0,0.2,0.1,0.5,0.3,0.7h-1.6c-0.4,0-0.6-0.3-0.6-0.6v-0.1
		c0-0.1,0-0.1,0-0.2v-1.6h-0.8v2c0,0.3-0.1,0.6-0.5,0.6h-0.9c-0.4,0-0.6-0.3-0.6-0.6v-2h-0.8v2c0,0.3-0.1,0.6-0.5,0.6h-0.4
		c-0.2,0-0.5-0.2-0.5-0.4c0,0,0,0,0,0v-2.4h-1.6c-0.8,0-1.5,0.7-1.6,1.5c0,0,0,0,0,0.1v0.5c0,0.9,0.7,1.6,1.5,1.6
		c0.4,0,0.8-0.1,1.1-0.5c0.2,0.3,0.6,0.5,1,0.5h0.4c0.4,0,0.7-0.1,1-0.4c0.2,0.2,0.5,0.4,0.8,0.4h1c0.4,0,0.7-0.1,1-0.4
		c0.2,0.2,0.5,0.4,0.9,0.4h4.6c0.8,0,1.5-0.7,1.5-1.5c0,0,0,0,0,0v-0.5C91.3,24.6,89.8,23.7,87.6,24.2L87.6,24.2z M78.9,26.5
		L78.9,26.5c-0.2,0.3-0.5,0.4-0.9,0.4c-0.4,0-0.7-0.3-0.7-0.7c0,0,0,0,0,0v-0.5c0-0.4,0.3-0.7,0.7-0.7c0,0,0.1,0,0.1,0h0.8V26.5
		L78.9,26.5z M88.7,26.9L88.7,26.9H88c-0.4,0-0.7-0.3-0.7-0.7v-0.3c0-0.4,0.2-0.7,0.7-0.7c0.3,0,0.7,0.2,0.7,0.6c0,0,0,0.1,0,0.1
		L88.7,26.9L88.7,26.9z M89.8,26.9L89.8,26.9h-0.4v-1c0-0.5-0.3-1-0.8-1.1c1.1-0.1,1.9,0.3,1.9,0.9v0.5
		C90.5,26.6,90.2,26.9,89.8,26.9L89.8,26.9z"/>
	<path class="st0" d="M68,26.4c0,0.8-0.6,1.4-1.4,1.4H63c-0.5,0-0.8-0.4-0.9-0.8c0,0,0,0,0,0v-4.1h0.8v3.8c0,0.2,0.1,0.3,0.3,0.3
		c0,0,0,0,0,0h3.4c0.3,0,0.6-0.3,0.6-0.6c0,0,0,0,0,0c0-0.4-0.3-0.7-0.8-0.7h-2.1L64.1,25l1.3-2.2l0.8,0.3l-1,1.7h1.3
		C67.3,24.8,68,25.5,68,26.4C68,26.4,68,26.4,68,26.4L68,26.4z"/>
	<polygon class="st0" points="4.9,35 4.9,35.7 1.9,35.7 1.9,35.1 3.8,32.2 2,32.2 2,31.6 4.8,31.6 4.8,32.1 2.9,35 	"/>
	<path class="st0" d="M5.8,33.2l-0.1-0.5c1-0.4,2.3-0.4,2.3,0.8v2H7.2v-0.4c-0.2,0.3-0.6,0.4-0.9,0.4c-0.4,0-0.8-0.3-0.8-0.7
		c0,0,0-0.1,0-0.1c0-0.7,0.7-1.1,1.7-1.1v-0.2C7.2,32.9,6.5,33,5.8,33.2L5.8,33.2z M6.1,34.8L6.1,34.8c0,0.2,0.2,0.4,0.4,0.4
		c0.2,0,0.5-0.1,0.6-0.3v-0.7C6.5,34.1,6.1,34.5,6.1,34.8L6.1,34.8z"/>
	<path class="st0" d="M12,33.2l-0.1-0.5c1-0.4,2.3-0.4,2.3,0.8v2h-0.7v-0.4c-0.2,0.3-0.6,0.4-0.9,0.4c-0.4,0-0.8-0.3-0.8-0.7
		c0,0,0-0.1,0-0.1c0-0.7,0.7-1.1,1.7-1.1v-0.2C13.4,32.9,12.6,33,12,33.2L12,33.2z M12.3,34.8L12.3,34.8c0,0.2,0.2,0.4,0.4,0.4
		c0.2,0,0.5-0.1,0.6-0.3v-0.7C12.7,34.1,12.3,34.5,12.3,34.8L12.3,34.8z"/>
	<path class="st0" d="M15.7,34.9c0,0.2,0.1,0.3,0.2,0.3c0,0,0,0,0.1,0c0.1,0,0.2,0,0.3,0v0.5c-0.2,0-0.4,0-0.6,0
		c-0.6,0-0.7-0.3-0.7-0.8v-1.7h-0.4l0.1-0.5H15V32l0.7-0.2v0.9h0.6l-0.1,0.5h-0.5L15.7,34.9L15.7,34.9z"/>
	<path class="st0" d="M17.4,36.6h-0.4c0.1-0.4,0.2-0.8,0.2-1.3l0-0.2h0.5l0,0.2C17.6,35.8,17.5,36.2,17.4,36.6L17.4,36.6z"/>
	<polygon class="st0" points="20.6,32.2 20.6,35.7 19.8,35.7 19.8,32.2 18.7,32.2 18.7,31.6 21.7,31.6 21.7,32.2 	"/>
	<path class="st0" d="M22.6,33.2l-0.1-0.5c1-0.4,2.3-0.4,2.3,0.8v2H24v-0.4c-0.2,0.3-0.6,0.4-0.9,0.4c-0.4,0-0.8-0.3-0.8-0.7
		c0,0,0-0.1,0-0.1c0-0.7,0.7-1.1,1.7-1.1v-0.2C24,32.9,23.3,33,22.6,33.2L22.6,33.2z M22.9,34.8L22.9,34.8c0,0.2,0.2,0.4,0.4,0.4
		c0.2,0,0.5-0.1,0.6-0.3v-0.7C23.3,34.1,22.9,34.5,22.9,34.8L22.9,34.8z"/>
	<polygon class="st0" points="26.2,32.7 26.6,33.3 26.8,33.7 27.1,33.3 27.5,32.7 28.3,32.7 27.3,34.1 28.3,35.7 27.4,35.7 27,35 
		26.8,34.6 26.5,35 26.1,35.7 25.3,35.7 26.3,34.1 25.3,32.7 	"/>
	<path class="st0" d="M30.4,33.2l-0.1-0.5c1-0.4,2.3-0.4,2.3,0.8v2h-0.7v-0.4c-0.2,0.3-0.6,0.4-0.9,0.4c-0.4,0-0.8-0.3-0.8-0.7
		c0,0,0-0.1,0-0.1c0-0.7,0.7-1.1,1.7-1.1v-0.2C31.9,32.9,31.1,33,30.4,33.2L30.4,33.2z M30.8,34.8L30.8,34.8c0,0.2,0.2,0.4,0.4,0.4
		c0.2,0,0.5-0.1,0.6-0.3v-0.7C31.1,34.1,30.8,34.5,30.8,34.8L30.8,34.8z"/>
	<path class="st0" d="M33.4,35.6v-3h0.7v0.3c0.3-0.2,0.6-0.3,1-0.3c0.6,0,0.9,0.3,0.9,1v2.1h-0.7v-1.8c0-0.3-0.1-0.5-0.5-0.5
		c-0.2,0-0.5,0.1-0.7,0.3v2.1L33.4,35.6L33.4,35.6z"/>
	<path class="st0" d="M37.8,35.7c-0.8,0-1.1-0.7-1.1-1.6c0-0.9,0.4-1.6,1.2-1.6c0.3,0,0.6,0.1,0.8,0.3v-1.3h0.7v4.1h-0.7v-0.3
		C38.4,35.6,38.1,35.7,37.8,35.7L37.8,35.7z M38,33.2L38,33.2c-0.4,0-0.7,0.4-0.7,1c0,0.6,0.2,1,0.7,1c0.2,0,0.4-0.1,0.6-0.2v-1.5
		C38.4,33.2,38.2,33.2,38,33.2z"/>
	<path class="st0" d="M43.2,35.7c-1.3,0-1.8-0.8-1.8-2.1c0-1.2,0.5-2.1,1.8-2.1c0.5,0,0.9,0.1,1.4,0.3v0.6c-0.4-0.1-0.8-0.2-1.3-0.3
		c-0.7,0-1.1,0.5-1.1,1.4c0,1,0.4,1.4,1.1,1.4c0.4,0,0.9-0.1,1.3-0.3v0.6C44.1,35.6,43.6,35.7,43.2,35.7L43.2,35.7z"/>
	<path class="st0" d="M47.9,32.7v3h-0.7v-0.3c-0.3,0.2-0.6,0.3-1,0.3c-0.6,0-0.9-0.3-0.9-1v-2.1H46v1.8c0,0.3,0.1,0.5,0.5,0.5
		c0.2,0,0.5-0.1,0.7-0.3v-2.1L47.9,32.7L47.9,32.7z"/>
	<path class="st0" d="M48.6,35.5v-0.5c0.3,0.2,0.7,0.2,1,0.2c0.4,0,0.6-0.2,0.6-0.4c0-0.2-0.3-0.3-0.6-0.4c-0.4-0.1-0.9-0.3-0.9-0.9
		c0-0.6,0.5-1,1.3-1c0.4,0,0.7,0.1,1,0.2v0.5c-0.2-0.1-0.5-0.2-0.8-0.2c-0.5,0-0.7,0.2-0.7,0.4c0,0.2,0.3,0.3,0.7,0.5
		c0.4,0.1,0.9,0.3,0.9,0.9c0,0.6-0.5,1-1.3,1C49.3,35.7,48.9,35.6,48.6,35.5L48.6,35.5z"/>
	<path class="st0" d="M52.5,34.9c0,0.1,0.1,0.3,0.2,0.3c0,0,0,0,0.1,0c0.1,0,0.2,0,0.3,0v0.5c-0.2,0-0.4,0-0.6,0
		c-0.6,0-0.7-0.3-0.7-0.8v-1.7h-0.4l0.1-0.5h0.3V32l0.7-0.2v0.9h0.6L53,33.3h-0.5L52.5,34.9L52.5,34.9z"/>
	<path class="st0" d="M53.6,34.1c0-0.9,0.4-1.6,1.4-1.6c1,0,1.4,0.7,1.4,1.6c0,0.9-0.4,1.6-1.4,1.6C54,35.7,53.6,35,53.6,34.1z
		 M54.2,34.1L54.2,34.1c0,0.6,0.2,1,0.7,1c0.5,0,0.7-0.5,0.7-1c0-0.6-0.2-1-0.7-1S54.2,33.6,54.2,34.1z"/>
	<path class="st0" d="M61.4,33.6v2.1h-0.7v-1.8c0-0.3-0.1-0.5-0.5-0.5c-0.2,0-0.5,0.1-0.7,0.3c0,0.1,0,0.2,0,0.2v1.8h-0.7v-1.8
		c0-0.3-0.1-0.5-0.5-0.5c-0.2,0-0.5,0.1-0.6,0.3v2.1H57v-3h0.7v0.4c0.2-0.3,0.6-0.4,0.9-0.5c0.4,0,0.7,0.2,0.8,0.5
		c0.4-0.3,0.7-0.5,1-0.5C61.1,32.6,61.4,33,61.4,33.6L61.4,33.6z"/>
	<path class="st0" d="M62.1,35.5v-0.5c0.3,0.2,0.7,0.2,1,0.2c0.4,0,0.6-0.2,0.6-0.4c0-0.2-0.3-0.3-0.6-0.4c-0.4-0.1-0.9-0.3-0.9-0.9
		c0-0.6,0.4-1,1.3-1c0.4,0,0.7,0.1,1,0.2v0.5C64.2,33.1,64,33,63.7,33c-0.5,0-0.7,0.2-0.7,0.4c0,0.2,0.3,0.3,0.7,0.5
		c0.4,0.1,0.9,0.3,0.9,0.9c0,0.6-0.5,1-1.2,1C62.9,35.7,62.5,35.6,62.1,35.5L62.1,35.5z"/>
	<path class="st0" d="M67.4,34.7l-0.3,1h-0.8l1.5-4.1h0.6l1.5,4.1h-0.8l-0.3-1H67.4z M67.6,34.1L67.6,34.1h1.1l-0.6-1.7L67.6,34.1z"
		/>
	<path class="st0" d="M73.1,32.7v3h-0.7v-0.3c-0.3,0.2-0.6,0.3-1,0.3c-0.6,0-0.9-0.3-0.9-1v-2.1h0.7v1.8c0,0.3,0.1,0.5,0.5,0.5
		c0.2,0,0.5-0.1,0.7-0.3v-2.1L73.1,32.7L73.1,32.7z"/>
	<path class="st0" d="M74.7,34.9c0,0.1,0.1,0.3,0.2,0.3c0,0,0,0,0.1,0c0.1,0,0.2,0,0.3,0v0.5c-0.2,0-0.4,0-0.6,0
		c-0.6,0-0.7-0.3-0.7-0.8v-1.7h-0.4l0.1-0.5H74V32l0.7-0.2v0.9h0.6l-0.1,0.5h-0.5L74.7,34.9L74.7,34.9z"/>
	<path class="st0" d="M78.4,33.6v2.1h-0.7v-1.8c0-0.3-0.2-0.5-0.4-0.5c-0.3,0-0.5,0.1-0.7,0.3v2.1h-0.7v-4h0.7v1.3
		c0.3-0.2,0.6-0.3,0.9-0.3C78,32.6,78.4,32.9,78.4,33.6L78.4,33.6z"/>
	<path class="st0" d="M79.1,34.1c0-0.9,0.4-1.6,1.4-1.6c1,0,1.4,0.7,1.4,1.6c0,0.9-0.4,1.6-1.4,1.6C79.6,35.7,79.1,35,79.1,34.1z
		 M79.8,34.1L79.8,34.1c0,0.6,0.2,1,0.7,1c0.5,0,0.7-0.5,0.7-1c0-0.6-0.2-1-0.7-1C80,33.1,79.8,33.6,79.8,34.1z"/>
	<path class="st0" d="M82.6,35.6v-3h0.7v0.6c0.2-0.4,0.6-0.6,1-0.6v0.6c-0.4,0-0.9,0.3-1,0.5v1.9L82.6,35.6L82.6,35.6z"/>
	<path class="st0" d="M84.9,32c0-0.2,0.2-0.4,0.4-0.4s0.4,0.2,0.4,0.4s-0.2,0.4-0.4,0.4S84.9,32.2,84.9,32z M85.6,35.6L85.6,35.6
		h-0.7v-2.9h0.7L85.6,35.6z"/>
	<path class="st0" d="M87.4,34.9c0,0.1,0.1,0.3,0.2,0.3c0,0,0,0,0.1,0c0.1,0,0.2,0,0.3,0v0.5c-0.2,0-0.4,0-0.6,0
		c-0.6,0-0.7-0.3-0.7-0.8v-1.7h-0.4l0.1-0.5h0.3V32l0.7-0.2v0.9H88l-0.1,0.5h-0.5L87.4,34.9L87.4,34.9z"/>
	<polygon class="st0" points="91.3,32.7 89.9,36.7 89.2,36.7 89.5,35.9 88.3,32.7 89.2,32.7 89.9,35 90.6,32.7 	"/>
	<polygon class="st0" points="11.2,35.6 10.3,35.6 9.4,34.3 9.4,35.6 8.7,35.6 8.7,31.6 9.4,31.6 9.4,33.9 10.3,32.6 11.1,32.6 
		10,34 	"/>
	
		<linearGradient id="SVGID_1_" gradientUnits="userSpaceOnUse" x1="-8.5264" y1="66.5063" x2="-8.558" y2="66.4783" gradientTransform="matrix(55.6768 0 0 -38.5229 577.5935 2582.2493)">
		<stop  offset="0" style="stop-color:#62B34F"/>
		<stop  offset="0.4588" style="stop-color:#50BAB3"/>
		<stop  offset="1" style="stop-color:#0093D3"/>
	</linearGradient>
	<polygon class="st1" points="96.8,24.2 107.1,17.2 107.2,17.4 96.9,24.4 	"/>
	
		<linearGradient id="SVGID_00000139278033152796631150000017417272271220002495_" gradientUnits="userSpaceOnUse" x1="-10.8779" y1="67.8645" x2="-10.9096" y2="67.8365" gradientTransform="matrix(44.7595 0 0 -31.0673 588.5792 2128.1355)">
		<stop  offset="0" style="stop-color:#62B34F"/>
		<stop  offset="0.4588" style="stop-color:#50BAB3"/>
		<stop  offset="1" style="stop-color:#0093D3"/>
	</linearGradient>
	<polygon style="fill:url(#SVGID_00000139278033152796631150000017417272271220002495_);" points="96.8,22.9 105,17.3 105.2,17.5 
		96.9,23.1 	"/>
	
		<linearGradient id="SVGID_00000075134041345487594680000011666223971946402957_" gradientUnits="userSpaceOnUse" x1="-16.0014" y1="70.8078" x2="-16.0331" y2="70.7798" gradientTransform="matrix(31.3582 0 0 -22.001 602.0029 1577.306)">
		<stop  offset="0" style="stop-color:#62B34F"/>
		<stop  offset="0.4588" style="stop-color:#50BAB3"/>
		<stop  offset="1" style="stop-color:#0093D3"/>
	</linearGradient>
	<polygon style="fill:url(#SVGID_00000075134041345487594680000011666223971946402957_);" points="96.8,21.6 102.5,17.7 102.7,17.9 
		96.9,21.8 	"/>
	
		<linearGradient id="SVGID_00000173842909116731812750000003007641854731513496_" gradientUnits="userSpaceOnUse" x1="-38.8541" y1="83.518" x2="-38.8857" y2="83.49" gradientTransform="matrix(13.4273 0 0 -9.8194 619.9784 839.5913)">
		<stop  offset="0" style="stop-color:#62B34F"/>
		<stop  offset="0.4588" style="stop-color:#50BAB3"/>
		<stop  offset="1" style="stop-color:#0093D3"/>
	</linearGradient>
	<polygon style="fill:url(#SVGID_00000173842909116731812750000003007641854731513496_);" points="96.8,20.4 99.2,18.7 99.3,18.9 
		96.9,20.6 	"/>
	
		<linearGradient id="SVGID_00000076568636520773560490000013828318669497094272_" gradientUnits="userSpaceOnUse" x1="-4.1602" y1="64.1166" x2="-4.1919" y2="64.0886" gradientTransform="matrix(103.42 0 0 -74.4501 540.3061 4801.834)">
		<stop  offset="0" style="stop-color:#62B34F"/>
		<stop  offset="0.4588" style="stop-color:#50BAB3"/>
		<stop  offset="1" style="stop-color:#0093D3"/>
	</linearGradient>
	<polygon style="fill:url(#SVGID_00000076568636520773560490000013828318669497094272_);" points="112.4,26.2 112.4,26.2 
		110.7,27.4 110.7,27.4 102.1,33.2 102.3,33.5 101.1,34.3 101.2,34.4 98.7,36.2 98.9,36.4 101.6,34.4 102.5,33.8 111.2,27.9 
		111.1,27.6 112.6,26.6 112.5,26.4 118.1,22.6 118,22.4 	"/>
	
		<linearGradient id="SVGID_00000134233955361324305820000001364760549509259189_" gradientUnits="userSpaceOnUse" x1="1519.054" y1="-334.0013" x2="1474.954" y2="-362.0845" gradientTransform="matrix(7.199994e-02 0 0 -7.199994e-02 0.928 5.3923)">
		<stop  offset="0" style="stop-color:#62B34F"/>
		<stop  offset="0.4588" style="stop-color:#50BAB3"/>
		<stop  offset="1" style="stop-color:#0093D3"/>
	</linearGradient>
	<polygon style="fill:url(#SVGID_00000134233955361324305820000001364760549509259189_);" points="112.8,27.2 112.8,27.2 
		111.1,28.4 111.1,28.4 102.8,34.1 102.9,34.3 101.7,35.2 101.8,35.3 99.3,37 99.5,37.2 101.9,35.5 101.9,35.5 103.1,34.6 
		103.1,34.6 111.5,29 111.3,28.7 113.1,27.5 113,27.4 118.1,23.9 118,23.7 	"/>
	
		<linearGradient id="SVGID_00000068667909170645285690000005498154682178947753_" gradientUnits="userSpaceOnUse" x1="-4.5903" y1="64.4906" x2="-4.622" y2="64.4626" gradientTransform="matrix(96.58 0 0 -69.7492 553.9063 4528.6914)">
		<stop  offset="0" style="stop-color:#62B34F"/>
		<stop  offset="0.4588" style="stop-color:#50BAB3"/>
		<stop  offset="1" style="stop-color:#0093D3"/>
	</linearGradient>
	<polygon style="fill:url(#SVGID_00000068667909170645285690000005498154682178947753_);" points="113.3,28.1 113.3,28.1 
		111.8,29.1 111.8,29.1 103.3,34.9 103.5,35.2 102.4,36 102.5,36.1 100,37.8 100.1,38 102.6,36.3 102.6,36.3 103.7,35.5 103.7,35.5 
		112.2,29.7 112,29.5 113.5,28.5 113.4,28.3 118.1,25.2 118,25 	"/>
	
		<linearGradient id="SVGID_00000112592972835063686920000013999157230394358943_" gradientUnits="userSpaceOnUse" x1="-4.8685" y1="64.7215" x2="-4.9001" y2="64.6935" gradientTransform="matrix(92.6193 0 0 -66.97 561.7872 4365.9697)">
		<stop  offset="0" style="stop-color:#62B34F"/>
		<stop  offset="0.4588" style="stop-color:#50BAB3"/>
		<stop  offset="1" style="stop-color:#0093D3"/>
	</linearGradient>
	<polygon style="fill:url(#SVGID_00000112592972835063686920000013999157230394358943_);" points="114,28.9 114,28.9 112.5,29.9 
		112.5,29.9 104,35.8 104.1,36 102.7,37 102.8,37.2 100.7,38.6 100.9,38.8 103.2,37.2 103.2,37.2 104.7,36.1 113,30.5 112.8,30.2 
		114.2,29.3 114.1,29.1 118.1,26.4 117.9,26.2 	"/>
	
		<linearGradient id="SVGID_00000011032392715144921430000000905574367193267132_" gradientUnits="userSpaceOnUse" x1="-5.2165" y1="64.9802" x2="-5.2481" y2="64.9522" gradientTransform="matrix(88.0998 0 0 -64.0598 570.7867 4195.2256)">
		<stop  offset="0" style="stop-color:#62B34F"/>
		<stop  offset="0.4588" style="stop-color:#50BAB3"/>
		<stop  offset="1" style="stop-color:#0093D3"/>
	</linearGradient>
	<polygon style="fill:url(#SVGID_00000011032392715144921430000000905574367193267132_);" points="114.9,29.6 114.9,29.6 
		113.2,30.7 113.2,30.7 105.8,35.8 106,36 104.2,37.3 104.3,37.4 101.6,39.3 101.7,39.5 104.7,37.4 106.2,36.4 106.2,36.4 
		113.7,31.3 113.5,31 115.1,29.9 115,29.8 118.1,27.7 117.9,27.5 	"/>
	
		<linearGradient id="SVGID_00000062164383695942625960000001241197428232281769_" gradientUnits="userSpaceOnUse" x1="-5.6741" y1="65.338" x2="-5.7058" y2="65.31" gradientTransform="matrix(82.7898 0 0 -60.1898 581.3765 3966.3157)">
		<stop  offset="0" style="stop-color:#62B34F"/>
		<stop  offset="0.4588" style="stop-color:#50BAB3"/>
		<stop  offset="1" style="stop-color:#0093D3"/>
	</linearGradient>
	<polygon style="fill:url(#SVGID_00000062164383695942625960000001241197428232281769_);" points="116.8,29.7 116.7,29.6 
		114.8,30.9 107.6,35.8 107.8,36.1 105.9,37.4 106,37.5 102.6,39.9 102.7,40.1 106.3,37.6 108.2,36.3 115.2,31.5 115.1,31.2 
		116.9,29.9 116.8,29.8 116.9,29.9 118.1,29 117.9,28.8 	"/>
	
		<linearGradient id="SVGID_00000001642983021812421350000005847305833908447372_" gradientUnits="userSpaceOnUse" x1="-6.1867" y1="65.6599" x2="-6.2184" y2="65.6319" gradientTransform="matrix(77.5403 0 0 -57.2198 591.7257 3791.6741)">
		<stop  offset="0" style="stop-color:#62B34F"/>
		<stop  offset="0.4588" style="stop-color:#50BAB3"/>
		<stop  offset="1" style="stop-color:#0093D3"/>
	</linearGradient>
	<polygon style="fill:url(#SVGID_00000001642983021812421350000005847305833908447372_);" points="116.8,30.8 116.8,30.8 
		115.7,31.5 115.7,31.5 111.5,34.4 111.7,34.7 109.9,35.9 110,36.1 103.5,40.6 103.7,40.8 110.4,36.1 111.9,35 111.9,35 116.1,32.1 
		116,31.9 117,31.2 116.9,31 118,30.3 117.9,30.1 	"/>
	
		<linearGradient id="SVGID_00000119096230241230774840000007276784475894836885_" gradientUnits="userSpaceOnUse" x1="1547.0537" y1="-420.7617" x2="1515.7109" y2="-441.3073" gradientTransform="matrix(7.199994e-02 0 0 -7.199994e-02 0.928 5.3923)">
		<stop  offset="0" style="stop-color:#62B34F"/>
		<stop  offset="0.4588" style="stop-color:#50BAB3"/>
		<stop  offset="1" style="stop-color:#0093D3"/>
	</linearGradient>
	<polygon style="fill:url(#SVGID_00000119096230241230774840000007276784475894836885_);" points="117,32 117,32 116,32.6 116,32.6 
		112.6,34.9 112.8,35.2 111.2,36.3 111.3,36.4 104.5,41.2 104.7,41.4 111.8,36.4 111.8,36.4 113.2,35.4 116.4,33.2 116.2,33 
		117.2,32.3 117.1,32.1 117.9,31.6 117.8,31.5 	"/>
	
		<linearGradient id="SVGID_00000133521138417810608500000002319494857501047214_" gradientUnits="userSpaceOnUse" x1="-7.1145" y1="65.3881" x2="-7.1462" y2="65.3601" gradientTransform="matrix(65.2298 0 0 -48.2198 567.9866 3174.0654)">
		<stop  offset="0" style="stop-color:#62B34F"/>
		<stop  offset="0.4588" style="stop-color:#50BAB3"/>
		<stop  offset="1" style="stop-color:#0093D3"/>
	</linearGradient>
	<polygon style="fill:url(#SVGID_00000133521138417810608500000002319494857501047214_);" points="97.7,25.7 98.7,25 102.3,22.5 
		102.1,22.3 103.7,21.2 103.6,21.1 109,17.4 108.8,17.2 103.5,20.9 103.5,20.9 101.9,22 101.9,22 98.1,24.6 98.3,24.8 97.3,25.5 
		97.4,25.6 96.8,26.1 96.9,26.3 	"/>
	
		<linearGradient id="SVGID_00000174577993278040366100000014061995748538865073_" gradientUnits="userSpaceOnUse" x1="-6.1748" y1="64.9144" x2="-6.2065" y2="64.8864" gradientTransform="matrix(73.6394 0 0 -54.1296 559.5272 3535.5012)">
		<stop  offset="0" style="stop-color:#62B34F"/>
		<stop  offset="0.4588" style="stop-color:#50BAB3"/>
		<stop  offset="1" style="stop-color:#0093D3"/>
	</linearGradient>
	<polygon style="fill:url(#SVGID_00000174577993278040366100000014061995748538865073_);" points="98.3,26.5 98.3,26.5 99.3,25.9 
		103.7,22.8 103.6,22.6 104.8,21.7 104.7,21.6 110.5,17.6 110.4,17.4 104.6,21.4 104.6,21.4 103.3,22.2 98.6,25.5 98.8,25.7 
		98,26.3 98,26.4 96.8,27.3 96.9,27.5 	"/>
	
		<linearGradient id="SVGID_00000008114678305819774960000012769832107147237007_" gradientUnits="userSpaceOnUse" x1="-5.4799" y1="64.5696" x2="-5.5116" y2="64.5416" gradientTransform="matrix(81.4002 0 0 -59.5598 551.7261 3868.165)">
		<stop  offset="0" style="stop-color:#62B34F"/>
		<stop  offset="0.4588" style="stop-color:#50BAB3"/>
		<stop  offset="1" style="stop-color:#0093D3"/>
	</linearGradient>
	<polygon style="fill:url(#SVGID_00000008114678305819774960000012769832107147237007_);" points="98.5,27.7 99.8,26.8 104.7,23.5 
		104.5,23.2 105.8,22.3 105.7,22.2 112,17.9 111.9,17.7 105.6,22 105.6,22 104.2,22.9 104.2,22.9 99.1,26.4 99.3,26.7 98.2,27.4 
		98.3,27.6 96.8,28.6 96.9,28.8 	"/>
	
		<linearGradient id="SVGID_00000143603009302287865900000015317973034378577068_" gradientUnits="userSpaceOnUse" x1="-4.9184" y1="64.3214" x2="-4.9501" y2="64.2934" gradientTransform="matrix(88.9897 0 0 -64.3795 544.187 4164.146)">
		<stop  offset="0" style="stop-color:#62B34F"/>
		<stop  offset="0.4588" style="stop-color:#50BAB3"/>
		<stop  offset="1" style="stop-color:#0093D3"/>
	</linearGradient>
	<polygon style="fill:url(#SVGID_00000143603009302287865900000015317973034378577068_);" points="99,28.6 100.4,27.6 105.6,24.1 
		105.4,23.8 106.8,22.9 106.7,22.8 113.4,18.2 113.3,18 106.5,22.6 106.5,22.6 105.2,23.5 99.6,27.3 99.8,27.6 98.5,28.5 98.6,28.6 
		96.8,29.9 96.9,30.1 	"/>
	
		<linearGradient id="SVGID_00000079454681043014907310000017086363739855575954_" gradientUnits="userSpaceOnUse" x1="-4.5773" y1="64.1571" x2="-4.609" y2="64.1291" gradientTransform="matrix(94.4099 0 0 -68.2689 539.3464 4403.8721)">
		<stop  offset="0" style="stop-color:#62B34F"/>
		<stop  offset="0.4588" style="stop-color:#50BAB3"/>
		<stop  offset="1" style="stop-color:#0093D3"/>
	</linearGradient>
	<polygon style="fill:url(#SVGID_00000079454681043014907310000017086363739855575954_);" points="99.7,29.4 100.5,28.8 100.5,28.8 
		106.5,24.8 106.3,24.5 107.9,23.4 107.8,23.3 114.5,18.7 114.4,18.5 107.6,23.1 107.6,23.1 106.1,24.2 106.1,24.2 100.1,28.2 
		100.3,28.5 99.2,29.3 99.3,29.4 96.9,31.1 97,31.3 99.7,29.4 	"/>
	
		<linearGradient id="SVGID_00000136378732055135797220000001219593385041063057_" gradientUnits="userSpaceOnUse" x1="-4.2659" y1="64.006" x2="-4.2976" y2="63.978" gradientTransform="matrix(100.0504 0 0 -72.1792 534.8356 4644.5518)">
		<stop  offset="0" style="stop-color:#62B34F"/>
		<stop  offset="0.4588" style="stop-color:#50BAB3"/>
		<stop  offset="1" style="stop-color:#0093D3"/>
	</linearGradient>
	<polygon style="fill:url(#SVGID_00000136378732055135797220000001219593385041063057_);" points="100.2,30.3 101.3,29.6 
		107.4,25.4 107.2,25.1 108.9,24 108.9,23.8 115.8,19.1 115.7,18.9 108.7,23.6 108.7,23.6 106.9,24.9 106.9,24.9 100.7,29.1 
		100.8,29.4 99.8,30.2 99.8,30.3 97.1,32.2 97.2,32.4 100.2,30.3 	"/>
	
		<linearGradient id="SVGID_00000128481978490258529340000009962547643094684339_" gradientUnits="userSpaceOnUse" x1="-4.0514" y1="63.9167" x2="-4.0831" y2="63.8887" gradientTransform="matrix(104.4597 0 0 -75.0902 532.0269 4824.9282)">
		<stop  offset="0" style="stop-color:#62B34F"/>
		<stop  offset="0.4588" style="stop-color:#50BAB3"/>
		<stop  offset="1" style="stop-color:#0093D3"/>
	</linearGradient>
	<polygon style="fill:url(#SVGID_00000128481978490258529340000009962547643094684339_);" points="100.4,31.5 101.9,30.5 
		109.1,25.5 109,25.3 110.6,24.2 110.5,24 116.9,19.6 116.8,19.4 110.3,23.8 110.3,23.8 108.7,25 108.7,25 101.1,30.1 101.3,30.4 
		100,31.3 100.1,31.4 97.4,33.3 97.5,33.5 100.4,31.5 	"/>
	
		<linearGradient id="SVGID_00000023276849817449031620000002961338862779202491_" gradientUnits="userSpaceOnUse" x1="-3.9021" y1="63.8541" x2="-3.9338" y2="63.8261" gradientTransform="matrix(107.8998 0 0 -77.5094 530.6063 4975.439)">
		<stop  offset="0" style="stop-color:#62B34F"/>
		<stop  offset="0.4588" style="stop-color:#50BAB3"/>
		<stop  offset="1" style="stop-color:#0093D3"/>
	</linearGradient>
	<polygon style="fill:url(#SVGID_00000023276849817449031620000002961338862779202491_);" points="100.6,32.6 101.9,31.7 
		109.8,26.3 109.6,26.1 111.2,25 111.1,24.8 118,20.2 117.8,20 111,24.6 111,24.6 109.4,25.7 109.4,25.7 101.3,31.2 101.5,31.5 
		100.1,32.5 100.2,32.6 97.8,34.3 97.9,34.5 100.6,32.6 	"/>
	
		<linearGradient id="SVGID_00000027581621827555807800000010232747335924667017_" gradientUnits="userSpaceOnUse" x1="-3.9963" y1="63.9653" x2="-4.028" y2="63.9373" gradientTransform="matrix(106.2899 0 0 -76.3401 534.6066 4910.3433)">
		<stop  offset="0" style="stop-color:#62B34F"/>
		<stop  offset="0.4588" style="stop-color:#50BAB3"/>
		<stop  offset="1" style="stop-color:#0093D3"/>
	</linearGradient>
	<polygon style="fill:url(#SVGID_00000027581621827555807800000010232747335924667017_);" points="100.8,33.7 101.9,32.9 
		101.9,32.9 110.4,27.2 110.2,26.9 111.7,25.9 111.6,25.7 118.1,21.3 118,21.1 111.5,25.6 111.5,25.6 110,26.6 101.5,32.4 
		101.7,32.6 100.4,33.5 100.5,33.6 98.2,35.2 98.3,35.4 100.9,33.7 	"/>
	
		<linearGradient id="SVGID_00000100355582759496745050000018369982535377275317_" gradientUnits="userSpaceOnUse" x1="1548.1868" y1="-441.1764" x2="1520.476" y2="-458.485" gradientTransform="matrix(7.199994e-02 0 0 -7.199994e-02 0.928 5.3923)">
		<stop  offset="0" style="stop-color:#62B34F"/>
		<stop  offset="0.4588" style="stop-color:#50BAB3"/>
		<stop  offset="1" style="stop-color:#0093D3"/>
	</linearGradient>
	<polygon style="fill:url(#SVGID_00000100355582759496745050000018369982535377275317_);" points="105.5,41.7 117.2,33.6 
		117.3,33.8 105.6,41.9 	"/>
	
		<linearGradient id="SVGID_00000034052891937773487520000000271359329896739740_" gradientUnits="userSpaceOnUse" x1="1546.2136" y1="-463.9036" x2="1522.7528" y2="-478.4619" gradientTransform="matrix(7.199994e-02 0 0 -7.199994e-02 0.928 5.3923)">
		<stop  offset="0" style="stop-color:#62B34F"/>
		<stop  offset="0.4588" style="stop-color:#50BAB3"/>
		<stop  offset="1" style="stop-color:#0093D3"/>
	</linearGradient>
	<polygon style="fill:url(#SVGID_00000034052891937773487520000000271359329896739740_);" points="106.4,42.6 116.3,35.8 116.4,36 
		106.6,42.8 	"/>
	
		<linearGradient id="SVGID_00000170965445591755657860000005189422909479759270_" gradientUnits="userSpaceOnUse" x1="1549.7834" y1="-478.7496" x2="1539.2991" y2="-485.3698" gradientTransform="matrix(7.199994e-02 0 0 -7.199994e-02 0.928 5.3923)">
		<stop  offset="0" style="stop-color:#62B34F"/>
		<stop  offset="0.4588" style="stop-color:#50BAB3"/>
		<stop  offset="1" style="stop-color:#0093D3"/>
	</linearGradient>
	<polygon style="fill:url(#SVGID_00000170965445591755657860000005189422909479759270_);" points="109.9,41.5 114.2,38.5 
		114.4,38.7 110,41.7 	"/>
</g>
</svg>
